<svg xmlns="http://www.w3.org/2000/svg" viewBox="0 0 717.7 408"><g fill="#010101"><path d="M61.7 167.8c.1-2 .2-3.1.2-3.3.2-.2.7-.9 1.6-1.9.8-1 1.8-2.1 2.9-3.1 1.2-1 2.2-2.1 3.3-3.1 1-1 1.9-1.8 2.6-2.2.2-.2 1.3-.8 3.1-1.7 1.8-.9 3.9-2 6.1-3.1 2.2-1.2 4.4-2.2 6.6-3.3 2.2-1 3.9-1.8 5-2.2l17.3-6.9c.7-.2 1.9-.6 3.6-1 1.7-.5 3.5-.9 5.4-1.2 1.8-.3 3.6-.6 5.2-.9 1.6-.2 2.6-.3 3.1-.3h2.4c1.6 0 3.5-.1 5.5-.2 2.1-.1 4.2-.2 6.2-.2h10c2 0 4.1.1 6.1.2s3.6.2 5 .2h2.8c.2 0 1.7.5 4.5 1.4 2.8.9 4.7 1.6 5.9 2.1.5.2 1.6.8 3.5 1.6 1.8.8 3 1.4 3.5 1.9 0 .9.1 2.9.2 6.1.1 3.1.2 5.1.2 6.1 0 1.6-.1 3.9-.2 6.9-.1 3-.2 4.7-.2 5.2s-.3 1.3-.9 2.4c-.6 1.2-1.3 2.5-2.1 4s-1.6 2.9-2.2 4.3c-.7 1.4-1.3 2.4-1.7 3.1L162.4 196c-.2.9-.3 1.5-.3 1.7s.1.8.3 1.7c.5.5 1.6 1.1 3.5 1.9 1.8.8 3 1.3 3.5 1.6l6.9 6.9c.5.7 1.2 1.9 2.1 3.6.9 1.7 1.4 2.8 1.4 3.3 0 .2.1 1.7.2 4.5s.2 4.8.2 6.2c0 1.2-.1 3.1-.2 5.7-.1 2.7-.2 4.1-.2 4.3 0 .5-.3 1.6-.9 3.3-.6 1.7-1.3 3.8-2.1 6.1s-1.6 4.5-2.2 6.6c-.7 2.1-1.3 3.7-1.7 4.8-.2.5-.6 1.3-1.2 2.6s-1.2 2.7-1.9 4.2-1.4 2.9-2.2 4.2c-.8 1.3-1.3 2.2-1.6 2.9-.2.5-.7 1.2-1.4 2.2s-1.4 2.1-2.1 3.3c-.7 1.2-1.4 2.2-2.1 3.1s-1.2 1.5-1.4 1.7c-.5.7-1.4 1.7-2.8 2.9-1.4 1.3-2.8 2.7-4.2 4.2-1.4 1.5-2.8 2.9-4.2 4.2-1.4 1.3-2.3 2.1-2.8 2.6s-1.6 1.2-3.5 2.1c-1.8.9-3 1.4-3.5 1.4-.2 0-1.7.1-4.3.2-2.7.1-4.7.2-6.1.2-1.2 0-3.1-.1-5.9-.2-2.8-.1-4.3-.2-4.5-.2-.7 0-2.4-.5-5-1.4-2.7-.9-4.4-1.6-5.4-2.1-.5-.2-1.1-.7-1.9-1.6-.8-.8-1.3-1.4-1.6-1.9v-3.4c.2-.7.7-1.9 1.6-3.6.8-1.7 1.4-2.8 1.9-3.3.7-.9 1.9-2.2 3.6-4 1.7-1.7 2.8-2.7 3.3-2.9.2 0 1-.1 2.2-.2 1.3-.1 2.2-.2 2.9-.2.5 0 1.4.1 2.8.2s2.2.2 2.4.2.9.3 1.9 1c1 .7 2.1 1.4 3.3 2.2 1.2.8 2.2 1.6 3.3 2.2 1 .7 1.7 1.2 1.9 1.4h3.4c.5-.2 1.6-.7 3.5-1.6 1.8-.8 3-1.4 3.5-1.9.5-.2 1.1-.7 1.9-1.6.8-.8 1.3-1.4 1.6-1.9.5-.9 1.4-2.6 2.8-5.2 1.4-2.5 2.8-5.3 4.2-8.3 1.4-3 2.8-5.8 4.2-8.5 1.4-2.6 2.3-4.6 2.8-5.7.5-.9 1.2-2.7 2.1-5.4.9-2.6 1.4-4.3 1.4-5 0-.2.1-1.2.2-2.9s.2-3.1.2-4-.1-2.2-.2-4c-.1-1.7-.2-2.7-.2-2.9-.2-1.2-.8-3.1-1.6-5.7s-1.4-4.2-1.9-4.7c-.2-.5-1.2-1.1-2.9-1.9-1.7-.8-3.1-1.3-4-1.6-1.8-.2-3-.3-3.5-.3s-1.1.1-1.9.2c-.8.1-1.3.2-1.6.2-1.4 1.4-3.9 3.9-7.6 7.4-3.7 3.6-7.6 7.4-11.6 11.4s-7.8 7.9-11.4 11.6c-3.6 3.7-6.1 6.2-7.4 7.6-.5.5-1.2 1.4-2.2 2.8-1 1.4-2.1 2.8-3.3 4.2-1.2 1.4-2.2 2.8-3.1 4.2-.9 1.4-1.5 2.3-1.7 2.8-.5.7-1.1 2.3-1.9 4.8-.8 2.5-1.3 4.4-1.6 5.5-.2.7-.5 2.3-.9 4.8-.3 2.5-.7 5.3-1 8.3-.3 3-.7 5.8-1 8.5s-.5 4.7-.5 6.1c0 .9-.1 2.7-.2 5.4s-.2 4.3-.2 5h-3.3c0-1.4-.1-3.9-.3-7.6-.2-3.7-.5-7.6-.9-11.6-.3-4-.8-7.8-1.2-11.4-.5-3.6-.8-6.1-1-7.4-.2-.9-.6-2.6-1.2-5.2-.6-2.5-1.2-5.3-1.9-8.3-.7-3-1.4-5.8-2.2-8.5-.8-2.6-1.3-4.6-1.6-5.7 0-.2-.3-1-1-2.4s-1.5-2.9-2.4-4.5c-.9-1.6-1.7-3.1-2.4-4.3-.7-1.3-1-2.1-1-2.6-.5-1.6-1.2-4.7-2.2-9.3-1-4.6-2.1-9.5-3.1-14.7-1-5.2-2.3-10.4-3.4-15.1-1-4.6-1.7-7.8-1.9-9.7 0-.5-.1-1.8-.2-4.2-.1-2.3-.2-4-.2-5.2.1-1 .2-2.6.3-4.6zm13.7 11.5c.1 1.5.2 2.4.2 2.6 0 .7.2 2 .5 4s.7 4.1 1 6.4c.3 2.3.7 4.4 1 6.4.3 2 .6 3.3.9 4 .2.7.7 2.4 1.6 5 .8 2.7 1.4 4.4 1.9 5.4l6.9 13.8V175c0-.2.5-.7 1.4-1.6.9-.8 1.6-1.4 2.1-1.9.7-.5 2-1.2 3.8-2.1 1.8-.9 2.9-1.4 3.1-1.4.5 0 1.2.5 2.1 1.4.9.9 1.4 1.6 1.4 2.1v38.3c.2 0 .8-.1 1.7-.2.9-.1 1.5-.2 1.7-.2 2.1-.5 4.8-1 8.3-1.7 3.5-.7 6.9-1.4 10.2-2.2 3.3-.8 6.2-1.5 8.6-2.1 2.4-.6 3.7-.9 4-.9.2 0 .9-.6 2.1-1.7l4-4 4.5-4.5c1.5-1.5 2.6-2.7 3.3-3.6.2-.2.7-1.2 1.6-2.9.8-1.7 1.4-3.1 1.9-4 .5-1.2 1.2-3.1 2.1-5.7s1.4-4.2 1.4-4.7c0-.2.1-1 .2-2.4s.2-2.4.2-3.1c0-.7-.1-2.3-.3-4.8 0-.2-.5-.7-1.4-1.6-.9-.8-1.6-1.4-2.1-1.9s-1.6-1.1-3.5-1.9c-1.8-.8-3-1.3-3.5-1.6-.7-.2-1.7-.5-2.9-.9-1.3-.3-2.7-.7-4.2-1-1.5-.3-2.9-.7-4.2-1-1.3-.3-2.1-.5-2.6-.5-.2 0-1.2-.1-2.9-.2s-3.1-.2-4-.2c-.9 0-2.2.1-4 .2-1.7.1-2.7.2-2.9.2-.7 0-1.9.2-3.6.5-1.7.3-3.5.7-5.4 1-1.8.3-3.6.7-5.2 1-1.6.3-2.7.6-3.1.9-.5 0-1.3.3-2.4.9-1.2.6-2.5 1.3-4 2.1s-2.9 1.6-4.3 2.2c-1.4.7-2.4 1.3-3.1 1.7-.7.5-2.4 1.6-5 3.3-2.7 1.7-4.4 2.9-5.4 3.6-.5.5-1.2 1.1-2.1 1.9-.9.8-1.4 1.3-1.4 1.6-.2 2.5-.3 4.2-.3 4.8-.1.6 0 1.6.1 3.1zm52 33.6c-.7.5-2 1.2-4 2.1s-4.1 1.9-6.4 2.9c-2.3 1-4.4 2.1-6.4 3.1s-3.3 1.8-4 2.2c-.5.2-1.1.8-1.9 1.6-.8.8-1.3 1.4-1.6 1.9-.2.2-.4.9-.5 1.9s-.2 1.8-.2 2.2c.2 0 .9-.1 2.1-.3s1.8-.3 2.1-.3l6.9-3.5 10.4-6.9 6.9-6.9h-3.4zM104 143.8c0 2.3.9 3.5 2.8 3.5 1.8 0 2.8-1.2 2.8-3.5s-.9-3.5-2.8-3.5-2.8 1.3-2.8 3.5zm37.9 3.4c0 2.3.9 3.5 2.8 3.5 1.8 0 2.8-1.2 2.8-3.5s-.9-3.5-2.8-3.5c-1.9.1-2.8 1.2-2.8 3.5zM231 191.9c0 1.1-.1 3.4-.2 6.9-.1 3.4-.2 5.8-.2 6.9 0 1.8.1 4.5.2 7.9.1 3.4.2 5.4.2 5.9 0 .7.1 2.4.3 5.2s.5 5.7.9 9c.3 3.2.7 6.4 1.2 9.7.5 3.2.8 5.6 1 7.2l3.5 20.6c0 .5.1 2.1.2 4.8.1 2.8.2 4.7.2 5.9 0 1.4-.1 3.3-.2 5.9-.1 2.5-.2 3.9-.2 4.1-.2.9-.8 2.2-1.6 4-.8 1.7-1.4 2.7-1.9 2.9-.2.2-1 .4-2.2.5-1.3.1-2.2.2-2.9.2-.5 0-1.3-.1-2.6-.2s-2.1-.3-2.6-.5c-.2-.7-.5-2.2-.9-4.5-.3-2.3-.7-4.8-1-7.4s-.7-5.1-1-7.4c-.3-2.3-.5-3.9-.5-4.8-.2-3-.6-8.2-1-15.7-.5-7.5-.9-15.4-1.2-23.7-.3-8.4-.6-16.4-.9-23.9-.2-7.6-.3-12.9-.3-15.9-.5-.5-1.6-1.1-3.5-1.9-1.8-.8-3-1.3-3.5-1.6-.7-.2-2.1-.7-4.2-1.6-2.1-.8-4.2-1.7-6.4-2.6-2.2-.9-4.3-1.8-6.2-2.6-2-.8-3.3-1.4-4-1.9h20.7v-60.2c0-.7.5-1.9 1.4-3.6.9-1.7 1.6-2.8 2.1-3.3.5-.2 2-.7 4.7-1.6 2.6-.8 4.6-1.4 5.7-1.9h3.4c.9.2 2.3.6 4.2 1 1.8.5 3.7.9 5.5 1.2 1.8.3 3.5.6 4.8.9 1.4.2 2.3.3 2.8.3.7.2 1.9.8 3.6 1.6 1.7.8 2.8 1.4 3.3 1.9 1.2.9 2.8 2.4 4.8 4.3 2.1 2 4.3 4.1 6.6 6.4s4.3 4.4 6.1 6.2c1.7 1.8 2.8 3.1 3.3 3.8.5.7 1.2 2 2.1 3.8.9 1.8 1.9 3.8 2.9 6s2.1 4.3 3.1 6.4 1.8 3.6 2.2 4.5c0 .2.1 1 .2 2.2.1 1.3.2 2.2.2 2.9 0 .7-.1 1.7-.2 2.9-.1 1.3-.2 2-.2 2.2 0 .5-.9 2.1-2.8 4.8-1.8 2.8-3.2 4.6-4.2 5.5-.7.9-2.4 2.7-5 5.3-2.7 2.6-4.4 4.3-5.4 5 .5.9 1.3 2.5 2.6 4.8s2.7 4.8 4.3 7.4c1.6 2.6 3.1 5.1 4.3 7.2 1.3 2.2 2.1 3.7 2.6 4.7l17.3 27.5 17.3 30.9c.7 1.1 2 3.2 4 6.2s4 6.2 6.2 9.5 4.3 6.4 6.2 9.3c2 2.9 3.4 4.9 4.3 6v4.1c-.5 0-1-.1-1.7-.3-.7-.2-1.3-.3-1.7-.3-.5-.5-1.6-1.5-3.5-3.3-1.8-1.7-3-2.9-3.5-3.6-.9-.9-2.2-2.6-4-5-1.7-2.4-3.5-4.9-5.4-7.4-1.8-2.5-3.5-4.9-5-7.2s-2.5-3.8-2.9-4.5l-17.3-30.9c-.9-1.6-2.4-4-4.3-7.2-2-3.2-4.1-6.5-6.4-9.8s-4.4-6.3-6.2-9c-1.8-2.6-3.1-4.3-3.8-5l-3.1-3.1c-1.4-1.4-2.8-2.8-4.2-4.3-1.4-1.5-2.7-2.9-4-4.1-1.3-1.3-2.1-2-2.6-2.2-.9-.5-2.5-1.2-4.7-2.2-2.2-1-4.6-2.1-7.3-3.3-2.7-1.1-5.1-2.2-7.4-3.1-2.1-.9-3.6-1.5-4.5-1.7zm-8-66.3c0 .9.1 2.6.2 5s.2 5 .3 7.8.2 5.3.3 7.6c.1 2.3.2 3.9.2 4.8 0 .9.2 2.2.5 4 .3 1.7.7 3.5 1 5.4.3 1.8.7 3.5 1 5 .3 1.5.6 2.5.9 2.9.5.9 1.6 2.2 3.3 4 1.7 1.8 2.9 2.7 3.6 2.9.2.2 1.7.4 4.3.5s4.7.2 6.1.2c1.4 0 3.4-.1 6.1-.2 2.6-.1 4.1-.3 4.3-.5.7-.2 1.9-1.2 3.6-2.9 1.7-1.7 2.8-3.1 3.3-4 .2-2.5.3-4.2.3-4.8s-.1-1.7-.2-3.1c-.1-1.4-.2-2.2-.2-2.4-.2-.5-.5-1.2-.7-2.2-.2-1-.6-2.1-1-3.3-.7-2.8-1.3-4.4-1.7-4.8l-3.1-3.1c-1.8-2.3-4.3-5-7.4-8-3.1-3-5.4-5.1-6.7-6.2-.5-.5-1.6-1.1-3.5-1.9-1.8-.8-3-1.3-3.5-1.6-.7-.2-2.5-.5-5.5-.7-2.9-.3-4.9-.4-5.8-.4zm8 163.2c-1.8 0-2.8 1.2-2.8 3.5s.9 3.5 2.8 3.5c1.8 0 2.8-1.2 2.8-3.5-.1-2.3-1.1-3.5-2.8-3.5z"/><path d="M294.4 394c0-.5.1-1.6.3-3.5.2-.2.6-1 1.2-2.2.6-1.3 1.2-2.7 1.9-4.2s1.4-2.9 2.1-4.3c.7-1.4 1.3-2.4 1.7-3.1l13.8-20.7c.5-.5 1.1-1.6 1.9-3.5.8-1.8 1.3-3 1.6-3.5.5-2.3 1.2-6.4 2.2-12.3s2.1-12.2 3.3-18.9 2.2-13 3.1-18.9c.9-5.9 1.5-10 1.7-12.3 0-.5.1-2.2.2-5.2s.2-5.3.2-6.9-.1-4-.2-7.1-.2-4.8-.2-5c0-.5-.5-1.6-1.4-3.3-.9-1.7-1.6-2.9-2.1-3.6l-3.5-3.5c-1.2-.5-3.5-1.1-6.9-1.9-3.5-.8-5.8-1.3-6.9-1.6h-20.5c-1.6-.7-2.8-1.8-3.5-3.3-.7-1.5-.9-2.7-.7-3.6h59.4c.2 0 .8-.5 1.7-1.4.9-.9 1.5-1.6 1.7-2.1.5-.7 1.1-1.8 1.9-3.5.8-1.6 1.6-3.4 2.2-5.4.7-2 1.3-3.7 1.9-5.4.6-1.6.9-2.6.9-3.1s.1-1.8.3-4.2c.2-2.3.5-4.9.9-7.8.3-2.9.7-5.8 1.2-8.8.5-3 .8-5.3 1-6.9l3.5-44.9c0-.7.2-2 .5-4s.7-4.1 1-6.4c.3-2.3.7-4.4 1-6.4.3-2 .6-3.3.9-4L374 86.4c2.8-10.6 5.8-21.1 9-31.6s7.1-20.6 11.8-30.5c.5-.9 1.2-2.4 2.2-4.5s2.1-4.2 3.1-6.4 2-4.2 2.9-6.1c.9-1.8 1.6-3.1 2.1-3.8.2-.5.7-1.1 1.6-1.9.8-.8 1.4-1.3 1.9-1.6 0 3-.1 8.2-.2 15.7s-.2 15.5-.2 23.9.1 16.6.2 23.9c.1 7.5.2 12.7.2 15.7.2 3.2.5 8.2.9 14.9.3 6.7.7 14.2 1.2 22.6.5 8.4.9 17.3 1.4 26.5s.9 18.2 1.4 26.5c.5 8.4.9 16 1.2 22.6.3 6.7.6 11.5.9 14.5 0 .7.1 1.8.3 3.5.2 1.6.5 3.3.9 5.2.3 1.8.7 3.6 1.2 5.2s.8 2.8 1 3.5c.2.5 1.2 1.6 2.9 3.5 1.7 1.8 3.1 3 4 3.5.5.2 1.6.7 3.3 1.4s3.6 1.4 5.5 2.1c2 .7 3.7 1.4 5.4 2.1 1.6.7 2.6 1.2 3.1 1.4.7.5 1.8 1 3.3 1.7l4.5 2.1c1.5.7 2.8 1.3 4 1.9 1.2.6 1.8 1 2.1 1.2.7.5 1.9 1.6 3.6 3.3 1.7 1.7 2.8 2.9 3.3 3.6.2.9.3 1.5.3 1.7s-.1.8-.3 1.7c-.2.5-.8 1.1-1.6 1.9-.8.8-1.4 1.3-1.9 1.6-.7-.7-2.4-1.9-5-3.6-2.7-1.7-4.4-2.8-5.4-3.3-.9-.5-2.7-1.2-5.4-2.1-2.7-.9-4.3-1.4-5-1.4h-3.8c-2.5 0-5.4.2-8.7.5-3.2.3-5.4.5-6.6.5 0 .9-.4 2.5-1.2 4.7-.8 2.2-1 3.8-.5 4.7.2.7 1 2.4 2.4 5.2 1.4 2.8 2.9 5.7 4.5 8.8s3.1 6 4.5 8.7c1.4 2.7 2.2 4.3 2.4 5 .2.7.7 2.1 1.4 4.2s1.4 4.2 2.2 6.4c.8 2.2 1.5 4.3 2.1 6.2.6 2 1 3.3 1.2 4 .2.7.5 2.2.9 4.5.3 2.3.7 4.8 1 7.4s.7 5.1 1 7.4c.3 2.3.5 3.9.5 4.8-.2.5-.8 1.1-1.6 1.9-.8.8-1.4 1.3-1.9 1.6-.9.2-1.5.3-1.7.3-.5 0-1-.1-1.7-.3-.2-.2-.7-.9-1.4-1.9-.7-1-1.4-2.2-2.2-3.5-.8-1.3-1.5-2.4-2.1-3.3-.6-.9-1-1.5-1.2-1.7-.7-.9-1.6-2.1-2.6-3.6s-2.1-2.9-3.1-4.3-2-2.7-2.9-3.8c-.9-1.2-1.5-1.8-1.7-2.1-.9-1.2-2.7-3.1-5.4-5.7s-5.4-5.4-8.3-8.3c-2.9-2.9-5.7-5.6-8.3-8.3-2.7-2.6-4.6-4.4-5.7-5.4h3.4c1.2.5 3.5 1.6 7.1 3.3 3.6 1.7 6.6 3.4 9.2 5 2.3 1.2 3.8 1.8 4.5 2.1.9.5 2.7 1.6 5.4 3.5 2.6 1.8 4.3 3 5 3.5 0-.2.1-.5.2-.9.1-.3.2-.6.2-.9 0-.2-.1-.8-.3-1.7L412 276.1c-.7-.9-1.7-2.7-3.1-5.4-1.4-2.6-2.8-5.5-4.2-8.5-1.4-3-2.7-5.8-4-8.5-1.3-2.6-2.1-4.4-2.6-5.4h-38c-.5 0-1.6.5-3.5 1.4-1.8.9-3 1.6-3.5 2.1s-1.1 1.6-1.9 3.3c-.8 1.7-1.3 2.9-1.6 3.6L339.3 307l-13.5 59.5-3.5 17.3c-.2.9-.7 2.4-1.4 4.5s-1.4 4.2-2.1 6.4-1.4 4.2-2.1 6.1c-.7 1.8-1.2 3.1-1.4 3.8-.2.5-.8 1.2-1.6 2.1-.8.9-1.4 1.4-1.9 1.4h-10.2c-.2 0-.7-.5-1.6-1.4-.8-.9-1.4-1.6-1.9-2.1l-3.5-6.9c0-.2-.1-.8-.2-1.6.1-1 0-1.6 0-2.1zm14.2 7c-1.8 0-2.8 1.2-2.8 3.5s.9 3.5 2.8 3.5c1.8 0 2.8-1.2 2.8-3.5 0-2.4-.9-3.5-2.8-3.5zm89.7-303.7c-.9 2.8-2.3 6.9-4.2 12.5-1.8 5.5-3.9 11.8-6.2 18.9-2.3 7-4.7 14.4-7.3 22-2.5 7.7-5 15.1-7.3 22s-4.3 13.4-6.1 19c-1.7 5.7-2.9 9.9-3.6 12.6-.2 1.2-.7 3-1.4 5.5s-1.4 5.2-2.1 8.1c-.7 2.9-1.4 5.7-2.1 8.3-.7 2.7-1.2 4.6-1.4 5.7-.2.5-.4 1.8-.5 4.2-.1 2.3-.2 3.7-.2 4.2.9 0 2.8-.1 5.5-.2 2.8-.1 5.6-.3 8.7-.5 3-.2 5.8-.4 8.5-.5 2.6-.1 4.6-.2 5.7-.2.5 0 1.6-.5 3.3-1.4 1.7-.9 2.9-1.6 3.6-2.1l6.9-6.9c.2-.9.6-2.7 1-5.4.5-2.6.9-5.5 1.2-8.5.3-3 .6-5.8.9-8.3.2-2.5.3-4.4.3-5.5 0-.9.1-3.7.2-8.3.1-4.6.2-9.8.2-15.6 0-6 .1-11.9.2-17.8s.2-10.6.2-14c0-2.3-.1-5.5-.2-9.5s-.2-8-.2-11.9c0-4.2-.1-7.8-.2-10.9-.1-3.1-.2-4.9-.2-5.4l-3.2-10.1zm-27.6 24.1c-1.8 0-2.8 1.2-2.8 3.5s.9 3.5 2.8 3.5c1.8 0 2.8-1.2 2.8-3.5s-.9-3.5-2.8-3.5z"/><path d="M465.7 173.9c0 2.8-.1 5.7-.2 8.8-.1 3.1-.2 6.1-.2 8.8V205c0 3.2.1 6.4.2 9.5.1 3.1.2 5.9.2 8.5v3.8c0 .9.2 3.1.5 6.4.3 3.3.7 7 1 10.9s.7 7.6 1.2 10.9.7 5.5.7 6.4v24.2c-.5.7-1.6 1.9-3.3 3.6-1.7 1.7-2.9 2.8-3.6 3.3-.2.2-1.3.4-3.1.5-1.8.1-3.3.2-4.5.2-.9 0-2.2-.1-3.8-.2-1.6-.1-2.4-.3-2.4-.5-.5-.5-1.1-2.4-1.9-5.9s-1.3-6.1-1.6-8c0-.2-.1-1.7-.2-4.3s-.2-4.6-.2-5.7c0-1.2.1-3.1.2-5.9.1-2.8.2-4.4.2-4.8.2-2.8.6-7 1.2-12.6s1.2-12.1 1.7-19.4c.6-7.3 1.3-14.9 2.1-22.9.8-8.1 1.6-15.7 2.2-22.9.7-7.3 1.3-13.8 1.9-19.7s1-10.2 1.2-13c0-.7.2-1.8.5-3.5.3-1.6.7-3.3 1-5.2.3-1.8.7-3.6 1-5.2.3-1.6.6-2.8.9-3.5.5.2 1.1.8 1.9 1.6.8.8 1.3 1.4 1.6 1.9.2.5.5 1.3.9 2.6.3 1.3.7 2.7 1 4.3.3 1.6.7 3.1 1 4.5.3 1.4.5 2.2.5 2.4.2.7.7 2.4 1.6 5 .8 2.7 1.4 4.4 1.9 5.4l20.7 55.3 10.4 31c.2.7.7 1.7 1.4 3.1s1.4 2.8 2.1 4.3 1.4 2.9 2.1 4.2c.7 1.3 1.2 2 1.4 2.2.5.5 1.3 1.4 2.6 2.8s2.6 2.8 4.2 4.2c1.5 1.4 2.9 2.8 4.2 4.2 1.3 1.4 2.2 2.3 2.9 2.8.2.2.6.1 1.2-.5s1-.9 1.2-.9c0-1.8.1-5.2.2-10s.3-9.9.5-15.2c.2-5.3.3-10.4.3-15.2v-10c0-.9-.2-3.1-.5-6.4-.3-3.3-.7-7-1-10.9s-.8-7.6-1.2-10.9c-.5-3.3-.7-5.5-.7-6.4s-.2-4.4-.5-10.6c-.3-6.1-.7-13-1-20.7-.3-7.7-.7-15.5-1-23.1s-.6-13.8-.9-18.2v-7c.2-.9.7-2.2 1.6-4 .8-1.7 1.4-2.7 1.9-2.9.7-.5 2.4-1.2 5-2.1 2.6-.9 4.4-1.4 5.4-1.4.5 0 1.1.5 1.9 1.4.8.9 1.3 1.6 1.6 2.1.2 1.8.3 3 .3 3.5s-.1 1.1-.2 1.9c-.1.8-.2 1.3-.2 1.6 0 .5-.3 1.6-1 3.3-.7 1.7-1.4 3.5-2.2 5.4-.8 1.8-1.6 3.6-2.2 5.4-.7 1.7-1.2 2.8-1.4 3.3-.5 1.4-1.2 3.4-2.1 6.1-.9 2.7-1.4 4.1-1.4 4.3s-.1 1.8-.2 4.7c-.1 2.9-.2 5.1-.2 6.7v3.1c0 1.4.1 2.8.2 4.2.1 1.4.2 2.7.2 3.8v1.7c0 1.4.2 4 .5 7.8s.7 7.9 1 12.3c.3 4.4.7 8.6 1 12.6s.6 7 .9 8.8c0 .7.2 2.1.5 4.3.3 2.2.7 4.6 1 7.1.3 2.5.7 5 1 7.4.3 2.4.6 4.2.9 5.4l3.5 17.3c.2 1.4.6 3.2 1 5.5.5 2.3.9 4.6 1.2 6.7.3 2.2.6 4.1.9 5.7.2 1.6.3 2.5.3 2.8v3.1c0 1.6.1 3.5.2 5.7s.2 4.4.2 6.7v9.4c0 1.8-.1 3.9-.2 6.2-.1 2.3-.2 4.5-.2 6.6v3.8c.2.7-.1 1.9-1 3.6-.9 1.7-1.7 2.8-2.4 3.3H521c-.7-.2-1.9-1.2-3.6-2.9-1.7-1.7-2.8-3.1-3.3-4-.2-.5-.8-1.8-1.6-4.2-.8-2.3-1.8-4.9-2.9-7.8-1.2-2.9-2.2-5.8-3.3-8.8-1-3-1.9-5.3-2.6-6.9L479.5 203c-.5-.9-1.2-2.6-2.1-5.2-.9-2.5-1.9-5.3-2.9-8.3-1-3-2.1-5.8-3.1-8.5-1-2.6-1.8-4.6-2.2-5.7-.2-.5-.8-1.6-1.6-3.5-.8-1.8-1.4-3-1.9-3.5v5.6zm-13.2 52.7c0 2.3.9 3.5 2.8 3.5 1.8 0 2.8-1.2 2.8-3.5s-.9-3.5-2.8-3.5c-1.9.2-2.8 1.3-2.8 3.5zM545 247.1c.2-.5.7-1.1 1.6-1.9.8-.8 1.4-1.3 1.9-1.6 1.8-.2 3-.3 3.5-.3s1.1.1 1.9.2c.8.1 1.3.2 1.6.2l6.9 3.5c1.8 1.2 3.2 2.7 4.2 4.7.9 2 1.8 3.9 2.8 5.7.2.7.7 1.8 1.4 3.5.7 1.6 1.4 3.3 2.1 5.2.7 1.8 1.4 3.6 2.1 5.2.7 1.6 1.2 2.8 1.4 3.4 0-.7.1-2.1.2-4.3.1-2.2.2-3.6.2-4.3 0-1.2-.1-2.8-.2-5s-.2-3.4-.2-3.6c0-.5-.5-2.4-1.4-5.9s-1.6-6.1-2.1-7.9l-3.5-10.4c-.7-3.4-1.6-8.3-2.8-14.7-1.2-6.3-2.2-12.6-3.3-18.8-1-6.2-2-11.7-2.9-16.6-.9-4.8-1.4-7.7-1.4-8.6 0-.5-.1-2.2-.2-5.4-.1-3.1-.2-6.7-.3-10.7s-.2-8-.2-11.9v-10-7.6s.1-7.5.2-11.6c.1-4 .2-7.8.3-11.4.1-3.6.2-6 .2-7.4.5-.7 1.3-1.7 2.6-2.9 1.3-1.3 2.7-2.6 4.2-4.1 1.5-1.5 2.9-2.9 4.2-4.1 1.3-1.3 2.2-2.1 2.9-2.6.2-.2 1.2-.7 2.9-1.6 1.7-.8 3.1-1.4 4-1.9.2 0 .9-.2 1.9-.5s2.2-.7 3.5-1 2.4-.7 3.3-1c.9-.3 1.5-.6 1.7-.9.2-.2.5-1 .9-2.4.3-1.4.7-2.8 1-4.3.3-1.5.6-2.9.9-4.3.2-1.4.5-2.3.7-2.8.2-.5.7-1.1 1.6-1.9.8-.8 1.4-1.3 1.9-1.6 1.8-.2 3-.3 3.5-.3s1.6.1 3.5.3c.5.2 1.1.8 1.9 1.6.8.8 1.3 1.4 1.6 1.9.2.5.5 1.4.7 2.8.2 1.4.5 2.9.9 4.5.3 1.6.7 3.1 1 4.3.3 1.3.6 2 .9 2.2.7.5 1.9 1 3.6 1.6 1.7.6 3.6 1.2 5.5 1.7 2 .6 3.7 1 5.4 1.4 1.6.3 2.8.5 3.5.5 0 .5-.1.2-.2-.9-.1-1-.3-1.3-.5-.9-.2.5-.8 1.1-1.6 1.9-.8.8-1.4 1.3-1.9 1.6.7.7 1.8 2 3.5 4 1.6 2 3.3 4.1 5.2 6.4 1.8 2.3 3.6 4.4 5.2 6.4s2.8 3.3 3.5 4c6.5 8.3 11.1 17.5 13.8 27.6v5.2c0 2.5.1 5.2.2 8s.2 5.4.2 8v11.7c0 2.7-.1 5.5-.2 8.3-.1 2.8-.2 5.2-.2 7.3v3.5c0 .2-.1 1.1-.3 2.6-.2 1.5-.5 3.2-.9 5-.3 1.8-.8 3.7-1.2 5.5-.5 1.8-.8 3.2-1 4.2-.2 1.2-.7 3.1-1.4 5.7-.7 2.7-1.4 5.5-2.1 8.5-.7 3-1.4 5.8-2.1 8.3-.7 2.5-1.2 4.3-1.4 5.2-.2.7-.8 2.4-1.6 5-.8 2.7-1.4 4.4-1.9 5.4-.7 1.8-1.7 4.5-2.9 8-1.3 3.5-2.7 7-4.2 10.6-1.5 3.6-2.9 6.9-4.2 10s-2.1 5.1-2.6 6.1c-.7 1.8-1.9 4.5-3.6 8-1.7 3.5-2.8 5.4-3.3 5.9-.7.7-1.8 1.9-3.5 3.6-1.6 1.7-3.3 3.5-5.2 5.4l-5.2 5.2s-2.8 2.7-3.5 3.1c-.5.5-2 1.1-4.7 1.9s-4.6 1.3-5.7 1.6h-6.9c-.5-.2-1.6-1.3-3.3-3.1-1.7-1.8-2.9-3.2-3.6-4.2l-6.9-10.4-20.7-27.5c-.5-.7-1-1.6-1.7-2.6s-1.4-2.1-2.2-3.3c-.8-1.2-1.5-2.1-2.1-2.9-.6-.8-.9-1.3-.9-1.6-.2-1.8-.3-3-.3-3.5-.4-1.1-.3-2.2-.1-4.1zm18.1-100.4c.6 3.8 1.2 8.3 1.9 13.5.7 5.2 1.4 10.4 2.2 15.7.8 5.3 1.4 9.6 1.9 12.8.2 1.8.7 4.8 1.4 9s1.4 8.4 2.1 12.8c.7 4.4 1.4 8.5 2.1 12.3.7 3.8 1.2 6.3 1.4 7.4.2 1.2.7 3.5 1.6 6.9.8 3.5 1.4 5.8 1.9 6.9.2-1.2.5-3.2.9-6.1.3-2.9.7-6 1-9.3s.7-6.5 1-9.5c.3-3 .5-5.1.5-6.2.5-4.8 1-11.5 1.7-19.9s1.4-16.9 2.2-25.3 1.5-16.1 2.1-22.6.9-10.4.9-11.6c0-1.6.1-4.4.2-8.3.1-3.9.2-8.1.3-12.6s.2-8.8.3-12.8c.1-4 .2-6.9.2-8.5-.5 0-1.8.1-4 .2s-3.5.3-4 .5c-.7.2-2 .8-3.8 1.6-1.8.8-2.9 1.4-3.1 1.9-.5.5-1.6 2.4-3.3 5.9-1.7 3.5-2.9 6.1-3.6 8-.5.9-1.1 2.7-1.9 5.4-.8 2.7-1.3 4.3-1.6 5-.2 1.2-.6 2.8-1 5-.5 2.2-.9 4.4-1.2 6.6-.3 2.2-.6 4.2-.9 6.1-.2 1.8-.3 2.9-.3 3.1 0 .3.3 2.3.9 6.1zm-.2-51.2c0 2.3.9 3.5 2.8 3.5 1.8 0 2.8-1.2 2.8-3.5s-.9-3.5-2.8-3.5c-1.9.1-2.8 1.2-2.8 3.5zm51.7 1.4c-1.7.9-3.1 1.6-4 2.1-.5.5-1.1 1-1.9 1.7-.8.7-1.3 1.3-1.6 1.7-.5.9-1.2 2.7-2.1 5.4-.9 2.7-1.4 4.3-1.4 5-.2 1.4-.5 4.6-.9 9.7-.3 5.1-.7 10.5-1 16.3-.3 5.8-.7 11.2-1 16.3s-.5 8.3-.5 9.7l-3.5 24.1c-.2 2.1-.5 5.4-.9 9.9-.3 4.5-.7 9.1-1 13.8s-.7 9.1-1 13.1-.5 6.7-.5 8.1c0 1.6-.1 4.4-.2 8.5-.1 4-.2 8.3-.3 12.8-.1 4.5-.2 8.7-.2 12.6v8.3c.2 0 .9-.1 2.1-.2 1.2-.1 1.8-.3 2.1-.5.7-.2 1.9-.7 3.6-1.6 1.7-.8 2.8-1.4 3.3-1.9.9-.5 2.2-1.6 4-3.5 1.7-1.8 2.7-3 2.9-3.5 1.2-2.8 2.1-5.1 2.9-6.9.8-1.8 1.6-3.7 2.2-5.7.7-2 1.3-3.5 1.7-4.7l10.4-27.6 6.9-17.3c.2-.7.7-2.3 1.4-4.8s1.4-5.2 2.1-8.1c.7-2.9 1.4-5.7 2.1-8.5.7-2.8 1.2-4.8 1.4-6.2.2-.9.5-2.4.9-4.5s.7-4.2 1-6.4c.3-2.2.7-4.2 1-6.1.3-1.8.5-3.1.5-3.8 0-.2.1-1.5.2-3.8s.2-4 .2-5.2c0-1.2-.1-2.8-.2-4.8-.1-2.1-.2-3.2-.2-3.5-.2-1.2-.8-3.5-1.6-6.9-.8-3.5-1.4-5.8-1.9-6.9-.2-.7-.7-1.7-1.4-3.1-.7-1.4-1.4-2.8-2.1-4.3-.7-1.5-1.4-2.8-2.1-4-.7-1.2-1.2-2-1.4-2.4-.2-.2-.8-.9-1.7-1.9s-2-2.1-3.1-3.1c-1.2-1-2.2-2.1-3.3-3.1l-2.2-2.2c-.7-.5-1.9-1.2-3.6-2.1-1.7-.9-2.8-1.4-3.3-1.4-.1 0-1.1.5-2.8 1.4z"/></g></svg>