<svg xmlns="http://www.w3.org/2000/svg" viewBox="0 0 482 410.3"><path fill="#E3E3E3" d="M88.2 141c.1-1.8.1-3.2.1-4.2 0-.6 0-1.8-.1-3.6-.1-1.9-.1-3.1-.1-3.6-.3-.3-1-.7-2.1-1.1-1.1-.5-1.8-.8-2.1-.9-.7-.3-1.9-.7-3.5-1.3-1.7-.6-2.6-.8-2.7-.8H76c-.8 0-1.8 0-3-.1s-2.4-.1-3.6-.1h-6c-1.2 0-2.5 0-3.7.1-1.2.1-2.4.1-3.3.1h-1.5c-.3 0-.9.1-1.9.2-1 .1-2 .3-3.1.5s-2.2.5-3.2.7c-1 .3-1.8.5-2.2.6l-10.4 4.2c-.7.3-1.7.7-3 1.4-1.3.6-2.6 1.3-4 2-1.3.7-2.5 1.3-3.6 1.9-1.1.6-1.7.9-1.9 1-.4.3-.9.7-1.6 1.4-.6.6-1.3 1.3-2 1.9-.7.6-1.3 1.3-1.8 1.9-.5.6-.8 1-.9 1.1 0 .1 0 .8-.1 2s-.1 2.1-.1 2.8c0 .7 0 1.7.1 3.1.1 1.4.1 2.2.1 2.5.1 1.1.5 3.1 1.1 5.8.6 2.8 1.2 5.7 1.9 8.9.6 3.1 1.2 6.1 1.9 8.9.6 2.8 1.1 4.7 1.4 5.6 0 .3.2.8.6 1.6.4.8.9 1.6 1.5 2.6s1 1.9 1.5 2.7c.4.8.6 1.3.6 1.5.1.7.4 1.8.9 3.4.5 1.6.9 3.3 1.4 5.1.4 1.8.8 3.5 1.1 5 .3 1.5.6 2.6.7 3.1.1.8.3 2.3.6 4.5s.5 4.5.7 6.9c.2 2.4.4 4.8.5 7 .1 2.2.2 3.8.2 4.6h1.9c0-.4 0-1.4.1-3s.1-2.7.1-3.2c0-.8.1-2 .3-3.6.2-1.6.4-3.3.6-5.1.2-1.8.4-3.5.6-5 .2-1.5.4-2.5.5-2.9.1-.7.4-1.8.9-3.3.5-1.5.9-2.5 1.1-2.9.1-.3.5-.8 1-1.7.6-.8 1.2-1.7 1.9-2.5s1.4-1.7 2-2.5c.6-.8 1.1-1.4 1.4-1.7.8-.8 2.3-2.4 4.5-4.6 2.2-2.2 4.4-4.6 6.9-7 2.4-2.4 4.8-4.7 7-6.9s3.7-3.6 4.6-4.5c.1 0 .4 0 .9-.1s.9-.1 1.1-.1c.3 0 1 .1 2.1.2.6.1 1.4.5 2.4.9 1 .5 1.6.9 1.8 1.1.3.3.7 1.2 1.1 2.8.5 1.6.8 2.7.9 3.4 0 .1 0 .7.1 1.8.1 1 .1 1.8.1 2.4 0 .6 0 1.4-.1 2.4s-.1 1.6-.1 1.8c0 .4-.3 1.4-.8 3-.6 1.6-1 2.7-1.2 3.2-.3.7-.8 1.8-1.7 3.4-.8 1.6-1.7 3.3-2.5 5.1-.8 1.8-1.7 3.5-2.5 5s-1.4 2.6-1.7 3.1c-.1.3-.5.7-.9 1.1-.5.5-.9.8-1.1.9-.3.3-1 .7-2.1 1.1-1.1.5-1.8.8-2.1.9h-2.1c-.1-.1-.5-.4-1.1-.8-.6-.4-1.3-.9-2-1.4-.7-.5-1.4-.9-2-1.4-.6-.4-1-.6-1.1-.6-.1 0-.6 0-1.5-.1-.8-.1-1.4-.1-1.7-.1-.4 0-1 0-1.8.1s-1.2.1-1.4.1c-.3.1-.9.7-2 1.8s-1.8 1.8-2.2 2.4c-.3.3-.7.9-1.1 2-.5 1-.8 1.8-.9 2.2v2.1c.1.3.4.7.9 1.1.5.5.9.8 1.1.9.6.3 1.6.7 3.2 1.3 1.6.6 2.6.8 3 .8.1 0 1 0 2.7.1 1.7.1 2.8.1 3.5.1.8 0 2 0 3.6-.1s2.5-.1 2.6-.1c.3 0 1-.3 2.1-.8 1.1-.6 1.8-1 2.1-1.3.3-.3.8-.8 1.7-1.6.8-.8 1.7-1.6 2.5-2.5.8-.9 1.7-1.7 2.5-2.5s1.4-1.4 1.7-1.8c.1-.1.4-.5.8-1 .4-.6.8-1.2 1.2-1.9.4-.7.8-1.4 1.2-2 .4-.6.7-1.1.8-1.4.1-.4.4-1 .9-1.8s.9-1.6 1.4-2.5c.4-.9.8-1.7 1.1-2.5.3-.8.6-1.3.7-1.6.3-.7.6-1.7 1-2.9.4-1.3.9-2.6 1.4-4 .5-1.4.9-2.6 1.2-3.6.3-1 .5-1.7.5-2 0-.1 0-1 .1-2.6s.1-2.7.1-3.4c0-.8 0-2.1-.1-3.8-.1-1.7-.1-2.6-.1-2.7 0-.3-.3-.9-.8-2-.6-1-1-1.8-1.2-2.2l-4.2-4.2c-.3-.1-1-.4-2.1-.9s-1.8-.9-2.1-1.1c-.1-.6-.2-.9-.2-1 0-.1.1-.5.2-1l8.3-10.4c.3-.4.6-1 1-1.9.4-.8.9-1.7 1.4-2.6.5-.9.9-1.7 1.2-2.4.3-.7.5-1.2.5-1.5.6-.1.6-1.1.7-2.9zm-23-9.4c1.1 0 1.7.7 1.7 2.1 0 1.4-.6 2.1-1.7 2.1s-1.7-.7-1.7-2.1c0-1.4.6-2.1 1.7-2.1zm-22.9-2.1c1.1 0 1.7.7 1.7 2.1 0 1.4-.6 2.1-1.7 2.1s-1.7-.7-1.7-2.1c0-1.4.6-2.1 1.7-2.1zm10.4 47.9l-6.2 4.2-4.2 2.1c-.1 0-.6.1-1.2.2-.7.1-1.1.2-1.2.2 0-.3 0-.7.1-1.4.1-.6.2-1 .3-1.1.1-.3.4-.7.9-1.1.5-.5.9-.8 1.1-.9.4-.3 1.2-.7 2.4-1.4 1.2-.6 2.5-1.3 3.9-1.9 1.4-.6 2.7-1.2 3.9-1.8 1.2-.6 2-1 2.4-1.3H57l-4.3 4.2zm20.9-30.6c-.1.8-.1 1.3-.1 1.5 0 .3-.3 1.2-.8 2.8-.6 1.6-1 2.7-1.2 3.4-.3.6-.7 1.4-1.1 2.4l-.9 1.8c-.4.6-1.1 1.3-2 2.2l-2.7 2.7-2.4 2.4c-.7.7-1.1 1-1.2 1-.1 0-.9.2-2.4.5s-3.2.8-5.2 1.3-4.1.9-6.1 1.4c-2.1.4-3.7.8-5 1-.1 0-.5 0-1 .1-.6.1-.9.1-1 .1v-23.1c0-.3-.3-.7-.8-1.3-.6-.6-1-.8-1.2-.8-.1 0-.8.3-1.9.8-1.1.6-1.9 1-2.3 1.3-.3.3-.7.7-1.2 1.1-.6.5-.8.8-.8.9v31.3l-4.2-8.3c-.3-.6-.7-1.6-1.1-3.2-.5-1.6-.8-2.6-.9-3-.1-.4-.3-1.2-.5-2.4s-.4-2.5-.6-3.9c-.2-1.4-.4-2.7-.6-3.9-.2-1.2-.3-2-.3-2.4 0-.1 0-.7-.1-1.6-.1-.9-.1-1.5-.1-1.8 0-.4.1-1.4.2-2.9 0-.1.3-.4.8-.9.6-.5 1-.9 1.2-1.1.6-.4 1.6-1.1 3.2-2.2 1.6-1 2.6-1.7 3-2 .4-.3 1-.6 1.9-1 .8-.4 1.7-.9 2.6-1.4.9-.5 1.7-.9 2.4-1.3.7-.3 1.2-.5 1.5-.5.3-.1.9-.3 1.9-.5 1-.2 2-.4 3.1-.6 1.1-.2 2.2-.4 3.2-.6 1-.2 1.8-.3 2.2-.3.1 0 .7 0 1.8-.1 1-.1 1.8-.1 2.4-.1.6 0 1.4 0 2.4.1s1.6.1 1.8.1c.3 0 .8.1 1.6.3.8.2 1.6.4 2.5.6.9.2 1.7.4 2.5.6.8.2 1.4.4 1.8.5.3.1 1 .5 2.1.9 1.1.5 1.8.9 2.1 1.1.3.3.7.7 1.2 1.1.6.5.8.8.8.9.1 1.5.2 2.5.2 2.9-.6.6-.6 1.3-.7 2.1zm41.6 53.6l-2.1-8.3V190c-.1-.3-.5-.7-.9-1.1-.5-.5-.9-.8-1.1-.9-.6-.1-.9-.2-1-.2-.1 0-.5.1-1 .2-.3.1-.7.4-1.1.9-.5.5-.8.9-.9 1.1-.3.7-.7 1.8-1.2 3.4-.6 1.6-.8 2.5-.8 2.8 0 .4.2 1.3.6 2.7.4 1.4.9 2.9 1.5 4.6.6 1.7 1 3.2 1.5 4.6.4 1.4.6 2.3.6 2.7 0 .1 0 .7.1 1.8.1 1 .1 1.8.1 2.4 0 .6 0 1.4-.1 2.4s-.1 1.6-.1 1.8c0 .3-.3.7-.8 1.1-.6.5-1 .8-1.2.9-1.1.1-1.8.2-2.1.2-.3 0-1-.1-2.1-.2-.1 0-.5-.3-.9-.8-.5-.6-.9-1-1.1-1.2l-2.1-4.1c-.1-.4-.3-1.2-.5-2.3-.2-1.1-.4-2.3-.6-3.6s-.4-2.6-.6-3.8c-.2-1.2-.3-2.1-.3-2.7v-6.2c-.1-.7-.5-1.8-.9-3.4-.5-1.6-.9-2.5-1.1-2.8 0-.1-.3-.2-.8-.3-.6-.1-1-.1-1.2-.1-.3 0-.7 0-1.1.1-.5.1-.8.2-.9.3-.3.7-.5 1.8-.7 3.3-.2 1.5-.4 3.2-.6 5-.2 1.8-.4 3.5-.5 5.1-.1 1.6-.2 2.7-.2 3.2 0 .3.2 1.1.5 2.5s.7 3 1.1 4.8c.4 1.8.9 3.6 1.4 5.3.5 1.7.9 3.1 1.1 4 .1.3.4 1 .9 2.1s.9 1.8 1.1 2.1c.1.3.4.7.9 1.2s.9.8 1.1 1l4.2 2.2h4.2c.6-.1 1.5-.5 2.9-1.1 1.4-.6 2.9-1.3 4.5-1.9 1.6-.6 3.1-1.3 4.4-1.9 1.3-.6 2.3-1.1 2.8-1.4v-6.3l-2.1-8.3-2.8-10.8zm57.9-32.5c.2-1.9.4-3.6.7-5.1.3-1.5.5-2.2.6-2.2H189c.1 0 .5-.3 1-.8.6-.6.9-1 1-1.3.1-.6.2-.9.2-1 0-.3-.1-.6-.2-1-.1-.1-.7-.4-1.8-.9-1-.5-1.8-.9-2.4-1.1l-6.2-2.1c-.6-.3-1.4-.7-2.4-1.1l-1.8-.9c-.3-.3-.7-1.2-1.1-2.8-.5-1.6-.8-2.7-.9-3.4-.1-.7-.3-1.8-.5-3.4s-.4-3.3-.6-5c-.2-1.7-.4-3.4-.6-5s-.3-2.7-.3-3.2v-1.7c0-1 0-2-.1-3.2-.1-1.2-.1-2.3-.1-3.4v-5.4c0-1.1 0-2.2.1-3.2s.1-1.9.1-2.6v-1.3c0-.3.2-1 .6-2.3.4-1.3.9-2.6 1.4-4 .5-1.4.9-2.7 1.4-4 .4-1.3.7-2 .8-2.3v-2.1c-.3-.7-.9-2.1-2-4.2-1-2.1-1.8-3.5-2.2-4.2-.1-.3-.5-.7-1-1.1-.6-.5-.9-.8-1-.9-.1 0-.5 0-.9-.1-.5-.1-.9-.1-1.1-.1-.3 0-1 .1-2.1.2-.4.3-1.1.9-2.2 2-1 1-1.7 1.8-2 2.2v1.9c0 .8 0 1.8-.1 2.8-.1 1-.1 2-.1 2.8v4.4c0 1 0 1.9.1 2.9s.1 1.9.1 2.7v1.3c.1.8.5 3 1.1 6.5.6 3.5 1.3 7.2 2 11.2.7 4 1.4 7.8 2 11.2.6 3.5 1 5.6 1.1 6.5 0 .1 0 .9.1 2.2.1 1.3.1 2.3.1 3 0 .4 0 1.3-.1 2.6s-.1 2.2-.1 2.6c-.7.1-1.8.4-3.3.7-1.5.3-3.2.7-5 1.1-1.8.4-3.5.9-5.1 1.4-.7.2-1.3.4-1.8.5l-5-1.7c-.6-.3-1.4-.7-2.4-1.1l-1.8-.9c-.3-.3-.7-1.2-1.1-2.8-.5-1.6-.8-2.7-.9-3.4-.1-.7-.3-1.8-.5-3.4-.2-1.6-.4-3.3-.6-5-.2-1.7-.4-3.4-.6-5s-.3-2.7-.3-3.2V126c0-1 0-2-.1-3.2-.1-1.2-.1-2.3-.1-3.4V114c0-1.1 0-2.2.1-3.2s.1-1.9.1-2.6v-1.3c0-.3.2-1 .6-2.3.4-1.3.9-2.6 1.4-4 .5-1.4.9-2.7 1.4-4 .4-1.3.7-2 .8-2.3v-2.1c-.3-.7-.9-2.1-2-4.2-1-2.1-1.8-3.5-2.2-4.2-.1-.3-.5-.7-1-1.1-.6-.5-.9-.8-1-.9-.1 0-.5 0-.9-.1-.5-.1-.9-.1-1.1-.1h-.4v-.1c.2-.4.2-.7.2-.8h-3.8c-.5.4-1.4 1.2-2.6 2.2-1.2 1.1-2.5 2.2-3.8 3.4-1.4 1.2-2.7 2.4-3.9 3.4-1.2 1-2.1 1.7-2.5 2.2-.1.1-.6.3-1.4.7l-1.8.9c-.5.2-1.4.5-2.7 1-1.3.4-2 .6-2.1.6-.2 0-1 0-2.2.1-1.3.1-2.2.1-2.9.1-.5 0-1.4 0-2.6-.1-1.2-.1-1.8-.1-1.9-.1-.3 0-.8-.1-1.4-.4-.6-.3-1.2-.6-1.9-1s-1.3-.7-1.9-1c-.6-.3-1-.6-1.2-.8-.2-.1-.5-.5-1-1-.4-.6-.9-1.2-1.4-1.9-.5-.7-1-1.4-1.4-2-.5-.6-.8-1.1-1-1.4-.2-.3-.5-1.1-.9-2.3-.4-1.2-.6-2.1-.7-2.5-.1-.4-.1-1.2.1-2.3.2-1.1.2-1.9.2-2.3.2 0 .4 0 .6-.1.2-.1.4-.1.6-.1.1 0 .4.1.9.3l1.5.6c.5.2 1 .3 1.5.5s.8.2.9.2c.2 0 .9 0 2 .1s1.9.1 2.5.1c.5 0 1.7-.1 3.5-.2.3-.1.8-.5 1.4-1 .6-.6 1.3-1.2 2-1.9s1.3-1.4 1.8-2c.5-.6.9-1.1 1.1-1.4 0-.1 0-.6.1-1.4.1-.9.1-1.5.1-2.1 0-.5 0-1.4-.1-2.6-.1-1.2-.1-1.8-.1-1.9 0-.1-.2-.3-.6-.7-.4-.4-.7-.7-1-.9-.6-.5-1.6-1.2-2.8-2-1.2-.8-1.9-1.2-2-1.2-.1 0-.7 0-1.9-.1s-2-.1-2.6-.1c-.6 0-1.6 0-2.9.1-1.3.1-2 .1-2.2.1-.2 0-.7.2-1.5.6-.8.4-1.4.7-1.7 1l-3.2 3.2c-.2.2-.5.7-.9 1.6-.4.9-.6 1.4-.7 1.6v1.8c0 .9 0 1.7-.1 2.6-.1.9-.1 1.8-.1 2.6v4c0 1 0 1.9.1 2.9s.1 1.8.1 2.6v1.1c0 .1.2.8.6 2 .4 1.2.7 2.2 1 2.8.2.5.5 1.2.8 2 .3.8.6 1.6 1 2.5.3.9.6 1.6.9 2.3.3.7.5 1.1.6 1.2l3.2 4.8 1.6 1.6c.3.2.8.5 1.5.8.7.3 1.4.7 2.1 1.1.7.4 1.3.7 1.8 1 .5.3.9.4 1 .4h9.6c.2 0 .7-.2 1.6-.6.9-.4 1.4-.7 1.6-1l4.8-4.8 9.6-11.2.9-.9c0 .8 0 1.8-.1 2.8-.1 1-.1 2-.1 2.8v4.4c0 1 0 1.9.1 2.9s.1 1.9.1 2.7v1.3c.1.8.5 3 1.1 6.5.6 3.5 1.3 7.2 2 11.2.7 4 1.4 7.8 2 11.2.6 3.5 1 5.6 1.1 6.5 0 .1 0 .9.1 2.2.1 1.3.1 2.3.1 3 0 .4 0 1.3-.1 2.6s-.1 2.2-.1 2.6c-.7.1-1.8.4-3.3.7-1.5.3-3.2.7-5 1.1-1.8.4-3.5.9-5.1 1.4-1.6.5-2.7.8-3.2.9-.3.1-.7.4-1.4.7-.6.3-1.3.7-2 1.1-.7.4-1.3.9-1.9 1.4-.6.5-.9.8-1 .9-.1 1-.2 1.6-.2 1.9 0 .3 0 .7.1 1.3.1.6.1.9.1 1 .1.3.5.7.9 1.1.5.5.9.8 1.1.9.1 0 .5 0 1 .1.6.1 1 .1 1.2.1.3 0 .9-.1 1.9-.2.1-.1.4-.5.8-1 .4-.6.8-1.2 1.2-2 .4-.8.8-1.5 1.2-2.1.4-.6.7-1 .8-1.1.3-.3.9-.6 2-1 1-.4 1.8-.8 2.2-1h2.1c.1.1.5.5 1 .9.6.5.9.9 1 1.1.3.3.7 1 1.1 2.1.5 1.1.8 1.8.9 2.1 0 1.3 0 3.5-.1 6.7s-.1 6.6-.1 10.2c0 3.5 0 6.8.1 9.9.1 3.1.1 5.3.1 6.6 0 1.3.1 3.3.3 6.2.2 2.9.4 6 .6 9.4.2 3.3.4 6.5.6 9.5.2 3 .4 5 .5 6.1.1.4.4 1.1.9 2.2.5 1 .9 1.7 1.1 2 .4.1.8.2 1 .2.1 0 .5-.1 1-.2.3-.1.7-.4 1.1-.9.5-.5.8-.9.9-1.1v-14.6c0-.8-.1-3-.4-6.5-.3-3.5-.5-7.2-.7-11.2-.2-4-.4-7.8-.6-11.2-.2-3.5-.3-5.6-.3-6.5 0-1.4.1-3.2.2-5.3.1-2.2.3-4.2.5-6.1.2-1.9.4-3.6.7-5.1.3-1.5.5-2.2.6-2.2h3.3c0 .3 0 .6.1 1 .1.6.1.9.1 1 .1.3.5.7.9 1.1.5.5.9.8 1.1.9.1 0 .5 0 1 .1.6.1 1 .1 1.2.1.3 0 .9-.1 1.9-.2.1-.1.4-.5.8-1 .4-.6.8-1.2 1.2-2 .2-.4.4-.8.7-1.1h2.1c.1 0 .5-.3 1-.8.6-.6.9-1 1-1.3.1-.6.2-.9.2-1v-.4c.6-.3 1-.5 1.3-.7h2.1c.1.1.5.5 1 .9.6.5.9.9 1 1.1.3.3.7 1 1.1 2.1.5 1.1.8 1.8.9 2.1 0 1.3 0 3.5-.1 6.7s-.1 6.6-.1 10.2c0 3.5 0 6.8.1 9.9.1 3.1.1 5.3.1 6.6 0 1.3.1 3.3.3 6.2.2 2.9.4 6 .6 9.4.2 3.3.4 6.5.6 9.5.2 3 .4 5 .5 6.1.1.4.4 1.1.9 2.2.5 1 .9 1.7 1.1 2 .4.1.8.2 1 .2.1 0 .5-.1 1-.2.3-.1.7-.4 1.1-.9.5-.5.8-.9.9-1.1v-14.6c0-.8-.1-3-.4-6.5-.3-3.5-.5-7.2-.7-11.2-.2-4-.4-7.8-.6-11.2-.2-3.5-.3-5.6-.3-6.5 0-1.4.1-3.2.2-5.3 1.4-2.8 1.5-4.8 1.7-6.8zM104.4 62.8c.9 0 1.3.5 1.3 1.6s-.4 1.6-1.3 1.6-1.3-.5-1.3-1.6c0-1 .4-1.6 1.3-1.6zm-14.9 7.6c.2-.6.3-1 .6-1.1.1-.1.8-.3 2-.7 1.2-.4 2.2-.7 2.8-.9.5-.2 1.6-.5 3.2-.9s2.7-.6 3.2-.7c0 .1 0 .3.1.7.1.4.1.7.1.9 0 .2-.1.7-.2 1.6-.1.2-.3.5-.7 1-.4.4-.7.6-.9.6-.3 0-1 .1-2 .2s-2.1.2-3.2.2c-1.1.1-2.2.1-3.2.2s-1.7.1-2 .1c-.1-.2 0-.6.2-1.2zm174.1 113.5c-.1-.1-1-.4-2.6-.9s-2.8-.9-3.6-1.1c-.6-.1-1.3-.3-2.2-.6-.9-.3-1.8-.5-2.7-.7-.9-.2-2-.4-3.4-.7-.8.3-2 1.2-3.5 2.7-1.5 1.5-2.4 2.7-2.7 3.5 0-.3-.2-.7-.5-1.4-.3-.6-.8-1.3-1.2-2-.5-.7-1-1.3-1.5-1.9-.5-.6-.8-.9-.9-1-1-.1-1.6-.2-1.9-.2-.3 0-.7 0-1.2.1-.6.1-.9.1-1 .1-.6.1-1.4.5-2.4.9-1 .5-1.6.9-1.8 1.1-.1 1-.2 1.6-.2 1.9 0 .3 0 .7.1 1.3.1.6.1.9.1 1 .1.4.4 1.4.9 3s.9 2.7 1.1 3.2c.1.3.5 1 1.1 2.3.6 1.3 1.3 2.6 2 4.1.7 1.5 1.4 2.8 2 4 .4.8.7 1.3.9 1.7-.5.5-1.1.9-1.6 1.4-1.8 1.6-3.5 3.1-5.1 4.4-1.6 1.3-2.7 2.3-3.2 2.8-.1.1-.7.5-1.8.9-1 .5-1.8.9-2.4 1.1-.7.3-1.9.7-3.5 1.3-1.7.6-2.6.8-2.7.8-.3 0-1.2 0-2.9.1s-2.9.1-3.7.1c-.7 0-1.8 0-3.3-.1-1.5-.1-2.4-.1-2.5-.1-.4 0-1-.2-1.8-.5s-1.6-.8-2.5-1.3c-.9-.5-1.7-.9-2.5-1.4-.8-.4-1.3-.8-1.6-1-.3-.1-.7-.6-1.2-1.4-.6-.8-1.1-1.6-1.8-2.5-.6-.9-1.2-1.8-1.9-2.6-.6-.8-1.1-1.5-1.4-1.9-.3-.4-.7-1.4-1.1-3-.5-1.6-.8-2.7-.9-3.2-.1-.6-.1-1.6.1-3 .2-1.5.3-2.5.3-3 .3 0 .6 0 .8-.1.3-.1.6-.1.8-.1.1 0 .5.1 1.1.4.6.3 1.3.5 2 .7.7.2 1.4.4 2 .6.6.2 1 .3 1.1.3.3 0 1.1 0 2.6.1s2.5.1 3.2.1c.7 0 2.2-.1 4.6-.2.4-.1 1-.6 1.9-1.4.8-.8 1.7-1.6 2.6-2.5.9-.9 1.7-1.8 2.4-2.6s1.2-1.5 1.5-1.9c0-.1 0-.8.1-1.9.1-1.1.1-2 .1-2.7 0-.7 0-1.8-.1-3.3-.1-1.5-.1-2.4-.1-2.5 0-.1-.3-.4-.8-.9-.6-.5-1-.9-1.2-1.1-.8-.7-2-1.6-3.6-2.6s-2.5-1.6-2.6-1.6c-.1 0-1 0-2.5-.1s-2.6-.1-3.3-.1c-.8 0-2.1 0-3.7.1-1.7.1-2.6.1-2.9.1-.3 0-.9.3-2 .8-1 .6-1.8 1-2.2 1.2l-4.2 4.2c-.3.3-.7 1-1.1 2.1-.5 1.1-.8 1.8-.9 2.1v2.3c0 1.1 0 2.3-.1 3.4-.1 1.2-.1 2.3-.1 3.4v5.2c0 1.2 0 2.5.1 3.7.1 1.2.1 2.4.1 3.3v1.5c0 .1.3 1 .8 2.6.6 1.6 1 2.8 1.2 3.6.3.7.6 1.6 1 2.6s.8 2.1 1.2 3.2c.4 1.1.8 2.1 1.1 3 .3.9.6 1.4.7 1.6l4.2 6.2 2.1 2.1c.4.3 1.1.7 2 1.1.9.4 1.8.9 2.7 1.4.9.5 1.7.9 2.4 1.3s1.1.5 1.2.5H218c.3 0 1-.3 2.1-.8 1.1-.6 1.8-1 2.1-1.3l6.2-6.3 11.7-13.6c.2.6.3 1.3.4 1.9.1.8.2 1.3.2 1.6 0 1.4 0 3.9.1 7.4.1 3.5.1 7.3.1 11.2 0 4 0 7.8-.1 11.4-.1 3.5-.1 6-.1 7.4l4.2 4.2c.3-.1.7-.5 1.1-.9.5-.5.8-.9.9-1.1v-8.3c0-.3.3-1 1-2.1s1-1.8 1-2.1v-6.3l-1.7-20.4c.1.2.4.5.7.8.6.6 1 .8 1.2.8v-8.3c-.3.4-.7 1.4-1.2 3-.4 1.1-.6 2-.8 2.6l-.3-3.4v-1.3c0-.8 0-1.7-.1-2.7-.1-.7-.1-1.4-.1-2l1-1c.8-.8 1.3-1.3 1.5-1.6.1-.1.3-.5.5-1 .2-.6.3-.9.3-1h-3.3v-.4c0-.8 0-1.7.1-2.5s.1-1.5.1-2.1v-1c0-.3.3-.9.8-2 .6-1 1-1.8 1.2-2.2.3-.3.7-.7 1.1-1.3.5-.6.8-.8.9-.8 1.1-.1 1.8-.2 2.1-.2.3 0 1 .1 2.1.2.3.1.7.5 1.1.9.5.5.8.9.9 1.1l2.1 6.3c.3.7.7 1.6 1.1 2.6.5 1 .8 1.6.9 1.6.1.1.6.2 1.5.3.8.1 1.5.1 1.9.1.4 0 1 0 1.8-.1s1.1-.2 1.1-.3c.1-.1.4-1 .9-2.6s.9-2.8 1.1-3.6v-2.1c-.6-.6-1.6-1.7-3.1-3.3-1.1-1.6-2.1-2.6-2.7-2.9zm-53.9-8.5c1.1 0 1.7.7 1.7 2.1 0 1.4-.6 2.1-1.7 2.1s-1.7-.7-1.7-2.1c0-1.4.6-2.1 1.7-2.1zm-19.5 9.8c.2-.8.4-1.3.7-1.5.1-.1 1-.4 2.6-.9s2.8-.9 3.6-1.1c.7-.3 2.1-.7 4.2-1.1 2.1-.5 3.5-.8 4.2-.9 0 .1 0 .5.1.9.1.5.1.9.1 1.1 0 .3-.1 1-.2 2.1-.1.3-.5.7-.9 1.3-.5.6-.9.8-1.1.8-.4 0-1.3.1-2.6.2s-2.7.2-4.2.3c-1.5.1-2.8.1-4.2.2-1.3.1-2.2.1-2.6.1 0-.2.1-.7.3-1.5zM309 229.6c0-.1 0-.6.1-1.4.1-.8.1-1.4.1-1.8 0-.3 0-.8-.1-1.7-.1-.8-.1-1.3-.1-1.5 0-.3-.3-1-.9-2.1-.6-1.1-1-1.8-1.1-2.1-.1-.6-.3-1.5-.6-2.7-.3-1.3-.5-2.5-.7-3.9-.2-1.3-.4-2.5-.5-3.6-.1-1.1-.2-1.9-.2-2.3v-2.1c0-1.4 0-3-.1-4.8-.1-1.8-.1-3.6-.1-5.4v-7.5c0-1.7 0-3.4.1-5.2.1-1.8.1-3.5.1-5v-3.3c.3-.3.9-.7 2-1.3 1-.6 1.8-.8 2.2-.8.6 0 1.6-.1 3-.2 1.5-.1 3.1-.2 4.8-.3 1.7-.1 3.3-.1 4.8-.2s2.5-.1 3-.1c0-.4-.3-.8-1-1.3-.1-.1-1-.4-2.6-.9s-2.8-.9-3.6-1.1c-.3 0-.8-.1-1.6-.3-.8-.2-1.6-.4-2.6-.6-1-.2-1.9-.4-2.7-.6-.8-.2-1.3-.4-1.5-.5l-2.1-2.1c-.3-.4-.7-1.1-1.2-2.2-.6-1-.8-1.7-.8-2-.1-.4-.3-1.6-.5-3.4-.2-1.9-.4-3.9-.6-5.9-.2-2.1-.4-4.1-.6-5.9-.2-1.9-.3-3-.3-3.4 0-.6-.1-1.5-.3-2.9-.2-1.4-.4-2.9-.6-4.5-.2-1.6-.4-3.1-.6-4.4-.2-1.3-.4-2.3-.5-2.8V44c0-.1.1-.9.2-2.4s.3-3.1.5-4.8c.2-1.7.4-3.5.7-5.3.3-1.8.5-3.2.6-4.2 0-.4.1-1.1.3-2.1.2-1 .4-2 .6-3.1.2-1.1.4-2.2.6-3.1.2-1 .4-1.7.5-2.1.1-.7.5-1.8 1-3.4.6-1.6.9-2.5 1-2.8.1-.3.4-.7.9-1.1.5-.5.9-.8 1.1-.9.1 0 .5 0 1-.1.6-.1 1-.1 1.2-.1.3 0 .9.1 1.9.2.3.1.7.5 1.4 1l1.9 1.9c.6.7 1.2 1.4 1.8 2 .6.6 1 1.1 1.2 1.4.1.3.4 1.2.9 2.8.5 1.6.9 2.7 1.1 3.4 0 .3.1.8.3 1.7.2.8.4 1.8.6 2.9l.6 3.3c.2 1.1.4 1.9.5 2.5.1.8.3 1.9.6 3.3s.5 2.7.7 4.1c.2 1.3.4 2.5.5 3.4.1 1 .2 1.5.2 1.7V46c0 1 0 2.2.1 3.6.1 1.5.1 3 .1 4.5V61c0 1.5 0 3-.1 4.5s-.1 2.7-.1 3.9v1.9c0 .7-.1 1.9-.3 3.6-.2 1.7-.4 3.6-.6 5.6-.2 2-.4 3.9-.6 5.7-.2 1.8-.4 3.1-.5 3.8 0 .4-.2 1.5-.6 3.1-.4 1.7-.9 3.4-1.4 5.3-.5 1.9-.9 3.6-1.4 5.2-.4 1.6-.7 2.6-.8 3 0 .3 0 .8-.1 1.5s-.1 1.1-.1 1.3c.1 0 .5-.1 1.1-.2.6-.1 1-.3 1.1-.4.3-.1.7-.5 1.2-1l1.9-1.9c.7-.7 1.3-1.4 1.9-2 .6-.6 1-1.1 1.2-1.4l2.1-4.2c.1-.6.4-1.5.9-2.7.5-1.3.9-2.5 1.4-3.9.4-1.3.8-2.5 1.1-3.6.3-1.1.6-1.9.7-2.3.1-.6.3-1.4.6-2.4s.5-2.1.7-3.2c.2-1.1.4-2.1.5-3 .1-.9.2-1.5.2-1.8v-1.5c0-1 0-2 .1-3.1s.1-2.2.1-3.3v-5.4c0-1.1 0-2.2-.1-3.2s-.1-2-.1-2.8v-1.5c0-.6-.2-1.9-.5-4.2-.3-2.2-.8-4.7-1.2-7.3-.5-2.6-.9-5.2-1.4-7.8-.4-2.6-.8-4.5-1-5.7-.1-.8-.4-2-.8-3.6s-.8-3.3-1.2-5.1c-.4-1.8-.8-3.5-1.2-5-.4-1.5-.7-2.5-.8-2.9-.3-.7-.9-2.1-2-4.2-1-2.1-1.8-3.5-2.2-4.2-.3-.4-.9-1.1-2-2.2-1-1-1.8-1.7-2.2-2-.6 0-1.8 0-3.6-.1-1.7-.3-2.9-.3-3.5-.3-1 0-2.4 0-4.3.1s-2.9.1-3 .1c-.3 0-1 .3-2.1.8-1.1.6-1.8 1-2.1 1.3-.1.3-.8 1.2-1.9 2.7-1.1 1.5-1.9 2.7-2.3 3.5l-2.1 4.2c-.3.7-.6 1.9-1 3.5l-1.2 5.1c-.4 1.7-.8 3.4-1.1 4.9-.3 1.5-.6 2.6-.7 3.1-.1.7-.3 1.9-.5 3.8-.2 1.8-.4 3.7-.6 5.7-.2 2-.4 3.9-.6 5.6-.2 1.7-.3 3-.3 3.6v2.1c0 1.3 0 2.7-.1 4.4-.1 1.7-.1 3.3-.1 5v8.1c0 1.7 0 3.3.1 5 .1 1.7.1 3.2.1 4.6v2.1c0 .4.1 1.6.2 3.6s.3 4.2.5 6.7c.2 2.4.4 4.8.7 7.2.3 2.4.5 4.2.6 5.4.1 1.8.4 4.4.9 7.8.5 3.4.9 6.9 1.4 10.4.4 3.5.8 6.8 1.1 9.7.3 2.9.6 4.7.7 5.4 0 .4.2 1.6.6 3.4.4 1.9.9 3.9 1.4 5.9.5 2.1.9 4.1 1.4 5.9.4 1.9.7 3 .8 3.4 0 .1 0 .6.1 1.4.1.8.1 1.4.1 1.8 0 .3 0 .8-.1 1.6s-.1 1.3-.1 1.6c-.3-.1-1-.4-2.1-.9s-1.8-.9-2.1-1.1c-.3-.1-1-.7-2.3-1.6-1.2-.9-2.6-1.8-4-2.7-1.4-.9-2.7-1.8-4-2.6s-2-1.3-2.3-1.5c-.1 0-.5 0-.9-.1-.5-.1-.9-.1-1.1-.1-.3 0-1 .1-2.1.2-.4.3-1.1.9-2.2 2-1 1-1.7 1.8-2 2.2 0 .1-.2.6-.5 1.5-.3.8-.8 1.8-1.2 2.9-.5 1.1-.9 2.2-1.4 3.3-.4 1.1-.8 2-1 2.7-.3.8-.7 2.1-1.2 3.6-.6 1.6-.8 2.5-.8 2.6 0 .3.3.7.8 1.3.6.6 1 .8 1.2.8.1-.4.6-1 1.4-1.9.8-.8 1.6-1.7 2.5-2.6.9-.9 1.8-1.7 2.6-2.4s1.5-1.2 1.9-1.5c.1-.1.7-.2 1.8-.3 1-.1 1.8-.1 2.4-.1.6 0 1.4 0 2.4.1s1.6.2 1.8.3c.8.4 1.8 1.1 3 2.1s2.3 2 3.4 3.1 2 2.2 2.8 3.1c.8 1 1.1 1.7 1.1 2.1v27.1c-.4-.4-1.1-1.2-2.1-2.4s-2-2.5-3.1-3.9-2.2-2.7-3.1-3.9c-1-1.2-1.7-2-2.1-2.4-.4-.6-1.1-1.4-2.2-2.4-1-1-1.7-1.6-2-1.8-.3-.1-.7-.3-1.2-.4-.6-.1-1-.2-1.2-.2 0 .1 0 .6.1 1.4.1.8.2 1.2.3 1.4l4.2 8.3 4.2 10.4 6.2 14.6c0 .3.1.8.3 1.6.2.8.4 1.6.6 2.6.2 1 .4 1.9.6 2.7s.4 1.3.5 1.5c.1.3.4.7.9 1.3.5.6.9.8 1.1.8h8.3c.3 0 .7-.3 1.1-.8.6-.2 1-.6 1.1-.9zm-12.5-146c-.3.1-.5 0-.7-.5-.2-.5-.3-1-.3-1.6 0-.6.1-1.1.3-1.6.2-.5.4-.7.7-.5.7.3 1 1 1 2.1s-.3 1.8-1 2.1zm-27.1 77.2c1.1 0 1.7-.7 1.7-2.1 0-1.4-.6-2.1-1.7-2.1s-1.7.7-1.7 2.1c.1 1.4.6 2.1 1.7 2.1zm63.4-23.1c-.5 5.7-.8 9.9-.9 12.5v2.9c0 1.5 0 3.4-.1 5.5-.1 2.2-.1 4.3-.1 6.6v11.2c0 2.5 0 5 .1 7.5s.1 4.7.1 6.7v3.3c0 1.3.1 2.8.3 4.7.2 1.9.4 3.7.6 5.5.2 1.8.4 3.3.6 4.6.2 1.3.4 1.9.5 1.9h2.1v18.7c0 .1.3.5.8.9.6.5 1 .9 1.2 1.1.6.1.9.2 1 .2.1 0 .5-.1 1-.2.6-.4 1.4-1.1 2.4-2.2 1-1 1.6-1.7 1.8-2 0-.1 0-.8.1-2.1s.1-2.2.1-2.9c0-.7 0-1.7-.1-3s-.1-2.1-.1-2.4-.2-1-.6-2.3c-.4-1.3-.9-2.6-1.5-4s-1-2.7-1.5-4c-.4-1.3-.6-2-.6-2.3-.1-.6-.3-1.6-.6-3-.3-1.5-.5-2.9-.7-4.5-.2-1.5-.4-3-.5-4.4-.1-1.4-.2-2.3-.2-2.7V186c0-2.2 0-4.8-.1-7.7-.1-2.9-.1-5.8-.1-8.8v-12.9c0-2.6 0-5.2.1-7.6.1-2.4.1-4.5.1-6.4v-2.9c0-.8.3-3 .9-6.5.6-3.5 1.3-7.2 2-11.2.7-4 1.4-7.8 2.1-11.2.7-3.5 1.1-5.6 1.2-6.5l2.1-14.6c.1-.7.3-1.7.5-3s.4-2.6.6-4c.2-1.3.4-2.5.6-3.5.2-1 .3-1.7.3-2l4.2-16.7c.1-.6.3-1.4.5-2.5l.6-3.3c.2-1.1.4-2.1.6-2.9.2-.8.3-1.4.3-1.7 0-.1 0-.7.1-1.6.1-.9.1-1.6.1-2 0-.3-.1-1.2-.2-2.7-.1-.4-.7-1.1-1.8-2.2-1-1-1.8-1.7-2.4-2-1-.1-1.6-.2-1.9-.2-.3 0-.7 0-1.2.1-.6.1-.9.1-1 .1-.3.1-1 .5-2.1.9-1.1.5-1.8.9-2.1 1.1-.4 2.8-.9 7-1.5 12.6s-1.2 12-1.9 19.1c-.7 7.1-1.4 14.6-2.2 22.5-.8 7.9-1.5 15.4-2.2 22.5-.3 7.3-.9 13.7-1.4 19.4zm26.2 31.4c.7-.3 1-1 1-2.1s-.3-1.8-1-2.1c-.3-.1-.5 0-.7.5-.2.5-.3 1-.3 1.6 0 .6.1 1.1.3 1.6.2.5.4.6.7.5zm-43.8 31.3c-1.1 0-1.7.7-1.7 2.1 0 1.4.6 2.1 1.7 2.1s1.7-.7 1.7-2.1c0-1.4-.5-2.1-1.7-2.1zM79.9 30.8c.6.2 1.2.3 1.6.3v-1.9h-3.2c.5.8 1 1.3 1.6 1.6zm-25.3 6.6c-.3.3-.4.5-.5.8-.1.3 0 .5.2.6.5.2 1 .1 1.4-.2.4-.4.5-.8.2-1.4-.1-.2-.3-.3-.6-.2-.2 0-.4.1-.7.4zM30.4 64.3c.2.2.5.7.9 1.6.4.9.6 1.4.7 1.6 0 .9 0 2.3-.1 4.5-.1 2.1-.1 4.4-.1 6.7s0 4.6.1 6.7c.1 2.1.1 3.6.1 4.5 0 .2.1.6.2 1.2s.2 1.2.4 1.8c.2.6.3 1.3.6 1.9.2.6.4 1.1.5 1.4.1.3.3.8.6 1.4.3.6.6 1.2 1 1.9s.7 1.3 1 1.9l.6 1.2c.2.5.7 1.1 1.6 1.9.9.8 1.4 1.3 1.6 1.4h4.8c.1 0 .3-.4.7-1.3.4-.8.7-1.5.9-2.1.2-.3.5-1.1.9-2.3.4-1.2.6-2.1.7-2.5l-6.4-19.2c-.1-.2-.3-.7-.7-1.5-.4-.8-.7-1.6-1.1-2.5-.4-.9-.7-1.7-1-2.5-.3-.8-.4-1.3-.4-1.5 0-.3-.1-1.5-.2-3.6s-.2-4.5-.4-7.2-.3-5.5-.6-8.2c-.2-2.8-.4-5-.5-6.6v-8c0-.5.3-1 1-1.3.7-.3 1.3-.5 1.8-.6 1.1-.3 2.3-.6 3.7-.9 1.4-.3 2.4-.4 3-.4L64 32.3c.2 0 .5 0 .9-.1v2c-.1 3-.1 6.4-.2 10.2-.1 3.8-.2 7.8-.3 11.9-.1 4.2-.2 8.2-.3 11.9-.1 3.8-.2 7.2-.3 10.3-.1 3-.2 5.3-.2 6.7v8c.2.2.7.5 1.6.9.9.4 1.4.6 1.6.7h1.6c.2-.1.5-.3 1-.7.4-.4.6-.7.6-.9.1-.3.2-1 .3-2.1.1-1.1.2-2.2.4-3.5.2-1.3.3-2.5.5-3.5.2-1.1.3-1.8.4-2.1.2-.3.7-.9 1.5-1.8s1.4-1.3 1.7-1.4c.2.1.5.3.9.7.4.4.6.7.7.9.1.2.2.7.4 1.5s.3 1.6.5 2.5c.2.9.3 1.7.5 2.5s.2 1.3.2 1.5l1.6 4.8 3.2 12.8c.2-.1.5-.3.9-.7.4-.4.6-.7.7-.9 0-.1 0-.5.1-1.3.1-.7.1-1.3.1-1.8 0-.4 0-1.1-.1-1.9-.1-.9-.1-1.3-.1-1.4l-1.6-8c0-.4-.1-1.5-.2-3.2-.2-1.7-.3-3.6-.5-5.6-.2-2-.3-3.9-.5-5.6-.2-1.7-.3-2.8-.4-3.2 0-.2-.2-.7-.6-1.5-.4-.8-.7-1.4-1-1.7L78 67.6c-.2-.1-.6-.2-1.2-.3-.6-.1-1.3-.2-2-.4s-1.4-.3-2.1-.5c-.6-.2-1-.3-1.1-.4-.2-.1-.5-.3-.9-.7-.4-.4-.6-.7-.7-.9v-1.8c0-1 0-2-.1-3-.1-1.1-.1-2-.1-2.9v-4.5c0-1.1 0-2.1.1-3.1s.1-1.9.1-2.6v-1.3c0-.1.1-.5.2-1.1.2-.6.3-1.3.6-2.1.2-.7.4-1.4.6-2 .2-.6.2-1 .2-1.2 0-.1 0-.8.1-2s.1-2.2.1-2.8c0-.4 0-1.3-.1-2.5v-.3h.2c.9-.2 1.5-.3 1.8-.4l-1.6-1.6c-.1 0-.3 0-.5.1v-.1c-.2-.2-.7-.5-1.6-.9-.9-.4-1.4-.6-1.6-.7-.9-.1-1.4-.2-1.6-.2-.2 0-.5 0-.9.1s-.6.1-.7.1c0 .7-.1 1.5-.1 2.5-.3 0-.6.1-1 .1-1.7.2-3.3.3-4.8.4-1.5.1-2.6.2-3.2.2h-3.2l-14.4 1.6h-1.6c-.2-.2-.5-.7-.9-1.6-.4-.9-.6-1.4-.7-1.6-.1-.2-.4-.5-.8-.9s-.7-.6-.8-.7c-.4-.1-.7-.2-.8-.2-.1 0-.4.1-.8.2l-6.4 4.8c-1.5 1-3 1.6-4.6 2-1.5.4-3.2.8-5 1.2l-8 1.6c-.9.2-2.1.5-3.7.9s-2.5.6-2.7.7c-.2.1-.5.3-.9.7-.4.4-.6.7-.7.9.1.2.3.5.7.9.4.4.7.6.9.7.3.2 1.2.7 2.6 1.5 1.4.8 3 1.6 4.6 2.5 1.6.9 3.1 1.7 4.6 2.5 1.4.8 2.3 1.3 2.6 1.5l14.3 14.3zm8 17.8c1 1.5 1.7 3.1 2.1 4.7.4 1.7.8 3.3 1.1 4.9.1.3.2.9.4 1.6.2.7.3 1.6.5 2.4.2.9.3 1.7.5 2.4s.2 1.3.2 1.6c-.2.2-.5.3-.8.3-.1 0-.3 0-.5-.1s-.3-.1-.3-.2c-.1-.2-.3-.9-.7-2.2-.4-1.2-.7-2.1-.9-2.6-.1-.3-.3-.9-.5-1.7-.2-.8-.4-1.6-.6-2.5-.2-.9-.3-1.7-.4-2.4-.1-.7-.2-1.2-.2-1.4v-4.8zM15.9 42.8c.1-.4.1-.7.1-.8.2-.5.7-1.2 1.6-2 .9-.8 1.4-1.2 1.6-1.2H32v22.4l-16-16c-.1-.7-.2-1.2-.2-1.4 0-.3.1-.6.1-1zm411.6 341c-.4-4.4-.8-9-1.2-13.9-.4-4.9-.8-9.5-1.1-13.9-.3-4.4-.6-8.1-.8-11.4-.2-3.2-.3-5.4-.3-6.4v-1c0-.7 0-1.4-.1-2.3-.1-.8-.1-1.6-.1-2.4v-3.7c0-.9 0-1.7.1-2.5s.1-1.4.1-2v-1.2c0-.6.1-1.5.2-2.8.1-1.3.3-2.7.4-4.2.2-1.4.4-2.8.6-4 .2-1.2.4-2 .5-2.3 0-.2.2-.8.5-1.6s.7-1.7 1.2-2.6c.4-.9.8-1.8 1.2-2.6.3-.8.5-1.4.5-1.6 0-.1 0-.7.1-1.8s.1-2 .1-2.5c0-.6 0-1.3-.1-2.3-.1-1-.1-1.6-.1-1.7-.1-.3-.6-.9-1.4-1.8-.8-.8-1.5-1.4-1.9-1.6-.1 0-.6 0-1.3-.1-.8-.1-1.4-.1-1.9-.1-.4 0-1.1 0-2 .1-.9.1-1.4.1-1.5.1-.2 0-.5.2-.9.7-.4.4-.6.8-.8 1-.1 1.2-.2 2-.2 2.3 0 .3 0 .8.1 1.5s.1 1.1.1 1.2l1.7 5c0 .1 0 .4.1.8s.1.8.1 1c0 .2-.1.7-.2 1.5-.4.9-1.5 1.6-3 2.2-.9.2-2 .4-3.3.7-1.3.2-2 .4-2.1.5-.2.1-.7.5-1.4 1.3l-2.4 2.4c-.9.9-1.8 1.8-2.6 2.7-.8.9-1.5 1.6-1.9 2-.1.1-.4.6-.8 1.4-.4.8-.7 1.5-.9 1.9-.1.3-.3.8-.5 1.3s-.4 1-.6 1.6c-.2.6-.4 1.3-.6 2.2 0 .1 0 .7-.1 1.8s-.1 1.9-.1 2.4c0 .6 0 1.4.1 2.4.1 1.1.1 1.6.1 1.8 0 .2.2.8.7 1.6.4.8.8 1.4 1 1.8.1.2.4.5.8.9s.7.6.9.8l3.4 1.7c.9.1 1.5.2 1.7.2.2 0 .8-.1 1.7-.2.2-.1.8-.4 1.7-.8.9-.4 1.5-.7 1.7-.9l3.4-3.3 1.7-3.3c.1-.2.4-.5.8-.9s.7-.6.9-.8c.1.7.3 1.9.5 3.6.2 1.7.4 3.6.6 5.5.2 2 .3 3.8.4 5.5.1 1.7.2 2.9.2 3.6v2.5c0 1.6 0 3.3.1 5.4.1 2 .1 4 .1 6v9.5c0 2 0 4-.1 5.9-.1 1.9-.1 3.6-.1 5v2.5c0 .6-.1 1.4-.2 2.7-.1 1.2-.3 2.6-.4 4-.2 1.4-.4 2.8-.6 4.1-.2 1.3-.4 2.1-.5 2.6-.1 0-.3 0-.4.1-.2.1-.3.1-.4.1-.1 0-.4-.1-.8-.2-.2-.1-.5-.4-.9-.8s-.6-.7-.8-.9c-.3-.7-1-1.9-1.9-3.6-1-1.7-2-3.6-3.1-5.6-1.1-2-2.2-3.9-3.1-5.6-1-1.7-1.6-2.9-1.9-3.6.2-.2.3-.8.3-1.7 0-.9-.1-1.5-.3-1.7-.2-.2-.7-.7-1.4-1.5s-1.5-1.6-2.4-2.5c-.3-.4-1-.9-2.1-1.5s-1.9-.9-2.4-1.2c-.2 0-.7.2-1.5.7-.4.2-.8.5-1.2.6 0-.1-.1-.2-.1-.2-.3-.6-.4-1-.4-1.3v-11.7c0-.2-.1-.8-.3-1.8-.2-1-.4-2.1-.6-3.2-.2-1.1-.4-2.2-.6-3.2-.2-1-.3-1.6-.3-1.8v-1.5c0-.1.1-.5.3-1.2l.6-2.1.6-2.1c.2-.7.3-1.1.3-1.3 0-.1 0-.7.1-1.8s.1-2 .1-2.5c0-.6 0-1.3-.1-2.3-.1-1-.1-1.6-.1-1.7l-5.1-21.8c-.1-.2-.1-.7.1-1.5s.3-1.3.3-1.5c.1 0 .3-.1.7-.3.3-.2.6-.2.7-.1l1.7 1.7c.2.2.8 1.1 1.7 2.5.9 1.5 1.5 2.3 1.7 2.5 1.6.1 2.6.2 3 .2.6 0 1.3 0 2.2-.1.9-.1 1.4-.1 1.5-.1.2-.1.6-.4 1-.8s.7-.7.7-.9c0-.2-.2-.8-.7-1.6-.4-.8-.8-1.4-1-1.8l-5.1-5c-.1-.1-.5-.3-1.2-.7-.7-.3-1.4-.7-2.2-1-.8-.3-1.5-.7-2.2-1-.7-.3-1.1-.6-1.2-.7-.2-.1-.5-.4-.9-.8s-.6-.7-.8-.9c-.2-.4-.5-1.3-.9-2.6s-.6-2.1-.8-2.4v-6.7c0-.6.1-1.4.2-2.6.1-1.2.3-2.4.4-3.6.2-1.2.4-2.4.6-3.4.2-1.1.4-1.8.5-2.1.1-.3.3-1 .6-1.9.3-.9.6-2 .9-3 .3-1.1.7-2.1 1-3 .3-.9.6-1.6.8-2.1.1-.3.4-.9.8-1.8s1-1.9 1.5-2.9c.6-1.1 1.1-2.1 1.6-3.1s.9-1.7 1.1-2.2l3.4-5c.2-.3.5-.8.9-1.5s.8-1.4 1.1-2.2c.3-.8.8-1.8 1.3-3 0-.1 0-.6.1-1.4.1-.8.1-1.5.1-1.9 0-.4 0-1.1-.1-1.9-.1-.8-.1-1.3-.1-1.4-.1-.3-.6-1.1-1.4-2.4-.8-1.3-1.5-2.1-1.9-2.6-.2-.2-.8-.5-1.6-.9s-1.4-.6-1.8-.8c-.9-.1-1.5-.2-1.7-.2-.2 0-.8.1-1.7.2-.2.1-.8.4-1.7.8-.9.4-1.5.7-1.7.9-.2.2-.6.6-1.2 1.1-.6.5-1.1 1-1.7 1.6l-1.5 1.5c-.4.4-.7.7-.7.8-.1.2-.3.7-.4 1.3-.2.7-.3 1.5-.5 2.3-.2.9-.3 1.8-.5 2.7-.2.9-.3 1.6-.3 2v10c0 .6-.1 1.8-.3 3.8-.2 2-.4 4.1-.6 6.4-.2 2.3-.4 4.4-.6 6.4-.2 2-.3 3.2-.3 3.6 0 .7.1 2.1.2 4.3.1 2.2.3 4.6.4 7.3s.4 5.3.6 7.9c.2 2.6.4 4.5.5 5.7l1.7 8.4c.1.7.3 2.1.5 4.4.2 2.2.4 4.7.6 7.4.2 2.7.3 5.3.4 7.8.1 2.5.2 4.4.2 5.6 0 .2 0 1.1.1 2.6s.1 2.6.1 3.3c0 .6-.1 2-.2 4.2-.1.2-.6.8-1.4 1.7-.8.9-1.5 1.5-1.9 1.7-.8.1-1.3.2-1.5.2-.2 0-.6 0-1-.1s-.7-.1-.8-.1l-3.4-1.7c-.9-.6-1.6-1.3-2.1-2.3-.5-.9-.9-1.9-1.3-2.8-.2-.7-.6-1.6-1-2.8-.4-1.2-.7-2-.7-2.2v-26.8c0-.2.2-.8.7-1.6.4-.8.8-1.4 1-1.8.3-.4 1.1-1.3 2.4-2.6 1.3-1.3 2.2-2.1 2.6-2.4-.1-.2-.4-.5-.8-.9s-.7-.6-.9-.8h-1.7c-.3.1-.8.3-1.4.7-.6.3-1.3.7-1.9 1-.7.3-1.3.7-1.9 1-.6.3-1.1.6-1.4.7l-1.7 1.7c-.3.4-.9 1.3-1.8 2.6-.8 1.3-1.4 2.1-1.6 2.4l-3.4 6.7c-.1.3-.3.8-.4 1.4-.2.6-.3 1.3-.5 2s-.3 1.4-.5 2c-.2.6-.3 1-.3 1.3 0 .1 0 .8-.1 2.1s-.1 2.3-.1 2.9v.5h-32.7c0-.2-.2-.8-.5-1.7-.3-.9-.4-1.4-.3-1.7.1-.2.6-.8 1.4-1.6.8-.8 1.5-1.4 1.9-1.8.3-.2 1.1-.8 2.4-1.7 1.3-.9 2.2-1.4 2.6-1.7.8-.4 2.1-1.2 4-2.2 1.9-1 3.9-2.1 6.1-3.3 2.1-1.2 4.2-2.3 6.1-3.3 1.9-1.1 3.3-1.8 4-2.1h-28.1c0-.2-.1-.6-.3-1.3-.2-.6-.3-1-.2-1.3 0-.1.2-.4.7-.8.4-.4.8-.7 1-.9l5.1-3.3c.4-.3 1.1-.8 2-1.3.9-.5 1.8-1 2.7-1.6.9-.6 1.7-1 2.4-1.4.7-.4 1.1-.6 1.3-.8l12.3-6.1c.4 0 .7.1.9.1.3 0 .7 0 1.1-.1.5-.1.8-.1.9-.1-.3-.2-.6-.6-1-1.1l.1-.1c.4-.4.6-.7.8-.9-.3-.2-.9-.5-1.7-.8-.2-.1-.3-.1-.5-.2-.4-.6-.8-1.2-1.2-1.9-.7-1.1-1.3-2.2-1.8-3.2s-.8-1.8-.9-2.2c0-.1 0-1.2-.1-3.1-.1-1.9-.1-3.5-.1-4.6V265c0-1 0-1.9.1-2.8.1-.9.1-1.8.1-2.6v-1.3c0-.1.2-.9.5-2.3s.7-3 1.1-4.8c.4-1.8.9-3.6 1.4-5.3.5-1.7.9-3.2 1.1-4.3.1-.6.4-1.6.9-3.2s.9-2.6 1.1-3c.8-2.1 2-4.9 3.6-8.4s3.2-7.1 4.7-10.6 2.9-6.7 4.1-9.5c1.2-2.8 1.9-4.4 2.2-4.8.3-.6 1-1.7 2.2-3.5 1.2-1.8 2.5-3.8 4-5.8 1.5-2.1 2.8-4.1 4.1-5.9 1.2-1.9 2-3 2.3-3.4.3-.4.7-1.1 1.2-2.2.6-1 .8-1.7.8-2 .1-.6.3-1.7.4-3.5.1-1.8.2-3 .2-3.5-.7 0-2.2.1-4.5.3-2.3.2-3.8.4-4.5.5-.1 0-.5.3-.9.8-.5.6-.9 1-1.1 1.3-.1.3-.4.8-.8 1.6s-.8 1.6-1.2 2.5c-.4.9-.8 1.7-1.2 2.5-.4.8-.7 1.4-.8 1.8-.3.4-.7 1.4-1.1 3-.5 1.6-.8 2.7-.9 3.2L355.4 177c-.6-.1-.9-.2-1-.2-.1 0-.5.1-1 .2-.3.3-.7.9-1.1 2-.5 1-.8 1.8-.9 2.2 0 .1 0 .6-.1 1.5-.1.8-.1 1.5-.1 1.9 0 .4.1 1.4.2 2.9.1.3.5.8 1 1.7.6.8 1.2 1.7 2 2.6.8.9 1.5 1.8 2.1 2.6.6.8 1 1.3 1.1 1.5.3.3.7 1 1.1 2.1.5 1.1.8 1.8.9 2.1-.1.7-.4 1.8-.7 3.3-.3 1.5-.7 3.2-1.1 5-.4 1.8-.9 3.5-1.4 5.1-.5 1.6-.8 2.7-.9 3.2-.3.7-.9 2.4-1.9 5-1 2.6-2.1 5.5-3.3 8.5-1.2 3.1-2.4 5.9-3.4 8.5-1 2.6-1.6 4.3-1.8 5-.1.4-.4 1.4-.7 2.8-.3 1.5-.7 3.1-1.1 4.8-.4 1.7-.9 3.5-1.4 5.2-.5 1.7-.8 3-.9 3.9l-2.1 12.5v2.1c.3.3.9.9 1.9 2 1 1 1.7 1.8 2.3 2.2.1.1.3.2.4.4-.2 0-.4 0-.6-.1-1.9-.2-3.9-.4-6.1-.6-2.1-.2-4.2-.3-6.1-.4-1.9-.1-3.3-.2-4-.2 0-.4-.1-1.2-.2-2.3-.1-1.1-.3-2.3-.4-3.6-.2-1.3-.4-2.5-.6-3.5-.2-1.1-.4-1.8-.5-2.3-.1-.3-.5-.9-1.2-1.8-.7-.8-1.1-1.4-1.3-1.6V279c-.3 0-1-.1-1.9-.2-.9-.1-1.8-.2-2.8-.3-1-.1-1.9-.1-2.8-.2-.9-.1-1.5-.1-1.9-.1-.2 0-.8.2-1.6.7-.8.4-1.4.8-1.8 1-.2.2-.6.5-1 .9s-.7.6-.7.8c0 .1 0 .5-.1 1.2s-.1 1.2-.1 1.5c0 .3.1 1.1.2 2.3.1.2.4.6.8 1s1 .9 1.6 1.5c.6.6 1.2 1.1 1.7 1.6l.9.9c.2.2.6.8 1 1.7.4.9.7 1.5.7 1.7 0 .1 0 .6.1 1.5s.1 1.6.1 2c0 .4 0 1.1-.1 1.8-.1.8-.1 1.2-.1 1.3-.1.2-.7.8-1.7 1.7-1 .9-1.6 1.5-1.7 1.7 0 .1 0 .4-.1.8s-.1.7-.1.9c0 .2.1.8.2 1.7.2.2.8.6 1.6 1s1.4.7 1.8.7c.1.4.2 1.4.3 2.9.1 1.5.2 2.5.2 2.9 0 .8-.1 1.9-.2 3.3-.1 1.5-.2 2.3-.3 2.5-.1.2-.5.7-1.2 1.3-.7.7-1.4 1.4-2.2 2.1-.8.7-1.5 1.4-2.2 2.1l-1.2 1.2c-.1.4-.2.8-.2 1 0 .1.1.3.2.7l7.6 3.3V346c3-.2 5-.4 5.9-.7.2-.1.5-.4.9-.8s.6-.7.8-.9c.1-.4.3-1.2.5-2.3.2-1.1.4-2.2.6-3.5.2-1.3.3-2.5.4-3.6.1-1.1.2-1.9.2-2.3h2.2c1 0 2.1 0 3.3-.1 1.2-.1 2.3-.1 3.3-.1h5.1c1.2 0 2.4 0 3.6.1 1.2.1 2.2.1 2.9.1h1.5c.1 0 .4.1.9.3.5.2 1 .3 1.6.5.6.2 1.1.4 1.6.6.5.2.8.3.9.3.1 0 .4 0 .8.1s.7.1.9.1c.2 0 .8-.1 1.7-.2.4-.1 1.1-.4 1.9-.8.8-.4 1.3-.7 1.4-.9.1-.2.2-.5.3-.9.1.5.1 1 .2 1.5.4 2.5 1.4 4.9 2.9 7.3l3.4 5 2.6 2.6c1.3 1.3 2.1 2 2.4 2.3.3.2.8.5 1.4.8.6.3 1.3.6 1.9.9.7.3 1.3.7 1.9 1 .6.3 1.1.6 1.4.7.2.1 1.1.2 2.5.2 1.5 0 2.3-.1 2.5-.2.1.3.3 1 .6 1.9.3.9.6 2 .9 3.1.3 1.1.7 2.1 1 3.1.3.9.6 1.6.8 1.9l1.1 2.2c.5 1 1 2 1.5 3.1s1 2 1.4 2.9c.4.9.8 1.5 1 1.8.1.2.5.7 1.1 1.5.1.1.2.3.3.4v.4c.1.6.1 1 .1 1.3l8.4 8.4 5.1 6.7c.3.3 1 1.1 1.9 2.2 1 1.1 2 2.3 3 3.6 1.1 1.3 2.1 2.5 3 3.6 1 1.1 1.7 1.9 2.1 2.3l3.4 3.3c.4.4 1.3 1.1 2.7 2 1.3.9 2.1 1.3 2.4 1.3.1 0 .4 0 .8.1s.8.1 1 .1c.2 0 .7-.1 1.5-.2.2-.1.5-.6.9-1.4.4-.8.6-1.5.8-1.9v-5c-.1-1-.3-3.2-.6-6.4.3-3.4-.1-7.2-.5-11.6zm-10.9-68.1c-.4 1.3-.7 2.1-.9 2.4-.1.2-.4.5-.8.8-.4.3-.7.6-.9.8-.9.6-1.8 1-2.6 1.4-.8.4-1.8.6-2.8.6 0-.7.1-1.3.3-2 .1-.3.4-.9.8-1.8.4-.8.7-1.4.9-1.6.3-.4.9-1.1 1.8-1.9.8-.8 1.4-1.3 1.6-1.4.9-.1 1.5-.2 1.7-.2.2 0 .5 0 .9.1s.6.1.8.1c-.2.6-.4 1.5-.8 2.7zm-15.9-81.4c.6.2.8.5.8.8 0 .3-.3.6-.8.8-.6.2-.8-.1-.8-.8-.1-.7.2-1 .8-.8zm-11.5 21.1c.2-1.1.3-2.3.5-3.6.2-1.3.3-2.5.5-3.6s.3-1.8.4-2.2c0-.2.2-.8.7-1.6.4-.8.8-1.4 1-1.8.2-.4.8-1.3 1.7-2.6.9-1.3 1.5-2.1 1.7-2.4 0 .2 0 .8.1 1.7.1.9.1 1.5.1 1.7 0 .4 0 1.1-.1 1.9-.1.8-.1 1.3-.1 1.4 0 .2-.2 1-.7 2.3-.4 1.3-.8 2.2-1 2.8-.2.6-.6 1.4-1.1 2.5-.5 1.1-1 2.1-1.6 3-.3.6-.7 1.1-1 1.7-.3.6-.8.9-1.3 1.2-.1-.5 0-1.3.2-2.4zm-64.3 54.7h8.4c-1.2.9-2.6 1.8-4 2.8-1.5.9-2.9 1.7-4.4 2.3v-5.1zm-5 3.4c-.2.1-.4 0-.6-.4-.2-.4-.3-.8-.3-1.3 0-.4.1-.9.3-1.3.2-.4.4-.5.6-.4.6.2.8.8.8 1.7 0 .9-.3 1.5-.8 1.7zm1.7-15.1c-.1-.3-.3-.9-.7-1.7-.3-.8-.7-1.6-1-2.5-.3-.9-.7-1.7-1-2.5-.3-.8-.6-1.3-.7-1.7-.1-.2-.2-.5-.3-.8-.1-.3-.1-.6-.1-.8h3.7v10zm3.2-5c0-.4 0-1.1.1-1.9.1-.8.1-1.3.1-1.4.1-.6.4-1.3.8-2.1s.7-1.3.9-1.3l11.8-1.7v3.3c-1.6 1.1-2.9 2-4 2.8-1.1.7-2.2 1.5-3.3 2.2-1.1.7-2.1 1.3-2.9 1.8-.2.2-.8.5-1.7.9-.9.4-1.5.6-1.7.8 0-.2 0-.8-.1-1.7v-1.7zm40.5 21.3c-.9 0-1.3-.6-1.3-1.7s.4-1.7 1.3-1.7 1.3.6 1.3 1.7c.1 1.1-.4 1.7-1.3 1.7zm112.7 3.8c-.6.4-1.5 1.2-2.7 2.3-1.2 1.1-2.6 2.3-4 3.6-1.5 1.3-2.8 2.5-4.1 3.5-1.3 1.1-2.2 1.8-2.6 2.3-.1.1-.6.4-1.4.8-.8.4-1.5.7-1.9.9-.6.2-1.5.6-2.9 1-1.3.4-2.1.7-2.2.7-.2 0-1 0-2.4.1-1.3.1-2.4.1-3 .1-.6 0-1.5 0-2.7-.1-1.2-.1-1.9-.1-2-.1-.3 0-.8-.1-1.4-.4-.6-.3-1.3-.6-2-1s-1.4-.8-2-1.1c-.6-.3-1-.6-1.3-.8-.2-.1-.6-.5-1-1.1-.4-.6-.9-1.3-1.4-2l-1.5-2.1c-.5-.7-.9-1.2-1.1-1.5-.2-.3-.5-1.1-.9-2.4-.4-1.3-.6-2.1-.8-2.6-.1-.4-.1-1.3.1-2.4s.3-2 .3-2.4c.2 0 .4 0 .7-.1.2-.1.4-.1.7-.1.1 0 .4.1.9.3.5.2 1 .4 1.6.6.6.2 1.1.3 1.6.5s.8.3.9.3c.2 0 .9 0 2.1.1 1.2.1 2 .1 2.6.1.6 0 1.8-.1 3.7-.2.3-.1.8-.5 1.5-1.1.7-.6 1.4-1.3 2.1-2 .7-.7 1.4-1.4 1.9-2.1.6-.7 1-1.2 1.2-1.5 0-.1 0-.6.1-1.5s.1-1.6.1-2.2c0-.6 0-1.4-.1-2.7-.1-1.2-.1-1.9-.1-2 0-.1-.2-.4-.7-.8-.4-.4-.8-.7-1-.9-.7-.6-1.7-1.3-2.9-2.1-1.3-.8-2-1.3-2.1-1.3-.1 0-.8 0-2-.1s-2.1-.1-2.7-.1c-.7 0-1.7 0-3 .1s-2.1.1-2.4.1c-.2 0-.8.2-1.6.7-.8.4-1.4.8-1.8 1l-3.4 3.3c-.2.2-.5.8-.9 1.7-.4.9-.6 1.4-.8 1.7v1.8c0 .9 0 1.8-.1 2.8-.1.9-.1 1.9-.1 2.8v4.2c0 1 0 2 .1 3s.1 1.9.1 2.7v1.2c0 .1.2.8.7 2.1.4 1.3.8 2.3 1 2.9.2.6.5 1.3.8 2.1.3.8.7 1.7 1 2.6s.6 1.7.9 2.4c.3.7.5 1.1.6 1.3l3.4 5 1.7 1.7c.3.2.9.5 1.6.9.7.4 1.5.7 2.2 1.1.7.4 1.4.8 1.9 1.1.6.3.9.4 1 .4h10.1c.2 0 .8-.2 1.7-.7.9-.4 1.5-.8 1.7-1l5.1-5 10.1-11.7c.1-.1.5-.5 1.3-1.2.7-.7 1.5-1.4 2.2-2.2.7-.8 1.4-1.5 2.1-2.1.7-.6 1.1-1 1.2-1.3.1-.1.3-.4.4-.8.2-.4.3-.7.3-.8H478zm-28.7-18.4c.9 0 1.3.6 1.3 1.7s-.4 1.7-1.3 1.7-1.3-.6-1.3-1.7.4-1.7 1.3-1.7zm-15.7 7.9c.2-.7.4-1.1.6-1.2.1-.1.8-.4 2.1-.8s2.3-.7 2.9-.9c.6-.2 1.7-.5 3.4-.9s2.8-.6 3.4-.8c0 .1 0 .4.1.8s.1.7.1.9c0 .2-.1.8-.2 1.7-.1.2-.4.6-.8 1s-.7.7-.9.7c-.3 0-1 .1-2.1.2s-2.2.2-3.4.3c-1.2.1-2.3.1-3.4.2s-1.8.1-2.1.1c0-.3.1-.7.3-1.3zm46 22.2c0 .2.2.6.7 1 .4.4.8.7 1 .7v-6.7c-.2.3-.6 1.1-1 2.4-.4 1.3-.7 2.2-.7 2.6z"/></svg>