<?xml version="1.0" encoding="utf-8"?>
<!-- Generator: Adobe Illustrator 18.1.1, SVG Export Plug-In . SVG Version: 6.00 Build 0)  -->
<svg version="1.1" id="Layer_1" xmlns="http://www.w3.org/2000/svg" xmlns:xlink="http://www.w3.org/1999/xlink" x="0px" y="0px"
	 viewBox="0 0 717.7 408" enable-background="new 0 0 717.7 408" xml:space="preserve">
<g>
	<path fill="#FFFFFF" d="M10.8,394.2c0-0.5,0.1-1.6,0.3-3.5c0.2-0.2,0.6-1,1.2-2.2c0.6-1.3,1.2-2.7,1.9-4.1c0.7-1.5,1.4-2.9,2.1-4.3
		c0.7-1.4,1.3-2.4,1.7-3.1l13.8-20.7c0.5-0.5,1.1-1.6,1.9-3.5c0.8-1.8,1.3-3,1.6-3.5c0.5-2.3,1.2-6.4,2.2-12.3
		c1-5.9,2.1-12.2,3.3-18.8c1.2-6.7,2.2-13,3.1-18.8c0.9-5.9,1.5-10,1.7-12.3c0-0.5,0.1-2.2,0.2-5.2c0.1-3,0.2-5.3,0.2-6.9
		c0-1.6-0.1-4-0.2-7.1c-0.1-3.1-0.2-4.8-0.2-5c0-0.5-0.5-1.6-1.4-3.3c-0.9-1.7-1.6-2.9-2.1-3.6l-3.5-3.5c-1.2-0.5-3.5-1.1-6.9-1.9
		c-3.5-0.8-5.8-1.3-6.9-1.6h-3.8h-6.6H8H4.2c-1.6-0.7-2.8-1.8-3.5-3.3c-0.7-1.5-0.9-2.7-0.7-3.6h59.5c0.2,0,0.8-0.5,1.7-1.4
		c0.9-0.9,1.5-1.6,1.7-2.1c0.5-0.7,1.1-1.8,1.9-3.5c0.8-1.6,1.6-3.4,2.2-5.4c0.7-2,1.3-3.7,1.9-5.4c0.6-1.6,0.9-2.6,0.9-3.1
		c0-0.5,0.1-1.8,0.3-4.1c0.2-2.3,0.5-4.9,0.9-7.8c0.3-2.9,0.7-5.8,1.2-8.8c0.5-3,0.8-5.3,1-6.9l3.5-44.9c0-0.7,0.2-2,0.5-4
		c0.3-2,0.7-4.1,1-6.4c0.3-2.3,0.7-4.4,1-6.4c0.3-2,0.6-3.3,0.9-4l10.4-41.5c2.8-10.6,5.8-21.1,9-31.6c3.2-10.5,7.1-20.7,11.8-30.6
		c0.5-0.9,1.2-2.4,2.2-4.5c1-2.1,2.1-4.2,3.1-6.4c1-2.2,2-4.2,2.9-6.1c0.9-1.8,1.6-3.1,2.1-3.8c0.2-0.5,0.7-1.1,1.6-1.9
		c0.8-0.8,1.4-1.3,1.9-1.6c0,3-0.1,8.2-0.2,15.7c-0.1,7.5-0.2,15.5-0.2,24c0,8.5,0.1,16.5,0.2,24c0.1,7.5,0.2,12.7,0.2,15.7
		c0.2,3.2,0.5,8.2,0.9,14.9c0.3,6.7,0.7,14.2,1.2,22.6c0.5,8.4,0.9,17.3,1.4,26.6c0.5,9.3,0.9,18.2,1.4,26.6
		c0.5,8.4,0.9,16,1.2,22.6c0.3,6.7,0.6,11.5,0.9,14.5c0,0.7,0.1,1.8,0.3,3.5c0.2,1.6,0.5,3.3,0.9,5.2c0.3,1.8,0.7,3.6,1.2,5.2
		c0.5,1.6,0.8,2.8,1,3.5c0.2,0.5,1.2,1.6,2.9,3.5c1.7,1.8,3.1,3,4,3.5c0.5,0.2,1.6,0.7,3.3,1.4c1.7,0.7,3.6,1.4,5.5,2.1
		c2,0.7,3.7,1.4,5.4,2.1c1.6,0.7,2.6,1.2,3.1,1.4c0.7,0.5,1.8,1,3.3,1.7c1.5,0.7,3,1.4,4.5,2.1c1.5,0.7,2.8,1.3,4,1.9
		c1.2,0.6,1.8,1,2.1,1.2c0.7,0.5,1.9,1.6,3.6,3.3c1.7,1.7,2.8,2.9,3.3,3.6c0.2,0.9,0.3,1.5,0.3,1.7c0,0.2-0.1,0.8-0.3,1.7
		c-0.2,0.5-0.8,1.1-1.6,1.9c-0.8,0.8-1.4,1.3-1.9,1.6c-0.7-0.7-2.4-1.9-5-3.6c-2.7-1.7-4.4-2.8-5.4-3.3c-0.9-0.5-2.7-1.2-5.4-2.1
		c-2.7-0.9-4.3-1.4-5-1.4h-3.8c-2.5,0-5.4,0.2-8.6,0.5c-3.2,0.3-5.4,0.5-6.6,0.5c0,0.9-0.4,2.5-1.2,4.7c-0.8,2.2-1,3.7-0.5,4.7
		c0.2,0.7,1,2.4,2.4,5.2c1.4,2.8,2.9,5.7,4.5,8.8c1.6,3.1,3.1,6,4.5,8.6c1.4,2.7,2.2,4.3,2.4,5c0.2,0.7,0.7,2.1,1.4,4.1
		c0.7,2.1,1.4,4.2,2.2,6.4c0.8,2.2,1.5,4.3,2.1,6.2c0.6,2,1,3.3,1.2,4c0.2,0.7,0.5,2.2,0.9,4.5c0.3,2.3,0.7,4.8,1,7.4
		c0.3,2.6,0.7,5.1,1,7.4c0.3,2.3,0.5,3.9,0.5,4.8c-0.2,0.5-0.8,1.1-1.6,1.9c-0.8,0.8-1.4,1.3-1.9,1.6c-0.9,0.2-1.5,0.3-1.7,0.3
		c-0.5,0-1-0.1-1.7-0.3c-0.2-0.2-0.7-0.9-1.4-1.9c-0.7-1-1.4-2.2-2.2-3.5c-0.8-1.3-1.5-2.4-2.1-3.3c-0.6-0.9-1-1.5-1.2-1.7
		c-0.7-0.9-1.6-2.1-2.6-3.6c-1-1.5-2.1-2.9-3.1-4.3c-1-1.4-2-2.7-2.9-3.8c-0.9-1.2-1.5-1.8-1.7-2.1c-0.9-1.2-2.7-3.1-5.4-5.7
		c-2.7-2.6-5.4-5.4-8.3-8.3c-2.9-2.9-5.7-5.6-8.3-8.3c-2.7-2.6-4.6-4.4-5.7-5.4h1.7h1.7c1.2,0.5,3.5,1.6,7.1,3.3
		c3.6,1.7,6.6,3.4,9.2,5c2.3,1.2,3.8,1.8,4.5,2.1c0.9,0.5,2.7,1.6,5.4,3.5c2.6,1.8,4.3,3,5,3.5c0-0.2,0.1-0.5,0.2-0.9
		c0.1-0.3,0.2-0.6,0.2-0.9c0-0.2-0.1-0.8-0.3-1.7l-13.8-20.7c-0.7-0.9-1.7-2.7-3.1-5.4c-1.4-2.6-2.8-5.5-4.1-8.5
		c-1.4-3-2.7-5.8-4-8.5c-1.3-2.6-2.1-4.4-2.6-5.4h-38c-0.5,0-1.6,0.5-3.5,1.4c-1.8,0.9-3,1.6-3.5,2.1c-0.5,0.5-1.1,1.6-1.9,3.3
		c-0.8,1.7-1.3,2.9-1.6,3.6l-10.4,48.4l-13.8,58.8l-3.5,17.3c-0.2,0.9-0.7,2.4-1.4,4.5c-0.7,2.1-1.4,4.2-2.1,6.4
		c-0.7,2.2-1.4,4.2-2.1,6.1c-0.7,1.8-1.2,3.1-1.4,3.8c-0.2,0.5-0.8,1.2-1.6,2.1c-0.8,0.9-1.4,1.4-1.9,1.4h-5.2h-5.2
		c-0.2,0-0.7-0.5-1.6-1.4c-0.8-0.9-1.4-1.6-1.9-2.1l-3.5-6.9c0-0.2-0.1-0.8-0.2-1.6C10.9,395.3,10.8,394.6,10.8,394.2z M25,401.1
		c-1.8,0-2.8,1.2-2.8,3.5c0,2.3,0.9,3.5,2.8,3.5c1.8,0,2.8-1.2,2.8-3.5C27.7,402.2,26.8,401.1,25,401.1z M114.9,96.8
		c-0.9,2.8-2.3,6.9-4.1,12.4c-1.8,5.5-3.9,11.8-6.2,18.8c-2.3,7-4.7,14.4-7.3,22.1c-2.5,7.7-5,15.1-7.3,22.1c-2.3,7-4.3,13.4-6.1,19
		c-1.7,5.7-2.9,9.9-3.6,12.6c-0.2,1.2-0.7,3-1.4,5.5c-0.7,2.5-1.4,5.2-2.1,8.1c-0.7,2.9-1.4,5.7-2.1,8.3c-0.7,2.7-1.2,4.6-1.4,5.7
		c-0.2,0.5-0.4,1.8-0.5,4.1c-0.1,2.3-0.2,3.7-0.2,4.1c0.9,0,2.8-0.1,5.5-0.2c2.8-0.1,5.6-0.3,8.6-0.5c3-0.2,5.8-0.4,8.5-0.5
		c2.6-0.1,4.5-0.2,5.7-0.2c0.5,0,1.6-0.5,3.3-1.4c1.7-0.9,2.9-1.6,3.6-2.1l6.9-6.9c0.2-0.9,0.6-2.7,1-5.4c0.5-2.6,0.9-5.5,1.2-8.5
		c0.3-3,0.6-5.8,0.9-8.3c0.2-2.5,0.3-4.4,0.3-5.5c0-0.9,0.1-3.7,0.2-8.3c0.1-4.6,0.2-9.8,0.2-15.6c0-6,0.1-11.9,0.2-17.8
		c0.1-5.9,0.2-10.5,0.2-14c0-2.3-0.1-5.5-0.2-9.5c-0.1-4-0.2-8-0.2-11.9c0-4.1-0.1-7.8-0.2-10.9c-0.1-3.1-0.2-4.9-0.2-5.4
		L114.9,96.8z M87.2,121c-1.8,0-2.8,1.2-2.8,3.5c0,2.3,0.9,3.5,2.8,3.5c1.8,0,2.8-1.2,2.8-3.5C90,122.2,89.1,121,87.2,121z"/>
	<path fill="#FFFFFF" d="M161.6,274.9v-5.2c0-2.8-0.1-5.6-0.2-8.6c-0.1-3-0.2-5.8-0.2-8.3v-5.5V240c0-3,0.1-5.9,0.2-8.8
		c0.1-2.9,0.2-5.5,0.2-7.8v-3.8c0-0.2,0.1-1.1,0.3-2.6c0.2-1.5,0.5-3.2,0.9-5c0.3-1.8,0.7-3.7,1.2-5.5c0.5-1.8,0.8-3.2,1-4.1
		l3.5-10.4c0.7-1.8,1.7-4.5,3.1-8.1c1.4-3.6,2.8-7.2,4.1-10.9c1.4-3.7,2.7-7,4-10c1.3-3,2.1-4.8,2.6-5.5c0.5-1.4,1.2-3.2,2.2-5.4
		c1-2.2,2.1-4.4,3.3-6.6c1.2-2.2,2.2-4.1,3.1-5.9c0.9-1.7,1.5-2.7,1.7-2.9c0.7-0.9,2.1-2.6,4.3-5c2.2-2.4,4.6-5,7.3-7.6
		c2.6-2.6,5.1-5.1,7.4-7.3c2.3-2.2,4-3.6,5.2-4.3c0.9-0.2,2.9-0.5,6.1-0.7c3.1-0.2,5.1-0.3,6.1-0.3c1.6,0,3.9,0.1,6.9,0.3
		c3,0.2,4.7,0.5,5.2,0.7c0.2,0.2,1,0.9,2.2,2.1c1.3,1.2,2.6,2.4,4.1,3.8c1.5,1.4,2.9,2.8,4.3,4.3c1.4,1.5,2.4,2.7,3.1,3.6
		c0.2,0.5,0.7,1.3,1.4,2.6c0.7,1.3,1.4,2.7,2.2,4.1c0.8,1.5,1.5,2.9,2.1,4.1c0.6,1.3,1,2.2,1.2,2.9c0.2,0.9,0.6,2.4,1,4.3
		c0.5,2,0.9,4,1.2,6.2c0.3,2.2,0.6,4.3,0.9,6.2c0.2,2,0.3,3.3,0.3,4c0,0.9-0.5,2.2-1.4,3.8c-0.9,1.6-1.6,2.7-2.1,3.1
		c-0.9,0.5-2.5,1-4.7,1.6c-2.2,0.6-3.7,0.9-4.7,0.9c0-0.7-0.1-2-0.2-3.8c-0.1-1.8-0.2-3.9-0.3-6.1c-0.1-2.2-0.2-4.2-0.3-6.1
		c-0.1-1.8-0.2-3.1-0.2-3.8c-0.5-1.8-0.9-3.3-1.2-4.5c-0.3-1.2-0.8-2.2-1.2-3.3c-0.5-1-0.8-1.9-1-2.6c-0.5-0.9-1.1-2.2-1.9-4
		c-0.8-1.7-1.3-2.7-1.6-2.9c-0.2-0.2-1.2-0.7-2.9-1.6c-1.7-0.8-3.1-1.4-4-1.9c-1.2-0.5-3.1-1.2-5.7-2.1c-2.7-0.9-4.2-1.4-4.7-1.4
		c-0.2,0-1-0.1-2.4-0.2c-1.4-0.1-2.3-0.2-2.8-0.2c-0.7,0-1.7,0.1-2.9,0.2c-1.3,0.1-2,0.2-2.2,0.2c-0.5,0.2-1.6,0.8-3.5,1.6
		c-1.8,0.8-3,1.4-3.5,1.9l-13.8,27.7l-3.5,10.4c-1.4,4.8-2.7,10-3.8,15.6c-1.2,5.5-2.2,10.7-3.1,15.6c-0.2,1.4-0.6,3.2-1,5.5
		c-0.5,2.3-0.9,4.6-1.2,6.7c-0.3,2.2-0.6,4.1-0.9,5.7c-0.2,1.6-0.3,2.5-0.3,2.8v3.8c0,2.1-0.1,4.5-0.2,7.3c-0.1,2.8-0.2,5.5-0.2,8.3
		v6.6v5.2c0,2.5,0.1,5.2,0.2,8c0.1,2.8,0.2,5.4,0.2,8v4.8c0.2,0.7,0.7,1.7,1.4,2.9c0.7,1.3,1.4,2.6,2.1,4c0.7,1.4,1.3,2.7,1.9,4
		c0.6,1.3,1.1,2.2,1.6,2.9c1.4,1.8,3.1,3.6,5.2,5.4c2.1,1.7,3.7,2.8,4.8,3.3c2.1,1.2,4.2,2.3,6.4,3.5c2.2,1.2,3.6,1.7,4.3,1.7
		c0.5,0,2.1,0.1,4.8,0.3c2.8,0.2,4.7,0.3,5.9,0.3c1.4,0,3.3-0.1,5.9-0.3c2.5-0.2,3.9-0.3,4.1-0.3c2.3-1.6,4.2-2.9,5.7-4
		c1.5-1,3-2.2,4.5-3.5c1.5-1.3,2.7-2.2,3.6-2.9c0.5-0.5,1.2-1.1,2.1-1.9c0.9-0.8,1.4-1.3,1.4-1.6c0.2-0.5,0.5-1.6,0.9-3.5
		c0.3-1.8,0.7-3.9,1-6.1c0.3-2.2,0.7-4.3,1-6.4c0.3-2.1,0.5-3.7,0.5-4.8c0-0.2,0.1-1.3,0.2-3.1c0.1-1.8,0.2-3.2,0.2-4.1
		c0-0.9-0.1-2.2-0.2-3.8c-0.1-1.6-0.2-2.5-0.2-2.8c-0.2-0.9-0.8-2.7-1.6-5.4c-0.8-2.6-1.4-4.3-1.9-5c0.5-0.2,1.6-0.5,3.5-0.7
		c1.8-0.2,3-0.3,3.5-0.3c0.9,0,2.2,0.1,4,0.3c1.7,0.2,2.7,0.5,2.9,0.7c0.2,0,0.7,1.3,1.6,4c0.8,2.7,1.4,4.8,1.9,6.4
		c0,0.2,0.2,1,0.5,2.4c0.3,1.4,0.7,2.9,1,4.5c0.3,1.6,0.7,3.1,1,4.5c0.3,1.4,0.6,2.2,0.9,2.4c0,0.2,0.5,0.8,1.4,1.6
		c0.9,0.8,1.6,1.4,2.1,1.9l24.2,17.3c0.5,0.2,1.1,0.8,1.9,1.6c0.8,0.8,1.3,1.4,1.6,1.9h-38c-0.7,0.7-1.8,1.7-3.5,2.9
		c-1.6,1.3-3.3,2.7-5.2,4.1c-1.8,1.5-3.6,2.9-5.2,4.1c-1.6,1.3-2.8,2.1-3.5,2.6c-0.5,0.5-2,1.1-4.7,1.9c-2.7,0.8-4.6,1.3-5.7,1.6
		c-0.5,0-2,0.1-4.5,0.3c-2.5,0.2-5.5,0.5-8.8,0.9c-3.3,0.3-6.6,0.8-9.9,1.2c-3.2,0.5-5.9,0.8-8,1h-1.7h-1.7c-0.7-0.2-2.4-0.7-5-1.6
		c-2.7-0.8-4.4-1.4-5.4-1.9c-0.9-0.5-2.2-1.1-4-1.9c-1.7-0.8-2.7-1.3-2.9-1.6c-0.9-0.7-2.2-1.9-4-3.6s-3.5-3.5-5.4-5.4
		c-1.8-1.8-3.5-3.6-5-5.2c-1.5-1.6-2.5-2.6-2.9-3.1c-0.5-0.7-1.2-2.4-2.1-5C162,277.6,161.6,275.8,161.6,274.9z M168.5,209.2
		c-1.8,0-2.8,1.2-2.8,3.5c0,2.3,0.9,3.5,2.8,3.5c1.8,0,2.8-1.2,2.8-3.5C171.2,210.3,170.3,209.2,168.5,209.2z M175.4,185
		c-1.8,0-2.8,1.2-2.8,3.5c0,2.3,0.9,3.5,2.8,3.5c1.8,0,2.8-1.2,2.8-3.5C178.2,186.1,177.2,185,175.4,185z M178.8,285.3
		c-1.8,0-2.8,1.2-2.8,3.5c0,2.3,0.9,3.5,2.8,3.5c1.8,0,2.8-1.2,2.8-3.5C181.6,286.4,180.7,285.3,178.8,285.3z M195.8,249.3
		c0-0.7,0.1-1.7,0.2-3.1c0.1-1.4,0.2-2.2,0.2-2.4c0.2-0.5,0.7-1.1,1.6-1.9c0.8-0.8,1.4-1.3,1.9-1.6c0.2-0.2,1-0.5,2.4-0.9
		c1.4-0.3,2.9-0.7,4.5-1c1.6-0.3,3.1-0.7,4.5-1c1.4-0.3,2.2-0.5,2.4-0.5l27.7-10.4l10.4-3.5c1.2-0.2,3.1-0.7,5.7-1.4
		c2.6-0.7,5.4-1.4,8.3-2.1c2.9-0.7,5.6-1.4,8.3-2.1c2.6-0.7,4.4-1.2,5.4-1.4h3.5c1.8-0.2,4.5-0.6,8.1-1c3.6-0.5,7.2-0.9,10.9-1.2
		c3.7-0.3,7-0.6,10-0.9c3-0.2,4.8-0.3,5.5-0.3l20.7-3.5c0.2,0,1.1-0.1,2.6-0.2c1.5-0.1,2.5-0.2,2.9-0.2c0.7,0,2.3,0.1,4.8,0.3
		c0.5,0.2,1.1,0.8,1.9,1.6c0.8,0.8,1.3,1.4,1.6,1.9c-0.7,0.9-2.4,2.7-5,5.4c-2.7,2.7-4.4,4.3-5.4,5c-0.5,0.2-1.5,0.8-3.1,1.6
		c-1.6,0.8-2.9,1.4-3.8,1.9c-0.7,0.5-2.4,1.1-5,1.9c-2.7,0.8-4.4,1.3-5.4,1.6c-2.1-0.2-5.9-0.4-11.6-0.5c-5.7-0.1-11.6-0.2-17.8-0.2
		s-12.2,0.1-17.8,0.2c-5.7,0.1-9.5,0.3-11.6,0.5c-0.7,0-2.5,0.4-5.4,1.2c-2.9,0.8-6,1.8-9.3,2.9c-3.3,1.2-6.6,2.3-9.7,3.5
		c-3.1,1.2-5.4,2.1-6.7,2.8c-0.2,0.2-1,0.8-2.4,1.7c-1.4,0.9-2.9,2-4.5,3.3c-1.6,1.3-3.1,2.4-4.5,3.5c-1.4,1-2.2,1.7-2.4,1.9
		c-0.5,0.2-1.3,0.7-2.6,1.4c-1.3,0.7-2.7,1.4-4.1,2.2c-1.5,0.8-2.9,1.5-4.1,2.1c-1.3,0.6-2.2,1-2.9,1.2h-1.7H203
		c-0.9-0.5-2.2-1.1-4-1.9c-1.7-0.8-2.7-1.3-2.9-1.6C195.9,251.6,195.8,250,195.8,249.3z M220.3,240.3c-0.2-0.5-0.6-0.6-1.2-0.5
		c-0.6,0.1-1.2,0.5-1.7,1c-0.6,0.6-0.9,1.2-1,1.7c-0.1,0.6,0.1,1,0.5,1.2c1.2,0.5,2.1,0.3,2.9-0.5
		C220.6,242.4,220.8,241.5,220.3,240.3z"/>
	<path fill="#FFFFFF" d="M334.4,278.3c-0.2-0.7-0.3-1.2-0.3-1.4c0-0.5,0.1-1.2,0.3-2.1c0.2-0.2,1-1,2.4-2.4c1.4-1.4,2.9-2.8,4.5-4.3
		c1.6-1.5,3.1-2.9,4.5-4.3c1.4-1.4,2.2-2.3,2.4-2.8c0.2-0.5,0.5-2.2,0.7-5.2c0.2-3,0.3-5.3,0.3-6.9c0-0.9-0.1-2.9-0.3-6.1
		c-0.2-3.1-0.5-5.1-0.7-6.1c-0.7,0-1.9-0.5-3.6-1.4c-1.7-0.9-2.8-1.6-3.3-2.1c-0.2-1.8-0.3-3-0.3-3.5c0-0.5,0.1-1.1,0.2-1.9
		c0.1-0.8,0.2-1.3,0.2-1.6c0.2-0.5,1.4-1.6,3.5-3.5c2.1-1.8,3.2-3,3.5-3.5c0-0.2,0.1-1.2,0.2-2.8c0.1-1.6,0.2-2.9,0.2-3.8
		c0-0.9-0.1-2.3-0.2-4.1c-0.1-1.8-0.2-2.9-0.2-3.1c0-0.5-0.5-1.6-1.4-3.5c-0.9-1.8-1.6-3-2.1-3.5c-0.2-0.2-0.9-0.9-1.9-1.9
		c-1-1-2.2-2.1-3.5-3.3c-1.3-1.2-2.4-2.2-3.3-3.1c-0.9-0.9-1.5-1.6-1.7-2.1c-0.2-2.5-0.3-4.1-0.3-4.8c0-0.7,0.1-1.7,0.2-3.1
		c0.1-1.4,0.2-2.2,0.2-2.4c0-0.2,0.5-0.7,1.4-1.6c0.9-0.8,1.6-1.4,2.1-1.9c0.7-0.5,1.9-1.2,3.6-2.1c1.7-0.9,2.8-1.4,3.3-1.4
		c0.7,0,2,0.1,3.8,0.2c1.8,0.1,3.7,0.2,5.7,0.3c2,0.1,3.9,0.3,5.7,0.5c1.8,0.2,3.1,0.3,3.8,0.3V140c0.5,0.5,1.4,1.6,2.8,3.3
		c1.4,1.7,2.2,2.9,2.4,3.6c0.2,0.9,0.6,2.5,1,4.7c0.5,2.2,0.9,4.6,1.2,7.3c0.3,2.7,0.6,5.1,0.9,7.4c0.2,2.3,0.3,3.9,0.3,4.8
		c1.6,0,4.4,0.1,8.3,0.3c3.9,0.2,8.1,0.5,12.4,0.9c4.4,0.3,8.5,0.8,12.4,1.2c3.9,0.5,6.7,0.8,8.3,1c0.7,0,1.8,0.3,3.5,0.9
		c1.6,0.6,3.3,1.3,5.2,2.1c1.8,0.8,3.6,1.6,5.2,2.2c1.6,0.7,2.8,1.3,3.5,1.7c-0.2,0.5-0.8,1.1-1.6,1.9c-0.8,0.8-1.4,1.3-1.9,1.6
		l-27.7,13.8c-0.5,0.2-1.4,0.8-2.8,1.6c-1.4,0.8-3,1.8-4.8,2.9c-1.8,1.2-3.7,2.2-5.5,3.3c-1.8,1-3.2,1.9-4.1,2.6l-10.4,6.9
		c-0.5,0.5-1.2,1.1-2.1,1.9c-0.9,0.8-1.4,1.3-1.4,1.6c-0.2,0.5-0.1,1.3,0.3,2.6c0.5,1.3,0.7,2.1,0.7,2.6h57.7
		c-1.6,0.7-4.4,2.1-8.3,4.3c-3.9,2.2-8.1,4.5-12.4,6.9c-4.4,2.4-8.5,4.7-12.4,6.7c-3.9,2.1-6.7,3.6-8.3,4.5
		c-0.9,0.5-2.7,1.6-5.4,3.5c-2.7,1.8-4.3,3-5,3.5c-0.9,0.7-2.2,1.9-4,3.6c-1.7,1.7-2.7,2.8-2.9,3.3c-0.2,0.5,0,1.6,0.7,3.5
		c0.7,1.8,1,3,1,3.5h70.2c0,1.2-0.3,3.5-1,6.9c-0.7,3.5-1.3,5.8-1.7,6.9c-0.2,0.5-1.2,1.1-2.9,1.9c-1.7,0.8-3.1,1.3-4,1.6
		c-1.8,0.2-3,0.3-3.5,0.3c-0.5,0-1.1-0.1-1.9-0.2c-0.8-0.1-1.3-0.2-1.6-0.2c-0.2,0-0.9-0.2-1.9-0.7c-1-0.5-2.1-0.9-3.3-1.2
		c-1.2-0.3-2.2-0.7-3.3-1c-1-0.3-1.7-0.5-1.9-0.5c-0.2,0-1.3,0-3.1,0c-1.6,0-3.6-0.1-6.1-0.2c-2.4-0.1-4.9-0.2-7.4-0.2
		c-2.5,0-4.5,0-5.9,0c-0.9,0-2.4,0-4.5,0c-2.1,0-4.3,0.1-6.7,0.2c-2.4,0.1-4.7,0.2-6.7,0.2c-2.1,0-3.6,0-4.5,0
		c0,0.9-0.1,2.5-0.3,4.8c-0.2,2.3-0.5,4.8-0.9,7.4c-0.3,2.7-0.8,5.1-1.2,7.3c-0.5,2.2-0.8,3.7-1,4.7c-0.2,0.5-0.8,1.1-1.6,1.9
		c-0.8,0.8-1.4,1.3-1.9,1.6c-1.8,0.5-5.9,0.9-12.1,1.4v-25.6L334.4,278.3z M354.7,193.6c0.1,0.7,0.3,1.3,0.5,1.7
		c0.2,0.7,0.7,1.8,1.4,3.5c0.7,1.6,1.4,3.3,2.1,5.2c0.7,1.8,1.4,3.6,2.1,5.2c0.7,1.6,1.2,2.8,1.4,3.5v-20.7h-7.6
		C354.5,192.4,354.5,192.9,354.7,193.6z M357.4,237.7c-0.3,0.8-0.5,1.7-0.5,2.6c0,0.9,0.2,1.8,0.5,2.6c0.3,0.8,0.7,1.1,1.2,0.9
		c1.2-0.5,1.7-1.6,1.7-3.5c0-1.8-0.6-3-1.7-3.5C358.2,236.6,357.8,236.9,357.4,237.7z M372.5,188.4c-0.5,0-1.1,0.9-1.9,2.6
		c-0.8,1.7-1.3,3.2-1.6,4.3c0,0.2-0.1,1.2-0.2,2.9c-0.1,1.7-0.2,3.1-0.2,4c0,0.5,0.1,1.6,0.2,3.5c0.1,1.8,0.2,3,0.2,3.5
		c0.5-0.2,1.6-0.7,3.5-1.6c1.8-0.8,3-1.4,3.5-1.9c1.6-0.9,3.6-2.1,5.9-3.6c2.3-1.5,4.5-3,6.7-4.5c2.2-1.5,4.9-3.4,8.1-5.7V185
		L372.5,188.4z M369,247.2c3-1.2,6-2.7,9-4.7c3-2,5.8-3.9,8.3-5.7H369V247.2z"/>
	<path fill="#FFFFFF" d="M465.8,173.6c0,2.8-0.1,5.7-0.2,8.8c-0.1,3.1-0.2,6.1-0.2,8.8s0,4.7,0,5.9c0,1.8,0,4.4,0,7.6
		c0,3.2,0.1,6.4,0.2,9.5c0.1,3.1,0.2,5.9,0.2,8.5c0,2.3,0,3.6,0,3.8c0,0.9,0.2,3.1,0.5,6.4c0.3,3.3,0.7,7,1,10.9
		c0.3,3.9,0.7,7.6,1.2,10.9c0.5,3.3,0.7,5.5,0.7,6.4v12.1v12.1c-0.5,0.7-1.6,1.9-3.3,3.6c-1.7,1.7-2.9,2.8-3.6,3.3
		c-0.2,0.2-1.3,0.4-3.1,0.5c-1.8,0.1-3.3,0.2-4.5,0.2c-0.9,0-2.2-0.1-3.8-0.2c-1.6-0.1-2.4-0.3-2.4-0.5c-0.5-0.5-1.1-2.4-1.9-5.9
		c-0.8-3.5-1.3-6.1-1.6-8c0-0.2-0.1-1.7-0.2-4.3c-0.1-2.6-0.2-4.5-0.2-5.7c0-1.2,0.1-3.1,0.2-5.9c0.1-2.8,0.2-4.4,0.2-4.8
		c0.2-2.8,0.6-7,1.2-12.6c0.6-5.6,1.2-12.1,1.7-19.4c0.6-7.3,1.3-14.9,2.1-23c0.8-8.1,1.6-15.7,2.2-23c0.7-7.3,1.3-13.8,1.9-19.7
		c0.6-5.9,1-10.2,1.2-13c0-0.7,0.2-1.8,0.5-3.5c0.3-1.6,0.7-3.3,1-5.2c0.3-1.8,0.7-3.6,1-5.2c0.3-1.6,0.6-2.8,0.9-3.5
		c0.5,0.2,1.1,0.8,1.9,1.6c0.8,0.8,1.3,1.4,1.6,1.9c0.2,0.5,0.5,1.3,0.9,2.6c0.3,1.3,0.7,2.7,1,4.3c0.3,1.6,0.7,3.1,1,4.5
		s0.5,2.2,0.5,2.4c0.2,0.7,0.7,2.4,1.6,5c0.8,2.7,1.4,4.4,1.9,5.4l20.7,55.3l10.4,31.1c0.2,0.7,0.7,1.7,1.4,3.1
		c0.7,1.4,1.4,2.8,2.1,4.3c0.7,1.5,1.4,2.9,2.1,4.1c0.7,1.3,1.2,2,1.4,2.2c0.5,0.5,1.3,1.4,2.6,2.8c1.3,1.4,2.6,2.8,4.1,4.1
		c1.5,1.4,2.9,2.8,4.1,4.1c1.3,1.4,2.2,2.3,2.9,2.8c0.2,0.2,0.6,0.1,1.2-0.5c0.6-0.6,1-0.9,1.2-0.9c0-1.8,0.1-5.2,0.2-10
		c0.1-4.8,0.3-9.9,0.5-15.2c0.2-5.3,0.3-10.4,0.3-15.2c0-4.8,0-8.2,0-10c0-0.9-0.2-3.1-0.5-6.4c-0.3-3.3-0.7-7-1-10.9
		c-0.3-3.9-0.8-7.5-1.2-10.9c-0.5-3.3-0.7-5.5-0.7-6.4c0-0.9-0.2-4.4-0.5-10.5c-0.3-6.1-0.7-13-1-20.7c-0.3-7.7-0.7-15.4-1-23.2
		c-0.3-7.7-0.6-13.8-0.9-18.2v-4.1v-2.8c0.2-0.9,0.7-2.2,1.6-4c0.8-1.7,1.4-2.7,1.9-2.9c0.7-0.5,2.4-1.2,5-2.1
		c2.6-0.9,4.4-1.4,5.4-1.4c0.5,0,1.1,0.5,1.9,1.4c0.8,0.9,1.3,1.6,1.6,2.1c0.2,1.8,0.3,3,0.3,3.5c0,0.5-0.1,1.1-0.2,1.9
		c-0.1,0.8-0.2,1.3-0.2,1.6c0,0.5-0.3,1.6-1,3.3c-0.7,1.7-1.4,3.5-2.2,5.4c-0.8,1.8-1.6,3.6-2.2,5.4c-0.7,1.7-1.2,2.8-1.4,3.3
		c-0.5,1.4-1.2,3.4-2.1,6.1c-0.9,2.7-1.4,4.1-1.4,4.3c0,0.2-0.1,1.8-0.2,4.7c-0.1,2.9-0.2,5.1-0.2,6.7c0,0.7,0,1.7,0,3.1
		c0,1.4,0.1,2.8,0.2,4.1c0.1,1.4,0.2,2.7,0.2,3.8c0,0.9,0,1.5,0,1.7c0,1.4,0.2,4,0.5,7.8c0.3,3.8,0.7,7.9,1,12.3
		c0.3,4.4,0.7,8.6,1,12.6c0.3,4,0.6,7,0.9,8.8c0,0.7,0.2,2.1,0.5,4.3c0.3,2.2,0.7,4.6,1,7.1c0.3,2.5,0.7,5,1,7.4
		c0.3,2.4,0.6,4.2,0.9,5.4l3.5,17.3c0.2,1.4,0.6,3.2,1,5.5c0.5,2.3,0.9,4.6,1.2,6.7c0.3,2.2,0.6,4.1,0.9,5.7
		c0.2,1.6,0.3,2.5,0.3,2.8c0,0.2,0,1.3,0,3.1c0,1.6,0.1,3.5,0.2,5.7c0.1,2.2,0.2,4.4,0.2,6.7c0,2.1,0,3.8,0,5.2c0,0.7,0,2.1,0,4.1
		c0,1.8-0.1,3.9-0.2,6.2c-0.1,2.3-0.2,4.5-0.2,6.6c0,1.8,0,3.1,0,3.8c0.2,0.7-0.1,1.9-1,3.6c-0.9,1.7-1.7,2.8-2.4,3.3
		c-0.2,0-1.2,0-2.8,0c-1.6,0-3,0-4.1,0c-0.9,0-2.2,0-4,0c-1.7,0-2.7,0-2.9,0c-0.7-0.2-1.9-1.2-3.6-2.9c-1.7-1.7-2.8-3.1-3.3-4
		c-0.2-0.5-0.8-1.8-1.6-4.1c-0.8-2.3-1.8-4.9-2.9-7.8c-1.2-2.9-2.2-5.8-3.3-8.8c-1-3-1.9-5.3-2.6-6.9l-24.2-72.6
		c-0.5-0.9-1.2-2.6-2.1-5.2c-0.9-2.5-1.9-5.3-2.9-8.3c-1-3-2.1-5.8-3.1-8.5c-1-2.6-1.8-4.5-2.2-5.7c-0.2-0.5-0.8-1.6-1.6-3.5
		c-0.8-1.8-1.4-3-1.9-3.5C465.8,168.9,465.8,170.8,465.8,173.6z M452.7,226.5c0,2.3,0.9,3.5,2.8,3.5c1.8,0,2.8-1.2,2.8-3.5
		c0-2.3-0.9-3.5-2.8-3.5C453.6,223,452.7,224.2,452.7,226.5z"/>
	<path fill="#FFFFFF" d="M545,215.4v-6.2c0-2.5,0.1-5.1,0.2-7.6c0.1-2.5,0.2-4.7,0.2-6.6v-3.1c0.5-1.8,0.9-3.3,1.2-4.5
		c0.3-1.2,0.7-2.2,1.2-3.3c0.5-1,0.8-1.9,1-2.6c1.8-4.6,3.9-8.8,6.1-12.6c2.2-3.8,4.8-7.7,7.8-11.6c0.9-1.2,2.1-2.7,3.6-4.7
		c1.5-2,2.9-3.9,4.3-5.7c1.4-1.8,2.6-3.5,3.8-4.8c1.2-1.4,1.8-2.1,2.1-2.1c0.7-0.5,2.2-1.3,4.7-2.6c2.4-1.3,5.1-2.7,8.1-4.3
		c3-1.6,5.9-3.1,8.6-4.3c2.8-1.3,4.8-2.1,6.2-2.6c2.5-0.2,4.1-0.3,4.8-0.3c0.5,0,1.4,0.1,2.9,0.2c1.5,0.1,2.4,0.2,2.6,0.2
		c1.8,0.2,4.5,0.8,8,1.6c3.5,0.8,5.4,1.4,5.9,1.9c0.9,0.7,2.3,1.8,4.1,3.5c1.8,1.6,3.7,3.3,5.5,5.2c1.8,1.8,3.5,3.6,5,5.2
		c1.5,1.6,2.4,2.8,2.6,3.5c0,0.2,0.1,1.6,0.2,4.1c0.1,2.5,0.2,4.6,0.2,6.2v3.5c0,1.4-0.1,2.8-0.2,4.3c-0.1,1.5-0.2,2.8-0.2,4v2.1
		c0,0.5-0.1,1.5-0.3,3.1c-0.2,1.6-0.5,3.3-0.9,5.2c-0.3,1.8-0.8,3.6-1.2,5.4c-0.5,1.7-0.8,2.9-1,3.6c-0.2,0.5-0.8,1.6-1.6,3.5
		c-0.8,1.8-1.4,3-1.9,3.5c-0.2,0.5-0.8,1.1-1.6,1.9c-0.8,0.8-1.4,1.3-1.9,1.6v-3.5v-3.5c0-0.5,0.2-1.6,0.5-3.3
		c0.3-1.7,0.7-3.5,1.2-5.4c0.5-1.8,0.9-3.6,1.2-5.4c0.3-1.7,0.5-2.8,0.5-3.3c0-0.2-0.1-0.9-0.3-2.1c-0.2-1.2-0.5-2.5-0.9-4
		c-0.3-1.5-0.8-3-1.2-4.5c-0.5-1.5-0.8-2.6-1-3.3l-3.5-6.9l-6.9-10.4c-0.2-0.5-0.2-0.9,0.2-1.2c0.3-0.3,0.5-0.6,0.5-0.9
		c-0.7,0-2.1-0.1-4.1-0.2c-2.1-0.1-4.3-0.3-6.6-0.5c-2.3-0.2-4.5-0.4-6.6-0.5c-2.1-0.1-3.5-0.2-4.1-0.2c-0.5,0-1.6,0.5-3.3,1.4
		c-1.7,0.9-2.9,1.6-3.6,2.1c-0.7,0.5-1.9,1.6-3.6,3.5c-1.7,1.8-2.8,3-3.3,3.5c-0.5,0.5-1.2,1.6-2.1,3.5c-0.9,1.8-2,3.9-3.1,6.2
		c-1.2,2.3-2.2,4.5-3.3,6.6c-1,2.1-1.7,3.6-1.9,4.5c-0.2,0.5-0.7,1.6-1.4,3.3c-0.7,1.7-1.4,3.7-2.1,6.1c-0.7,2.3-1.4,4.6-2.1,6.7
		c-0.7,2.2-1.2,3.7-1.4,4.7l-3.5,13.8c-0.2,1.2-0.6,2.7-1,4.5c-0.5,1.8-0.9,3.7-1.2,5.5c-0.3,1.8-0.6,3.5-0.9,4.8
		c-0.2,1.4-0.3,2.2-0.3,2.4v3.5c0,1.8-0.1,4.1-0.2,6.7c-0.1,2.7-0.2,5.2-0.2,7.8v6.2v6.2c0,2.5,0.1,5.1,0.2,7.8
		c0.1,2.7,0.2,5,0.2,7.1v3.1c0,1.2,0.2,3.2,0.7,6.2c0.5,3,1,5.7,1.7,8c0.2,1.8,0.6,2.9,1,3.1c0.2,0.5,1.2,1.6,2.9,3.3
		c1.7,1.7,3.1,2.9,4,3.6c0.5,0.5,1.6,1.1,3.5,1.9c1.8,0.8,3,1.3,3.5,1.6c0.2,0,1,0.1,2.4,0.2c1.4,0.1,2.4,0.2,3.1,0.2
		c0.7,0,2.3-0.1,4.8-0.3c0.5-0.2,1.6-1.2,3.3-2.9c1.7-1.7,2.9-3.1,3.6-4l6.9-10.4l3.5-3.5c0.9-0.2,1.5-0.3,1.7-0.3
		c0.2,0,0.5,0.1,0.9,0.2c0.3,0.1,0.6,0.2,0.9,0.2c-0.5,0.7-1.2,2-2.1,4c-0.9,2-2,4.1-3.1,6.4c-1.2,2.3-2.2,4.4-3.1,6.4
		c-0.9,2-1.6,3.3-2.1,4c-0.5,0.5-1.6,1.6-3.3,3.5c-1.7,1.8-2.9,3-3.6,3.5c-0.7,0.5-1.9,1.2-3.6,2.1c-1.7,0.9-2.8,1.4-3.3,1.4h-8.6
		H573c-0.5,0-1.6-0.5-3.3-1.4c-1.7-0.9-2.9-1.6-3.6-2.1l-6.9-6.9l-3.5-6.9c-0.5-0.7-1-2.4-1.7-5c-0.7-2.6-1.3-4.4-1.7-5.4
		c-3.2-11.1-5.2-22.1-6.1-33C545.4,237.8,545,226.7,545,215.4z M559.2,240.3c-0.5-0.2-0.9,0.1-1.2,0.9c-0.3,0.8-0.5,1.7-0.5,2.6
		c0,0.9,0.2,1.8,0.5,2.6c0.3,0.8,0.7,1.1,1.2,0.9c1.2-0.5,1.7-1.6,1.7-3.5C560.9,241.9,560.3,240.8,559.2,240.3z M562.6,167.7
		c-1.8,0-2.8,1.2-2.8,3.5c0,2.3,0.9,3.5,2.8,3.5c1.8,0,2.8-1.2,2.8-3.5C565.4,168.9,564.5,167.7,562.6,167.7z M573,302.5
		c0.5-1.2-0.2-1.7-2.1-1.7c-1.4,0-1.8,0.6-1.4,1.7c0.5,1.2,1,1.7,1.7,1.7C572,304.3,572.5,303.7,573,302.5z"/>
	<path fill="#FFFFFF" d="M650.1,358.2v-4.5c0-1.8,0.1-3.7,0.2-5.7c0.1-2,0.2-3.6,0.2-5v-2.8c0-0.5,0.1-1.7,0.3-3.8
		c0.2-2.1,0.5-4.4,0.9-6.9c0.3-2.5,0.7-5.1,1.2-7.6c0.5-2.5,0.8-4.5,1-5.9l10.4-58.8c0-0.7,0.1-2.4,0.3-5c0.2-2.6,0.5-5.5,0.9-8.6
		c0.3-3.1,0.7-6.1,1.2-8.8c0.5-2.8,0.8-4.5,1-5.2c0.2-0.9,0.8-3.1,1.7-6.4c0.9-3.3,2-7,3.3-10.9c1.3-3.9,2.4-7.5,3.5-10.9
		c1-3.3,1.7-5.5,1.9-6.4l3.5-17.3V176v-1.7c-0.2-0.7-0.7-1.7-1.4-2.9c-0.7-1.3-1.4-2.6-2.1-4c-0.7-1.4-1.4-2.7-2.1-4
		c-0.7-1.3-1.2-2.2-1.4-2.9c-0.5-0.5-1.4-1.7-2.8-3.6c-1.4-2-2.9-4.1-4.5-6.6c-1.6-2.4-3.1-4.7-4.3-6.7c-1.3-2.1-2-3.3-2.2-3.8
		c-0.9-1.6-2.4-4.4-4.3-8.3c-2-3.9-4-8.1-6.2-12.4c-2.2-4.4-4.3-8.5-6.2-12.4c-2-3.9-3.3-6.7-4-8.3v-1.7v-1.7
		c0.5-1.2,1.1-3.1,1.9-5.7c0.8-2.6,1.3-4.2,1.6-4.7c0.7-0.2,1.2-0.3,1.4-0.3c0.5,0,1.2,0.1,2.1,0.3c2.1,1.2,4,2,5.7,2.6
		c1.7,0.6,2.4,1.6,1.9,2.9c0.5,1.2,1,2.7,1.7,4.7c0.7,2,1,3.2,1,3.6c0.5,1.2,1.2,2.9,2.1,5.2c0.9,2.3,2,4.8,3.1,7.4
		c1.2,2.7,2.2,5.1,3.1,7.3c0.9,2.2,1.6,3.6,2.1,4.3c0.7,1.4,1.7,3.5,3.1,6.2c1.4,2.8,2.8,5.6,4.1,8.5c1.4,2.9,2.7,5.6,4,8.1
		c1.3,2.5,2.1,4.1,2.6,4.8c0.2,0.5,0.7,1.1,1.6,1.9c0.8,0.8,1.4,1.3,1.9,1.6c0.9,0.2,1.5,0.3,1.7,0.3c0.2,0,0.8-0.1,1.7-0.3
		c0.5-0.2,1.1-0.7,1.9-1.6c0.8-0.8,1.3-1.4,1.6-1.9c0.2-0.5,0.7-2.4,1.6-5.9c0.8-3.5,1.4-6.1,1.9-8l10.4-48.4c0.5-1.8,1.1-4.5,1.9-8
		c0.8-3.5,1.3-5.4,1.6-5.9c0.2-0.5,0.7-1.1,1.6-1.9c0.8-0.8,1.4-1.3,1.9-1.6c0.2-0.2,0.9-0.4,2.1-0.5c1.2-0.1,2-0.2,2.4-0.2
		c0,0.9-0.1,2.5-0.2,4.8c-0.1,2.3-0.2,4.8-0.3,7.4c-0.1,2.7-0.2,5.2-0.3,7.6c-0.1,2.4-0.2,4.1-0.2,5c0,0.5-0.1,1.4-0.3,2.8
		c-0.2,1.4-0.5,3-0.9,4.8c-0.3,1.8-0.8,3.7-1.2,5.5c-0.5,1.8-0.8,3.2-1,4.1l-13.8,55.3c0,0.5-0.3,1.6-0.9,3.3
		c-0.6,1.7-1.3,3.5-2.1,5.4c-0.8,1.8-1.6,3.6-2.4,5.4c-0.8,1.7-1.3,2.8-1.6,3.3c-0.5,1.4-1.2,3.9-2.2,7.4c-1,3.6-2.1,7.4-3.3,11.6
		c-1.2,4.1-2.2,8-3.1,11.6c-0.9,3.6-1.5,6.1-1.7,7.4c-0.2,0.9-0.8,3.6-1.7,8c-0.9,4.4-1.9,9.3-2.9,14.9c-1,5.5-2.1,11-3.1,16.4
		c-1,5.4-1.9,9.6-2.6,12.6c-4.8,24.7-7.3,49.4-7.3,74.3v3.8c0,1.8,0.1,3.7,0.2,5.7c0.1,2,0.2,3.9,0.2,5.7v3.8
		c0.5,0.5,1.1,1.6,1.9,3.5c0.8,1.8,1.3,3,1.6,3.5c0,0.2,0.1,0.7,0.2,1.6c0.1,0.8,0.2,1.4,0.2,1.9c0,0.5-0.1,1.6-0.3,3.5
		c-0.2,0.5-0.8,1.1-1.6,1.9c-0.8,0.8-1.4,1.3-1.9,1.6h-3.5h-3.5c-0.2,0-0.8-0.5-1.6-1.4c-0.8-0.9-1.4-1.6-1.9-2.1
		c-0.5-0.7-1.2-1.9-2.1-3.6c-0.9-1.7-1.4-2.8-1.4-3.3v-2.1c0-1.4-0.1-2.9-0.2-4.7c-0.1-1.7-0.2-3.5-0.2-5.4V358.2z"/>
</g>
</svg>
