<?xml version="1.0" encoding="utf-8"?>
<!-- Generator: Adobe Illustrator 18.1.1, SVG Export Plug-In . SVG Version: 6.00 Build 0)  -->
<svg version="1.1" id="Layer_1" xmlns="http://www.w3.org/2000/svg" xmlns:xlink="http://www.w3.org/1999/xlink" x="0px" y="0px"
	 viewBox="0 0 482 410.3" enable-background="new 0 0 482 410.3" xml:space="preserve">
<g>
	<g>
		<path fill="#E3E3E3" d="M88.2,141c0.1-1.8,0.1-3.2,0.1-4.2c0-0.6,0-1.8-0.1-3.6c-0.1-1.9-0.1-3.1-0.1-3.6c-0.3-0.3-1-0.7-2.1-1.1
			c-1.1-0.5-1.8-0.8-2.1-0.9c-0.7-0.3-1.9-0.7-3.5-1.3c-1.7-0.6-2.6-0.8-2.7-0.8H76c-0.8,0-1.8,0-3-0.1c-1.2-0.1-2.4-0.1-3.6-0.1h-6
			c-1.2,0-2.5,0-3.7,0.1c-1.2,0.1-2.4,0.1-3.3,0.1h-1.5c-0.3,0-0.9,0.1-1.9,0.2c-1,0.1-2,0.3-3.1,0.5c-1.1,0.2-2.2,0.5-3.2,0.7
			c-1,0.3-1.8,0.5-2.2,0.6l-10.4,4.2c-0.7,0.3-1.7,0.7-3,1.4c-1.3,0.6-2.6,1.3-4,2c-1.3,0.7-2.5,1.3-3.6,1.9c-1.1,0.6-1.7,0.9-1.9,1
			c-0.4,0.3-0.9,0.7-1.6,1.4c-0.6,0.6-1.3,1.3-2,1.9c-0.7,0.6-1.3,1.3-1.8,1.9c-0.5,0.6-0.8,1-0.9,1.1c0,0.1,0,0.8-0.1,2
			c-0.1,1.2-0.1,2.1-0.1,2.8c0,0.7,0,1.7,0.1,3.1c0.1,1.4,0.1,2.2,0.1,2.5c0.1,1.1,0.5,3.1,1.1,5.8c0.6,2.8,1.2,5.7,1.9,8.9
			c0.6,3.1,1.2,6.1,1.9,8.9c0.6,2.8,1.1,4.7,1.4,5.6c0,0.3,0.2,0.8,0.6,1.6c0.4,0.8,0.9,1.6,1.5,2.6c0.6,1,1,1.9,1.5,2.7
			c0.4,0.8,0.6,1.3,0.6,1.5c0.1,0.7,0.4,1.8,0.9,3.4c0.5,1.6,0.9,3.3,1.4,5.1c0.4,1.8,0.8,3.5,1.1,5c0.3,1.5,0.6,2.6,0.7,3.1
			c0.1,0.8,0.3,2.3,0.6,4.5c0.3,2.2,0.5,4.5,0.7,6.9c0.2,2.4,0.4,4.8,0.5,7c0.1,2.2,0.2,3.8,0.2,4.6h1.9c0-0.4,0-1.4,0.1-3
			c0.1-1.6,0.1-2.7,0.1-3.2c0-0.8,0.1-2,0.3-3.6c0.2-1.6,0.4-3.3,0.6-5.1c0.2-1.8,0.4-3.5,0.6-5c0.2-1.5,0.4-2.5,0.5-2.9
			c0.1-0.7,0.4-1.8,0.9-3.3c0.5-1.5,0.9-2.5,1.1-2.9c0.1-0.3,0.5-0.8,1-1.7c0.6-0.8,1.2-1.7,1.9-2.5c0.7-0.8,1.4-1.7,2-2.5
			c0.6-0.8,1.1-1.4,1.4-1.7c0.8-0.8,2.3-2.4,4.5-4.6c2.2-2.2,4.4-4.6,6.9-7c2.4-2.4,4.8-4.7,7-6.9c2.2-2.2,3.7-3.6,4.6-4.5
			c0.1,0,0.4,0,0.9-0.1c0.5-0.1,0.9-0.1,1.1-0.1c0.3,0,1,0.1,2.1,0.2c0.6,0.1,1.4,0.5,2.4,0.9c1,0.5,1.6,0.9,1.8,1.1
			c0.3,0.3,0.7,1.2,1.1,2.8c0.5,1.6,0.8,2.7,0.9,3.4c0,0.1,0,0.7,0.1,1.8c0.1,1,0.1,1.8,0.1,2.4c0,0.6,0,1.4-0.1,2.4
			c-0.1,1-0.1,1.6-0.1,1.8c0,0.4-0.3,1.4-0.8,3c-0.6,1.6-1,2.7-1.2,3.2c-0.3,0.7-0.8,1.8-1.7,3.4c-0.8,1.6-1.7,3.3-2.5,5.1
			c-0.8,1.8-1.7,3.5-2.5,5c-0.8,1.5-1.4,2.6-1.7,3.1c-0.1,0.3-0.5,0.7-0.9,1.1c-0.5,0.5-0.9,0.8-1.1,0.9c-0.3,0.3-1,0.7-2.1,1.1
			c-1.1,0.5-1.8,0.8-2.1,0.9h-2.1c-0.1-0.1-0.5-0.4-1.1-0.8c-0.6-0.4-1.3-0.9-2-1.4c-0.7-0.5-1.4-0.9-2-1.4c-0.6-0.4-1-0.6-1.1-0.6
			c-0.1,0-0.6,0-1.5-0.1c-0.8-0.1-1.4-0.1-1.7-0.1c-0.4,0-1,0-1.8,0.1c-0.8,0.1-1.2,0.1-1.4,0.1c-0.3,0.1-0.9,0.7-2,1.8
			s-1.8,1.8-2.2,2.4c-0.3,0.3-0.7,0.9-1.1,2c-0.5,1-0.8,1.8-0.9,2.2v2.1c0.1,0.3,0.4,0.7,0.9,1.1c0.5,0.5,0.9,0.8,1.1,0.9
			c0.6,0.3,1.6,0.7,3.2,1.3c1.6,0.6,2.6,0.8,3,0.8c0.1,0,1,0,2.7,0.1c1.7,0.1,2.8,0.1,3.5,0.1c0.8,0,2,0,3.6-0.1
			c1.6-0.1,2.5-0.1,2.6-0.1c0.3,0,1-0.3,2.1-0.8c1.1-0.6,1.8-1,2.1-1.3c0.3-0.3,0.8-0.8,1.7-1.6c0.8-0.8,1.7-1.6,2.5-2.5
			c0.8-0.9,1.7-1.7,2.5-2.5c0.8-0.8,1.4-1.4,1.7-1.8c0.1-0.1,0.4-0.5,0.8-1c0.4-0.6,0.8-1.2,1.2-1.9c0.4-0.7,0.8-1.4,1.2-2
			c0.4-0.6,0.7-1.1,0.8-1.4c0.1-0.4,0.4-1,0.9-1.8c0.5-0.8,0.9-1.6,1.4-2.5c0.4-0.9,0.8-1.7,1.1-2.5c0.3-0.8,0.6-1.3,0.7-1.6
			c0.3-0.7,0.6-1.7,1-2.9c0.4-1.3,0.9-2.6,1.4-4c0.5-1.4,0.9-2.6,1.2-3.6c0.3-1,0.5-1.7,0.5-2c0-0.1,0-1,0.1-2.6
			c0.1-1.6,0.1-2.7,0.1-3.4c0-0.8,0-2.1-0.1-3.8c-0.1-1.7-0.1-2.6-0.1-2.7c0-0.3-0.3-0.9-0.8-2c-0.6-1-1-1.8-1.2-2.2l-4.2-4.2
			c-0.3-0.1-1-0.4-2.1-0.9c-1.1-0.5-1.8-0.9-2.1-1.1c-0.1-0.6-0.2-0.9-0.2-1c0-0.1,0.1-0.5,0.2-1l8.3-10.4c0.3-0.4,0.6-1,1-1.9
			c0.4-0.8,0.9-1.7,1.4-2.6c0.5-0.9,0.9-1.7,1.2-2.4c0.3-0.7,0.5-1.2,0.5-1.5C88.1,143.8,88.1,142.8,88.2,141z M65.2,131.6
			c1.1,0,1.7,0.7,1.7,2.1c0,1.4-0.6,2.1-1.7,2.1c-1.1,0-1.7-0.7-1.7-2.1C63.5,132.3,64.1,131.6,65.2,131.6z M42.3,129.5
			c1.1,0,1.7,0.7,1.7,2.1c0,1.4-0.6,2.1-1.7,2.1c-1.1,0-1.7-0.7-1.7-2.1C40.6,130.2,41.2,129.5,42.3,129.5z M52.7,177.4l-6.2,4.2
			l-4.2,2.1c-0.1,0-0.6,0.1-1.2,0.2c-0.7,0.1-1.1,0.2-1.2,0.2c0-0.3,0-0.7,0.1-1.4c0.1-0.6,0.2-1,0.3-1.1c0.1-0.3,0.4-0.7,0.9-1.1
			c0.5-0.5,0.9-0.8,1.1-0.9c0.4-0.3,1.2-0.7,2.4-1.4c1.2-0.6,2.5-1.3,3.9-1.9c1.4-0.6,2.7-1.2,3.9-1.8c1.2-0.6,2-1,2.4-1.3h2.1
			L52.7,177.4z M73.6,146.8c-0.1,0.8-0.1,1.3-0.1,1.5c0,0.3-0.3,1.2-0.8,2.8c-0.6,1.6-1,2.7-1.2,3.4c-0.3,0.6-0.7,1.4-1.1,2.4
			c-0.5,1-0.8,1.6-0.9,1.8c-0.4,0.6-1.1,1.3-2,2.2c-0.9,0.9-1.8,1.8-2.7,2.7c-0.9,0.9-1.7,1.7-2.4,2.4c-0.7,0.7-1.1,1-1.2,1
			c-0.1,0-0.9,0.2-2.4,0.5c-1.5,0.3-3.2,0.8-5.2,1.3c-2,0.5-4.1,0.9-6.1,1.4c-2.1,0.4-3.7,0.8-5,1c-0.1,0-0.5,0-1,0.1
			c-0.6,0.1-0.9,0.1-1,0.1v-23.1c0-0.3-0.3-0.7-0.8-1.3c-0.6-0.6-1-0.8-1.2-0.8c-0.1,0-0.8,0.3-1.9,0.8c-1.1,0.6-1.9,1-2.3,1.3
			c-0.3,0.3-0.7,0.7-1.2,1.1c-0.6,0.5-0.8,0.8-0.8,0.9v31.3l-4.2-8.3c-0.3-0.6-0.7-1.6-1.1-3.2c-0.5-1.6-0.8-2.6-0.9-3
			c-0.1-0.4-0.3-1.2-0.5-2.4c-0.2-1.2-0.4-2.5-0.6-3.9c-0.2-1.4-0.4-2.7-0.6-3.9c-0.2-1.2-0.3-2-0.3-2.4c0-0.1,0-0.7-0.1-1.6
			c-0.1-0.9-0.1-1.5-0.1-1.8c0-0.4,0.1-1.4,0.2-2.9c0-0.1,0.3-0.4,0.8-0.9c0.6-0.5,1-0.9,1.2-1.1c0.6-0.4,1.6-1.1,3.2-2.2
			c1.6-1,2.6-1.7,3-2c0.4-0.3,1-0.6,1.9-1c0.8-0.4,1.7-0.9,2.6-1.4c0.9-0.5,1.7-0.9,2.4-1.3c0.7-0.3,1.2-0.5,1.5-0.5
			c0.3-0.1,0.9-0.3,1.9-0.5c1-0.2,2-0.4,3.1-0.6c1.1-0.2,2.2-0.4,3.2-0.6c1-0.2,1.8-0.3,2.2-0.3c0.1,0,0.7,0,1.8-0.1
			c1-0.1,1.8-0.1,2.4-0.1c0.6,0,1.4,0,2.4,0.1c1,0.1,1.6,0.1,1.8,0.1c0.3,0,0.8,0.1,1.6,0.3c0.8,0.2,1.6,0.4,2.5,0.6
			c0.9,0.2,1.7,0.4,2.5,0.6c0.8,0.2,1.4,0.4,1.8,0.5c0.3,0.1,1,0.5,2.1,0.9c1.1,0.5,1.8,0.9,2.1,1.1c0.3,0.3,0.7,0.7,1.2,1.1
			c0.6,0.5,0.8,0.8,0.8,0.9c0.1,1.5,0.2,2.5,0.2,2.9C73.7,145.3,73.7,146,73.6,146.8z M115.2,200.4l-2.1-8.3V190
			c-0.1-0.3-0.5-0.7-0.9-1.1c-0.5-0.5-0.9-0.8-1.1-0.9c-0.6-0.1-0.9-0.2-1-0.2c-0.1,0-0.5,0.1-1,0.2c-0.3,0.1-0.7,0.4-1.1,0.9
			c-0.5,0.5-0.8,0.9-0.9,1.1c-0.3,0.7-0.7,1.8-1.2,3.4c-0.6,1.6-0.8,2.5-0.8,2.8c0,0.4,0.2,1.3,0.6,2.7c0.4,1.4,0.9,2.9,1.5,4.6
			c0.6,1.7,1,3.2,1.5,4.6c0.4,1.4,0.6,2.3,0.6,2.7c0,0.1,0,0.7,0.1,1.8c0.1,1,0.1,1.8,0.1,2.4c0,0.6,0,1.4-0.1,2.4
			c-0.1,1-0.1,1.6-0.1,1.8c0,0.3-0.3,0.7-0.8,1.1c-0.6,0.5-1,0.8-1.2,0.9c-1.1,0.1-1.8,0.2-2.1,0.2c-0.3,0-1-0.1-2.1-0.2
			c-0.1,0-0.5-0.3-0.9-0.8c-0.5-0.6-0.9-1-1.1-1.2l-2.1-4.1c-0.1-0.4-0.3-1.2-0.5-2.3c-0.2-1.1-0.4-2.3-0.6-3.6s-0.4-2.6-0.6-3.8
			c-0.2-1.2-0.3-2.1-0.3-2.7v-6.2c-0.1-0.7-0.5-1.8-0.9-3.4c-0.5-1.6-0.9-2.5-1.1-2.8c0-0.1-0.3-0.2-0.8-0.3c-0.6-0.1-1-0.1-1.2-0.1
			c-0.3,0-0.7,0-1.1,0.1c-0.5,0.1-0.8,0.2-0.9,0.3c-0.3,0.7-0.5,1.8-0.7,3.3c-0.2,1.5-0.4,3.2-0.6,5c-0.2,1.8-0.4,3.5-0.5,5.1
			c-0.1,1.6-0.2,2.7-0.2,3.2c0,0.3,0.2,1.1,0.5,2.5c0.3,1.4,0.7,3,1.1,4.8c0.4,1.8,0.9,3.6,1.4,5.3c0.5,1.7,0.9,3.1,1.1,4
			c0.1,0.3,0.4,1,0.9,2.1c0.5,1.1,0.9,1.8,1.1,2.1c0.1,0.3,0.4,0.7,0.9,1.2c0.5,0.5,0.9,0.8,1.1,1l4.2,2.2h4.2
			c0.6-0.1,1.5-0.5,2.9-1.1c1.4-0.6,2.9-1.3,4.5-1.9c1.6-0.6,3.1-1.3,4.4-1.9c1.3-0.6,2.3-1.1,2.8-1.4v-6.3l-2.1-8.3L115.2,200.4z
			 M173.1,167.9c0.2-1.9,0.4-3.6,0.7-5.1c0.3-1.5,0.5-2.2,0.6-2.2h14.6c0.1,0,0.5-0.3,1-0.8c0.6-0.6,0.9-1,1-1.3
			c0.1-0.6,0.2-0.9,0.2-1c0-0.3-0.1-0.6-0.2-1c-0.1-0.1-0.7-0.4-1.8-0.9c-1-0.5-1.8-0.9-2.4-1.1l-6.2-2.1c-0.6-0.3-1.4-0.7-2.4-1.1
			c-1-0.5-1.6-0.8-1.8-0.9c-0.3-0.3-0.7-1.2-1.1-2.8c-0.5-1.6-0.8-2.7-0.9-3.4c-0.1-0.7-0.3-1.8-0.5-3.4s-0.4-3.3-0.6-5
			c-0.2-1.7-0.4-3.4-0.6-5s-0.3-2.7-0.3-3.2v-1.7c0-1,0-2-0.1-3.2c-0.1-1.2-0.1-2.3-0.1-3.4v-5.4c0-1.1,0-2.2,0.1-3.2
			c0.1-1,0.1-1.9,0.1-2.6v-1.3c0-0.3,0.2-1,0.6-2.3c0.4-1.3,0.9-2.6,1.4-4c0.5-1.4,0.9-2.7,1.4-4c0.4-1.3,0.7-2,0.8-2.3v-2.1
			c-0.3-0.7-0.9-2.1-2-4.2c-1-2.1-1.8-3.5-2.2-4.2c-0.1-0.3-0.5-0.7-1-1.1c-0.6-0.5-0.9-0.8-1-0.9c-0.1,0-0.5,0-0.9-0.1
			c-0.5-0.1-0.9-0.1-1.1-0.1c-0.3,0-1,0.1-2.1,0.2c-0.4,0.3-1.1,0.9-2.2,2c-1,1-1.7,1.8-2,2.2v1.9c0,0.8,0,1.8-0.1,2.8
			c-0.1,1-0.1,2-0.1,2.8v4.4c0,1,0,1.9,0.1,2.9c0.1,1,0.1,1.9,0.1,2.7v1.3c0.1,0.8,0.5,3,1.1,6.5c0.6,3.5,1.3,7.2,2,11.2
			c0.7,4,1.4,7.8,2,11.2c0.6,3.5,1,5.6,1.1,6.5c0,0.1,0,0.9,0.1,2.2c0.1,1.3,0.1,2.3,0.1,3c0,0.4,0,1.3-0.1,2.6
			c-0.1,1.3-0.1,2.2-0.1,2.6c-0.7,0.1-1.8,0.4-3.3,0.7c-1.5,0.3-3.2,0.7-5,1.1c-1.8,0.4-3.5,0.9-5.1,1.4c-0.7,0.2-1.3,0.4-1.8,0.5
			l-5-1.7c-0.6-0.3-1.4-0.7-2.4-1.1c-1-0.5-1.6-0.8-1.8-0.9c-0.3-0.3-0.7-1.2-1.1-2.8c-0.5-1.6-0.8-2.7-0.9-3.4
			c-0.1-0.7-0.3-1.8-0.5-3.4c-0.2-1.6-0.4-3.3-0.6-5c-0.2-1.7-0.4-3.4-0.6-5s-0.3-2.7-0.3-3.2v-1.7c0-1,0-2-0.1-3.2
			c-0.1-1.2-0.1-2.3-0.1-3.4v-5.4c0-1.1,0-2.2,0.1-3.2c0.1-1,0.1-1.9,0.1-2.6v-1.3c0-0.3,0.2-1,0.6-2.3c0.4-1.3,0.9-2.6,1.4-4
			c0.5-1.4,0.9-2.7,1.4-4c0.4-1.3,0.7-2,0.8-2.3v-2.1c-0.3-0.7-0.9-2.1-2-4.2c-1-2.1-1.8-3.5-2.2-4.2c-0.1-0.3-0.5-0.7-1-1.1
			c-0.6-0.5-0.9-0.8-1-0.9c-0.1,0-0.5,0-0.9-0.1c-0.5-0.1-0.9-0.1-1.1-0.1c-0.1,0-0.2,0-0.4,0c0,0,0-0.1,0-0.1
			c0.2-0.4,0.2-0.7,0.2-0.8h-3.8c-0.5,0.4-1.4,1.2-2.6,2.2c-1.2,1.1-2.5,2.2-3.8,3.4c-1.4,1.2-2.7,2.4-3.9,3.4
			c-1.2,1-2.1,1.7-2.5,2.2c-0.1,0.1-0.6,0.3-1.4,0.7c-0.8,0.4-1.4,0.7-1.8,0.9c-0.5,0.2-1.4,0.5-2.7,1c-1.3,0.4-2,0.6-2.1,0.6
			c-0.2,0-1,0-2.2,0.1c-1.3,0.1-2.2,0.1-2.9,0.1c-0.5,0-1.4,0-2.6-0.1c-1.2-0.1-1.8-0.1-1.9-0.1c-0.3,0-0.8-0.1-1.4-0.4
			c-0.6-0.3-1.2-0.6-1.9-1c-0.7-0.4-1.3-0.7-1.9-1c-0.6-0.3-1-0.6-1.2-0.8c-0.2-0.1-0.5-0.5-1-1c-0.4-0.6-0.9-1.2-1.4-1.9
			c-0.5-0.7-1-1.4-1.4-2c-0.5-0.6-0.8-1.1-1-1.4c-0.2-0.3-0.5-1.1-0.9-2.3c-0.4-1.2-0.6-2.1-0.7-2.5c-0.1-0.4-0.1-1.2,0.1-2.3
			c0.2-1.1,0.2-1.9,0.2-2.3c0.2,0,0.4,0,0.6-0.1c0.2-0.1,0.4-0.1,0.6-0.1c0.1,0,0.4,0.1,0.9,0.3c0.5,0.2,1,0.4,1.5,0.6
			c0.5,0.2,1,0.3,1.5,0.5c0.5,0.2,0.8,0.2,0.9,0.2c0.2,0,0.9,0,2,0.1c1.1,0.1,1.9,0.1,2.5,0.1c0.5,0,1.7-0.1,3.5-0.2
			c0.3-0.1,0.8-0.5,1.4-1c0.6-0.6,1.3-1.2,2-1.9c0.7-0.7,1.3-1.4,1.8-2c0.5-0.6,0.9-1.1,1.1-1.4c0-0.1,0-0.6,0.1-1.4
			c0.1-0.9,0.1-1.5,0.1-2.1c0-0.5,0-1.4-0.1-2.6c-0.1-1.2-0.1-1.8-0.1-1.9c0-0.1-0.2-0.3-0.6-0.7c-0.4-0.4-0.7-0.7-1-0.9
			c-0.6-0.5-1.6-1.2-2.8-2c-1.2-0.8-1.9-1.2-2-1.2c-0.1,0-0.7,0-1.9-0.1c-1.2-0.1-2-0.1-2.6-0.1c-0.6,0-1.6,0-2.9,0.1
			c-1.3,0.1-2,0.1-2.2,0.1c-0.2,0-0.7,0.2-1.5,0.6c-0.8,0.4-1.4,0.7-1.7,1l-3.2,3.2c-0.2,0.2-0.5,0.7-0.9,1.6
			c-0.4,0.9-0.6,1.4-0.7,1.6v1.8c0,0.9,0,1.7-0.1,2.6c-0.1,0.9-0.1,1.8-0.1,2.6v4c0,1,0,1.9,0.1,2.9c0.1,1,0.1,1.8,0.1,2.6v1.1
			c0,0.1,0.2,0.8,0.6,2c0.4,1.2,0.7,2.2,1,2.8c0.2,0.5,0.5,1.2,0.8,2c0.3,0.8,0.6,1.6,1,2.5c0.3,0.9,0.6,1.6,0.9,2.3
			c0.3,0.7,0.5,1.1,0.6,1.2l3.2,4.8l1.6,1.6c0.3,0.2,0.8,0.5,1.5,0.8c0.7,0.3,1.4,0.7,2.1,1.1c0.7,0.4,1.3,0.7,1.8,1
			c0.5,0.3,0.9,0.4,1,0.4h9.6c0.2,0,0.7-0.2,1.6-0.6c0.9-0.4,1.4-0.7,1.6-1l4.8-4.8l9.6-11.2c0.1-0.1,0.4-0.4,0.9-0.9
			c0,0.8,0,1.8-0.1,2.8c-0.1,1-0.1,2-0.1,2.8v4.4c0,1,0,1.9,0.1,2.9c0.1,1,0.1,1.9,0.1,2.7v1.3c0.1,0.8,0.5,3,1.1,6.5
			c0.6,3.5,1.3,7.2,2,11.2c0.7,4,1.4,7.8,2,11.2c0.6,3.5,1,5.6,1.1,6.5c0,0.1,0,0.9,0.1,2.2c0.1,1.3,0.1,2.3,0.1,3
			c0,0.4,0,1.3-0.1,2.6c-0.1,1.3-0.1,2.2-0.1,2.6c-0.7,0.1-1.8,0.4-3.3,0.7c-1.5,0.3-3.2,0.7-5,1.1c-1.8,0.4-3.5,0.9-5.1,1.4
			c-1.6,0.5-2.7,0.8-3.2,0.9c-0.3,0.1-0.7,0.4-1.4,0.7c-0.6,0.3-1.3,0.7-2,1.1c-0.7,0.4-1.3,0.9-1.9,1.4c-0.6,0.5-0.9,0.8-1,0.9
			c-0.1,1-0.2,1.6-0.2,1.9c0,0.3,0,0.7,0.1,1.3c0.1,0.6,0.1,0.9,0.1,1c0.1,0.3,0.5,0.7,0.9,1.1c0.5,0.5,0.9,0.8,1.1,0.9
			c0.1,0,0.5,0,1,0.1c0.6,0.1,1,0.1,1.2,0.1c0.3,0,0.9-0.1,1.9-0.2c0.1-0.1,0.4-0.5,0.8-1c0.4-0.6,0.8-1.2,1.2-2
			c0.4-0.8,0.8-1.5,1.2-2.1c0.4-0.6,0.7-1,0.8-1.1c0.3-0.3,0.9-0.6,2-1c1-0.4,1.8-0.8,2.2-1h2.1c0.1,0.1,0.5,0.5,1,0.9
			c0.6,0.5,0.9,0.9,1,1.1c0.3,0.3,0.7,1,1.1,2.1c0.5,1.1,0.8,1.8,0.9,2.1c0,1.3,0,3.5-0.1,6.7c-0.1,3.2-0.1,6.6-0.1,10.2
			c0,3.5,0,6.8,0.1,9.9c0.1,3.1,0.1,5.3,0.1,6.6c0,1.3,0.1,3.3,0.3,6.2c0.2,2.9,0.4,6,0.6,9.4c0.2,3.3,0.4,6.5,0.6,9.5
			c0.2,3,0.4,5,0.5,6.1c0.1,0.4,0.4,1.1,0.9,2.2c0.5,1,0.9,1.7,1.1,2c0.4,0.1,0.8,0.2,1,0.2c0.1,0,0.5-0.1,1-0.2
			c0.3-0.1,0.7-0.4,1.1-0.9c0.5-0.5,0.8-0.9,0.9-1.1v-14.6c0-0.8-0.1-3-0.4-6.5c-0.3-3.5-0.5-7.2-0.7-11.2c-0.2-4-0.4-7.8-0.6-11.2
			c-0.2-3.5-0.3-5.6-0.3-6.5c0-1.4,0.1-3.2,0.2-5.3c0.1-2.2,0.3-4.2,0.5-6.1c0.2-1.9,0.4-3.6,0.7-5.1c0.3-1.5,0.5-2.2,0.6-2.2h3.3
			c0,0.3,0,0.6,0.1,1c0.1,0.6,0.1,0.9,0.1,1c0.1,0.3,0.5,0.7,0.9,1.1c0.5,0.5,0.9,0.8,1.1,0.9c0.1,0,0.5,0,1,0.1
			c0.6,0.1,1,0.1,1.2,0.1c0.3,0,0.9-0.1,1.9-0.2c0.1-0.1,0.4-0.5,0.8-1c0.4-0.6,0.8-1.2,1.2-2c0.2-0.4,0.4-0.8,0.7-1.1h2.1
			c0.1,0,0.5-0.3,1-0.8c0.6-0.6,0.9-1,1-1.3c0.1-0.6,0.2-0.9,0.2-1c0-0.1,0-0.2,0-0.4c0.6-0.3,1-0.5,1.3-0.7h2.1
			c0.1,0.1,0.5,0.5,1,0.9c0.6,0.5,0.9,0.9,1,1.1c0.3,0.3,0.7,1,1.1,2.1c0.5,1.1,0.8,1.8,0.9,2.1c0,1.3,0,3.5-0.1,6.7
			c-0.1,3.2-0.1,6.6-0.1,10.2c0,3.5,0,6.8,0.1,9.9c0.1,3.1,0.1,5.3,0.1,6.6c0,1.3,0.1,3.3,0.3,6.2c0.2,2.9,0.4,6,0.6,9.4
			c0.2,3.3,0.4,6.5,0.6,9.5c0.2,3,0.4,5,0.5,6.1c0.1,0.4,0.4,1.1,0.9,2.2c0.5,1,0.9,1.7,1.1,2c0.4,0.1,0.8,0.2,1,0.2
			c0.1,0,0.5-0.1,1-0.2c0.3-0.1,0.7-0.4,1.1-0.9c0.5-0.5,0.8-0.9,0.9-1.1v-14.6c0-0.8-0.1-3-0.4-6.5c-0.3-3.5-0.5-7.2-0.7-11.2
			c-0.2-4-0.4-7.8-0.6-11.2c-0.2-3.5-0.3-5.6-0.3-6.5c0-1.4,0.1-3.2,0.2-5.3C172.8,171.9,172.9,169.9,173.1,167.9z M104.4,62.8
			c0.9,0,1.3,0.5,1.3,1.6c0,1.1-0.4,1.6-1.3,1.6c-0.9,0-1.3-0.5-1.3-1.6C103.1,63.4,103.5,62.8,104.4,62.8z M89.5,70.4
			c0.2-0.6,0.3-1,0.6-1.1c0.1-0.1,0.8-0.3,2-0.7c1.2-0.4,2.2-0.7,2.8-0.9c0.5-0.2,1.6-0.5,3.2-0.9c1.6-0.4,2.7-0.6,3.2-0.7
			c0,0.1,0,0.3,0.1,0.7c0.1,0.4,0.1,0.7,0.1,0.9c0,0.2-0.1,0.7-0.2,1.6c-0.1,0.2-0.3,0.5-0.7,1c-0.4,0.4-0.7,0.6-0.9,0.6
			c-0.3,0-1,0.1-2,0.2c-1,0.1-2.1,0.2-3.2,0.2c-1.1,0.1-2.2,0.1-3.2,0.2c-1,0.1-1.7,0.1-2,0.1C89.2,71.4,89.3,71,89.5,70.4z
			 M263.6,183.9c-0.1-0.1-1-0.4-2.6-0.9c-1.6-0.5-2.8-0.9-3.6-1.1c-0.6-0.1-1.3-0.3-2.2-0.6c-0.9-0.3-1.8-0.5-2.7-0.7
			c-0.9-0.2-2-0.4-3.4-0.7c-0.8,0.3-2,1.2-3.5,2.7c-1.5,1.5-2.4,2.7-2.7,3.5c0-0.3-0.2-0.7-0.5-1.4c-0.3-0.6-0.8-1.3-1.2-2
			c-0.5-0.7-1-1.3-1.5-1.9c-0.5-0.6-0.8-0.9-0.9-1c-1-0.1-1.6-0.2-1.9-0.2c-0.3,0-0.7,0-1.2,0.1c-0.6,0.1-0.9,0.1-1,0.1
			c-0.6,0.1-1.4,0.5-2.4,0.9c-1,0.5-1.6,0.9-1.8,1.1c-0.1,1-0.2,1.6-0.2,1.9c0,0.3,0,0.7,0.1,1.3c0.1,0.6,0.1,0.9,0.1,1
			c0.1,0.4,0.4,1.4,0.9,3c0.5,1.6,0.9,2.7,1.1,3.2c0.1,0.3,0.5,1,1.1,2.3c0.6,1.3,1.3,2.6,2,4.1c0.7,1.5,1.4,2.8,2,4
			c0.4,0.8,0.7,1.3,0.9,1.7c-0.5,0.5-1.1,0.9-1.6,1.4c-1.8,1.6-3.5,3.1-5.1,4.4c-1.6,1.3-2.7,2.3-3.2,2.8c-0.1,0.1-0.7,0.5-1.8,0.9
			c-1,0.5-1.8,0.9-2.4,1.1c-0.7,0.3-1.9,0.7-3.5,1.3c-1.7,0.6-2.6,0.8-2.7,0.8c-0.3,0-1.2,0-2.9,0.1c-1.7,0.1-2.9,0.1-3.7,0.1
			c-0.7,0-1.8,0-3.3-0.1c-1.5-0.1-2.4-0.1-2.5-0.1c-0.4,0-1-0.2-1.8-0.5c-0.8-0.3-1.6-0.8-2.5-1.3c-0.9-0.5-1.7-0.9-2.5-1.4
			c-0.8-0.4-1.3-0.8-1.6-1c-0.3-0.1-0.7-0.6-1.2-1.4c-0.6-0.8-1.1-1.6-1.8-2.5c-0.6-0.9-1.2-1.8-1.9-2.6c-0.6-0.8-1.1-1.5-1.4-1.9
			c-0.3-0.4-0.7-1.4-1.1-3c-0.5-1.6-0.8-2.7-0.9-3.2c-0.1-0.6-0.1-1.6,0.1-3c0.2-1.5,0.3-2.5,0.3-3c0.3,0,0.6,0,0.8-0.1
			c0.3-0.1,0.6-0.1,0.8-0.1c0.1,0,0.5,0.1,1.1,0.4c0.6,0.3,1.3,0.5,2,0.7c0.7,0.2,1.4,0.4,2,0.6c0.6,0.2,1,0.3,1.1,0.3
			c0.3,0,1.1,0,2.6,0.1c1.5,0.1,2.5,0.1,3.2,0.1c0.7,0,2.2-0.1,4.6-0.2c0.4-0.1,1-0.6,1.9-1.4c0.8-0.8,1.7-1.6,2.6-2.5
			c0.9-0.9,1.7-1.8,2.4-2.6c0.7-0.8,1.2-1.5,1.5-1.9c0-0.1,0-0.8,0.1-1.9c0.1-1.1,0.1-2,0.1-2.7c0-0.7,0-1.8-0.1-3.3
			c-0.1-1.5-0.1-2.4-0.1-2.5c0-0.1-0.3-0.4-0.8-0.9c-0.6-0.5-1-0.9-1.2-1.1c-0.8-0.7-2-1.6-3.6-2.6c-1.6-1-2.5-1.6-2.6-1.6
			c-0.1,0-1,0-2.5-0.1c-1.5-0.1-2.6-0.1-3.3-0.1c-0.8,0-2.1,0-3.7,0.1c-1.7,0.1-2.6,0.1-2.9,0.1c-0.3,0-0.9,0.3-2,0.8
			c-1,0.6-1.8,1-2.2,1.2l-4.2,4.2c-0.3,0.3-0.7,1-1.1,2.1c-0.5,1.1-0.8,1.8-0.9,2.1v2.3c0,1.1,0,2.3-0.1,3.4
			c-0.1,1.2-0.1,2.3-0.1,3.4v5.2c0,1.2,0,2.5,0.1,3.7c0.1,1.2,0.1,2.4,0.1,3.3v1.5c0,0.1,0.3,1,0.8,2.6c0.6,1.6,1,2.8,1.2,3.6
			c0.3,0.7,0.6,1.6,1,2.6c0.4,1,0.8,2.1,1.2,3.2c0.4,1.1,0.8,2.1,1.1,3c0.3,0.9,0.6,1.4,0.7,1.6l4.2,6.2l2.1,2.1
			c0.4,0.3,1.1,0.7,2,1.1c0.9,0.4,1.8,0.9,2.7,1.4c0.9,0.5,1.7,0.9,2.4,1.3c0.7,0.4,1.1,0.5,1.2,0.5H218c0.3,0,1-0.3,2.1-0.8
			c1.1-0.6,1.8-1,2.1-1.3l6.2-6.3l11.7-13.6c0.2,0.6,0.3,1.3,0.4,1.9c0.1,0.8,0.2,1.3,0.2,1.6c0,1.4,0,3.9,0.1,7.4
			c0.1,3.5,0.1,7.3,0.1,11.2c0,4,0,7.8-0.1,11.4c-0.1,3.5-0.1,6-0.1,7.4l4.2,4.2c0.3-0.1,0.7-0.5,1.1-0.9c0.5-0.5,0.8-0.9,0.9-1.1
			v-8.3c0-0.3,0.3-1,1-2.1c0.7-1.1,1-1.8,1-2.1v-6.3l-1.7-20.4c0.1,0.2,0.4,0.5,0.7,0.8c0.6,0.6,1,0.8,1.2,0.8v-8.3
			c-0.3,0.4-0.7,1.4-1.2,3c-0.4,1.1-0.6,2-0.8,2.6l-0.3-3.4v-1.3c0-0.8,0-1.7-0.1-2.7c-0.1-0.7-0.1-1.4-0.1-2c0.3-0.3,0.7-0.7,1-1
			c0.8-0.8,1.3-1.3,1.5-1.6c0.1-0.1,0.3-0.5,0.5-1c0.2-0.6,0.3-0.9,0.3-1h-3.3v-0.4c0-0.8,0-1.7,0.1-2.5c0.1-0.8,0.1-1.5,0.1-2.1v-1
			c0-0.3,0.3-0.9,0.8-2c0.6-1,1-1.8,1.2-2.2c0.3-0.3,0.7-0.7,1.1-1.3c0.5-0.6,0.8-0.8,0.9-0.8c1.1-0.1,1.8-0.2,2.1-0.2
			c0.3,0,1,0.1,2.1,0.2c0.3,0.1,0.7,0.5,1.1,0.9c0.5,0.5,0.8,0.9,0.9,1.1l2.1,6.3c0.3,0.7,0.7,1.6,1.1,2.6c0.5,1,0.8,1.6,0.9,1.6
			c0.1,0.1,0.6,0.2,1.5,0.3c0.8,0.1,1.5,0.1,1.9,0.1c0.4,0,1,0,1.8-0.1c0.8-0.1,1.1-0.2,1.1-0.3c0.1-0.1,0.4-1,0.9-2.6
			c0.5-1.6,0.9-2.8,1.1-3.6v-2.1c-0.6-0.6-1.6-1.7-3.1-3.3C265.2,185.2,264.2,184.2,263.6,183.9z M209.7,175.4
			c1.1,0,1.7,0.7,1.7,2.1c0,1.4-0.6,2.1-1.7,2.1c-1.1,0-1.7-0.7-1.7-2.1C208,176.1,208.6,175.4,209.7,175.4z M190.2,185.2
			c0.2-0.8,0.4-1.3,0.7-1.5c0.1-0.1,1-0.4,2.6-0.9c1.6-0.5,2.8-0.9,3.6-1.1c0.7-0.3,2.1-0.7,4.2-1.1c2.1-0.5,3.5-0.8,4.2-0.9
			c0,0.1,0,0.5,0.1,0.9c0.1,0.5,0.1,0.9,0.1,1.1c0,0.3-0.1,1-0.2,2.1c-0.1,0.3-0.5,0.7-0.9,1.3c-0.5,0.6-0.9,0.8-1.1,0.8
			c-0.4,0-1.3,0.1-2.6,0.2c-1.3,0.1-2.7,0.2-4.2,0.3c-1.5,0.1-2.8,0.1-4.2,0.2c-1.3,0.1-2.2,0.1-2.6,0.1
			C189.9,186.5,190,186,190.2,185.2z M309,229.6c0-0.1,0-0.6,0.1-1.4c0.1-0.8,0.1-1.4,0.1-1.8c0-0.3,0-0.8-0.1-1.7
			c-0.1-0.8-0.1-1.3-0.1-1.5c0-0.3-0.3-1-0.9-2.1c-0.6-1.1-1-1.8-1.1-2.1c-0.1-0.6-0.3-1.5-0.6-2.7c-0.3-1.3-0.5-2.5-0.7-3.9
			c-0.2-1.3-0.4-2.5-0.5-3.6c-0.1-1.1-0.2-1.9-0.2-2.3v-2.1c0-1.4,0-3-0.1-4.8c-0.1-1.8-0.1-3.6-0.1-5.4v-7.5c0-1.7,0-3.4,0.1-5.2
			c0.1-1.8,0.1-3.5,0.1-5v-3.3c0.3-0.3,0.9-0.7,2-1.3c1-0.6,1.8-0.8,2.2-0.8c0.6,0,1.6-0.1,3-0.2c1.5-0.1,3.1-0.2,4.8-0.3
			c1.7-0.1,3.3-0.1,4.8-0.2c1.5-0.1,2.5-0.1,3-0.1c0-0.4-0.3-0.8-1-1.3c-0.1-0.1-1-0.4-2.6-0.9c-1.6-0.5-2.8-0.9-3.6-1.1
			c-0.3,0-0.8-0.1-1.6-0.3c-0.8-0.2-1.6-0.4-2.6-0.6c-1-0.2-1.9-0.4-2.7-0.6c-0.8-0.2-1.3-0.4-1.5-0.5l-2.1-2.1
			c-0.3-0.4-0.7-1.1-1.2-2.2c-0.6-1-0.8-1.7-0.8-2c-0.1-0.4-0.3-1.6-0.5-3.4c-0.2-1.9-0.4-3.9-0.6-5.9c-0.2-2.1-0.4-4.1-0.6-5.9
			c-0.2-1.9-0.3-3-0.3-3.4c0-0.6-0.1-1.5-0.3-2.9c-0.2-1.4-0.4-2.9-0.6-4.5c-0.2-1.6-0.4-3.1-0.6-4.4c-0.2-1.3-0.4-2.3-0.5-2.8V44
			c0-0.1,0.1-0.9,0.2-2.4c0.1-1.5,0.3-3.1,0.5-4.8c0.2-1.7,0.4-3.5,0.7-5.3c0.3-1.8,0.5-3.2,0.6-4.2c0-0.4,0.1-1.1,0.3-2.1
			c0.2-1,0.4-2,0.6-3.1c0.2-1.1,0.4-2.2,0.6-3.1c0.2-1,0.4-1.7,0.5-2.1c0.1-0.7,0.5-1.8,1-3.4c0.6-1.6,0.9-2.5,1-2.8
			c0.1-0.3,0.4-0.7,0.9-1.1c0.5-0.5,0.9-0.8,1.1-0.9c0.1,0,0.5,0,1-0.1c0.6-0.1,1-0.1,1.2-0.1c0.3,0,0.9,0.1,1.9,0.2
			c0.3,0.1,0.7,0.5,1.4,1c0.6,0.6,1.2,1.2,1.9,1.9c0.6,0.7,1.2,1.4,1.8,2c0.6,0.6,1,1.1,1.2,1.4c0.1,0.3,0.4,1.2,0.9,2.8
			c0.5,1.6,0.9,2.7,1.1,3.4c0,0.3,0.1,0.8,0.3,1.7c0.2,0.8,0.4,1.8,0.6,2.9c0.2,1.1,0.4,2.2,0.6,3.3c0.2,1.1,0.4,1.9,0.5,2.5
			c0.1,0.8,0.3,1.9,0.6,3.3c0.3,1.4,0.5,2.7,0.7,4.1c0.2,1.3,0.4,2.5,0.5,3.4c0.1,1,0.2,1.5,0.2,1.7v1.9c0,1,0,2.2,0.1,3.6
			c0.1,1.5,0.1,3,0.1,4.5v6.9c0,1.5,0,3-0.1,4.5c-0.1,1.5-0.1,2.7-0.1,3.9v1.9c0,0.7-0.1,1.9-0.3,3.6c-0.2,1.7-0.4,3.6-0.6,5.6
			c-0.2,2-0.4,3.9-0.6,5.7c-0.2,1.8-0.4,3.1-0.5,3.8c0,0.4-0.2,1.5-0.6,3.1c-0.4,1.7-0.9,3.4-1.4,5.3c-0.5,1.9-0.9,3.6-1.4,5.2
			c-0.4,1.6-0.7,2.6-0.8,3c0,0.3,0,0.8-0.1,1.5c-0.1,0.7-0.1,1.1-0.1,1.3c0.1,0,0.5-0.1,1.1-0.2c0.6-0.1,1-0.3,1.1-0.4
			c0.3-0.1,0.7-0.5,1.2-1c0.6-0.6,1.2-1.2,1.9-1.9c0.7-0.7,1.3-1.4,1.9-2c0.6-0.6,1-1.1,1.2-1.4l2.1-4.2c0.1-0.6,0.4-1.5,0.9-2.7
			c0.5-1.3,0.9-2.5,1.4-3.9c0.4-1.3,0.8-2.5,1.1-3.6c0.3-1.1,0.6-1.9,0.7-2.3c0.1-0.6,0.3-1.4,0.6-2.4c0.3-1,0.5-2.1,0.7-3.2
			c0.2-1.1,0.4-2.1,0.5-3c0.1-0.9,0.2-1.5,0.2-1.8v-1.5c0-1,0-2,0.1-3.1c0.1-1.1,0.1-2.2,0.1-3.3v-5.4c0-1.1,0-2.2-0.1-3.2
			c-0.1-1-0.1-2-0.1-2.8v-1.5c0-0.6-0.2-1.9-0.5-4.2c-0.3-2.2-0.8-4.7-1.2-7.3c-0.5-2.6-0.9-5.2-1.4-7.8c-0.4-2.6-0.8-4.5-1-5.7
			c-0.1-0.8-0.4-2-0.8-3.6c-0.4-1.6-0.8-3.3-1.2-5.1c-0.4-1.8-0.8-3.5-1.2-5c-0.4-1.5-0.7-2.5-0.8-2.9c-0.3-0.7-0.9-2.1-2-4.2
			c-1-2.1-1.8-3.5-2.2-4.2c-0.3-0.4-0.9-1.1-2-2.2c-1-1-1.8-1.7-2.2-2c-0.6,0-1.8,0-3.6-0.1C313.9,0,312.7,0,312.1,0
			c-1,0-2.4,0-4.3,0.1c-1.9,0.1-2.9,0.1-3,0.1c-0.3,0-1,0.3-2.1,0.8c-1.1,0.6-1.8,1-2.1,1.3c-0.1,0.3-0.8,1.2-1.9,2.7
			c-1.1,1.5-1.9,2.7-2.3,3.5l-2.1,4.2c-0.3,0.7-0.6,1.9-1,3.5c-0.4,1.7-0.8,3.4-1.2,5.1c-0.4,1.7-0.8,3.4-1.1,4.9
			c-0.3,1.5-0.6,2.6-0.7,3.1c-0.1,0.7-0.3,1.9-0.5,3.8c-0.2,1.8-0.4,3.7-0.6,5.7c-0.2,2-0.4,3.9-0.6,5.6c-0.2,1.7-0.3,3-0.3,3.6v2.1
			c0,1.3,0,2.7-0.1,4.4c-0.1,1.7-0.1,3.3-0.1,5v8.1c0,1.7,0,3.3,0.1,5c0.1,1.7,0.1,3.2,0.1,4.6v2.1c0,0.4,0.1,1.6,0.2,3.6
			c0.1,2,0.3,4.2,0.5,6.7c0.2,2.4,0.4,4.8,0.7,7.2c0.3,2.4,0.5,4.2,0.6,5.4c0.1,1.8,0.4,4.4,0.9,7.8c0.5,3.4,0.9,6.9,1.4,10.4
			c0.4,3.5,0.8,6.8,1.1,9.7c0.3,2.9,0.6,4.7,0.7,5.4c0,0.4,0.2,1.6,0.6,3.4c0.4,1.9,0.9,3.9,1.4,5.9c0.5,2.1,0.9,4.1,1.4,5.9
			c0.4,1.9,0.7,3,0.8,3.4c0,0.1,0,0.6,0.1,1.4c0.1,0.8,0.1,1.4,0.1,1.8c0,0.3,0,0.8-0.1,1.6c-0.1,0.8-0.1,1.3-0.1,1.6
			c-0.3-0.1-1-0.4-2.1-0.9c-1.1-0.5-1.8-0.9-2.1-1.1c-0.3-0.1-1-0.7-2.3-1.6c-1.2-0.9-2.6-1.8-4-2.7c-1.4-0.9-2.7-1.8-4-2.6
			s-2-1.3-2.3-1.5c-0.1,0-0.5,0-0.9-0.1c-0.5-0.1-0.9-0.1-1.1-0.1c-0.3,0-1,0.1-2.1,0.2c-0.4,0.3-1.1,0.9-2.2,2c-1,1-1.7,1.8-2,2.2
			c0,0.1-0.2,0.6-0.5,1.5c-0.3,0.8-0.8,1.8-1.2,2.9c-0.5,1.1-0.9,2.2-1.4,3.3c-0.4,1.1-0.8,2-1,2.7c-0.3,0.8-0.7,2.1-1.2,3.6
			c-0.6,1.6-0.8,2.5-0.8,2.6c0,0.3,0.3,0.7,0.8,1.3c0.6,0.6,1,0.8,1.2,0.8c0.1-0.4,0.6-1,1.4-1.9c0.8-0.8,1.6-1.7,2.5-2.6
			c0.9-0.9,1.8-1.7,2.6-2.4c0.8-0.7,1.5-1.2,1.9-1.5c0.1-0.1,0.7-0.2,1.8-0.3c1-0.1,1.8-0.1,2.4-0.1c0.6,0,1.4,0,2.4,0.1
			c1,0.1,1.6,0.2,1.8,0.3c0.8,0.4,1.8,1.1,3,2.1c1.2,1,2.3,2,3.4,3.1c1.1,1.1,2,2.2,2.8,3.1c0.8,1,1.1,1.7,1.1,2.1v27.1
			c-0.4-0.4-1.1-1.2-2.1-2.4c-1-1.2-2-2.5-3.1-3.9c-1.1-1.4-2.2-2.7-3.1-3.9c-1-1.2-1.7-2-2.1-2.4c-0.4-0.6-1.1-1.4-2.2-2.4
			c-1-1-1.7-1.6-2-1.8c-0.3-0.1-0.7-0.3-1.2-0.4c-0.6-0.1-1-0.2-1.2-0.2c0,0.1,0,0.6,0.1,1.4c0.1,0.8,0.2,1.2,0.3,1.4l4.2,8.3
			l4.2,10.4l6.2,14.6c0,0.3,0.1,0.8,0.3,1.6c0.2,0.8,0.4,1.6,0.6,2.6c0.2,1,0.4,1.9,0.6,2.7s0.4,1.3,0.5,1.5
			c0.1,0.3,0.4,0.7,0.9,1.3c0.5,0.6,0.9,0.8,1.1,0.8h8.3c0.3,0,0.7-0.3,1.1-0.8C308.5,230.3,308.9,229.9,309,229.6z M296.5,83.6
			c-0.3,0.1-0.5,0-0.7-0.5c-0.2-0.5-0.3-1-0.3-1.6c0-0.6,0.1-1.1,0.3-1.6c0.2-0.5,0.4-0.7,0.7-0.5c0.7,0.3,1,1,1,2.1
			C297.5,82.6,297.2,83.3,296.5,83.6z M269.4,160.8c1.1,0,1.7-0.7,1.7-2.1c0-1.4-0.6-2.1-1.7-2.1c-1.1,0-1.7,0.7-1.7,2.1
			C267.8,160.1,268.3,160.8,269.4,160.8z M332.8,137.7c-0.5,5.7-0.8,9.9-0.9,12.5v2.9c0,1.5,0,3.4-0.1,5.5c-0.1,2.2-0.1,4.3-0.1,6.6
			v11.2c0,2.5,0,5,0.1,7.5c0.1,2.5,0.1,4.7,0.1,6.7v3.3c0,1.3,0.1,2.8,0.3,4.7c0.2,1.9,0.4,3.7,0.6,5.5c0.2,1.8,0.4,3.3,0.6,4.6
			c0.2,1.3,0.4,1.9,0.5,1.9h2.1v18.7c0,0.1,0.3,0.5,0.8,0.9c0.6,0.5,1,0.9,1.2,1.1c0.6,0.1,0.9,0.2,1,0.2c0.1,0,0.5-0.1,1-0.2
			c0.6-0.4,1.4-1.1,2.4-2.2c1-1,1.6-1.7,1.8-2c0-0.1,0-0.8,0.1-2.1c0.1-1.3,0.1-2.2,0.1-2.9c0-0.7,0-1.7-0.1-3
			c-0.1-1.3-0.1-2.1-0.1-2.4s-0.2-1-0.6-2.3c-0.4-1.3-0.9-2.6-1.5-4c-0.6-1.4-1-2.7-1.5-4c-0.4-1.3-0.6-2-0.6-2.3
			c-0.1-0.6-0.3-1.6-0.6-3c-0.3-1.5-0.5-2.9-0.7-4.5c-0.2-1.5-0.4-3-0.5-4.4c-0.1-1.4-0.2-2.3-0.2-2.7V186c0-2.2,0-4.8-0.1-7.7
			c-0.1-2.9-0.1-5.8-0.1-8.8v-12.9c0-2.6,0-5.2,0.1-7.6c0.1-2.4,0.1-4.5,0.1-6.4v-2.9c0-0.8,0.3-3,0.9-6.5c0.6-3.5,1.3-7.2,2-11.2
			c0.7-4,1.4-7.8,2.1-11.2c0.7-3.5,1.1-5.6,1.2-6.5l2.1-14.6c0.1-0.7,0.3-1.7,0.5-3c0.2-1.3,0.4-2.6,0.6-4c0.2-1.3,0.4-2.5,0.6-3.5
			c0.2-1,0.3-1.7,0.3-2l4.2-16.7c0.1-0.6,0.3-1.4,0.5-2.5c0.2-1.1,0.4-2.2,0.6-3.3c0.2-1.1,0.4-2.1,0.6-2.9c0.2-0.8,0.3-1.4,0.3-1.7
			c0-0.1,0-0.7,0.1-1.6c0.1-0.9,0.1-1.6,0.1-2c0-0.3-0.1-1.2-0.2-2.7c-0.1-0.4-0.7-1.1-1.8-2.2c-1-1-1.8-1.7-2.4-2
			c-1-0.1-1.6-0.2-1.9-0.2c-0.3,0-0.7,0-1.2,0.1c-0.6,0.1-0.9,0.1-1,0.1c-0.3,0.1-1,0.5-2.1,0.9c-1.1,0.5-1.8,0.9-2.1,1.1
			c-0.4,2.8-0.9,7-1.5,12.6c-0.6,5.6-1.2,12-1.9,19.1c-0.7,7.1-1.4,14.6-2.2,22.5c-0.8,7.9-1.5,15.4-2.2,22.5
			C333.9,125.6,333.3,132,332.8,137.7z M359,169.1c0.7-0.3,1-1,1-2.1c0-1.1-0.3-1.8-1-2.1c-0.3-0.1-0.5,0-0.7,0.5
			c-0.2,0.5-0.3,1-0.3,1.6c0,0.6,0.1,1.1,0.3,1.6C358.5,169.1,358.7,169.2,359,169.1z M315.2,200.4c-1.1,0-1.7,0.7-1.7,2.1
			c0,1.4,0.6,2.1,1.7,2.1c1.1,0,1.7-0.7,1.7-2.1C316.9,201.1,316.4,200.4,315.2,200.4z M79.9,30.8c0.6,0.2,1.2,0.3,1.6,0.3v-1.9
			h-3.2C78.8,30,79.3,30.5,79.9,30.8z M54.6,37.4c-0.3,0.3-0.4,0.5-0.5,0.8c-0.1,0.3,0,0.5,0.2,0.6c0.5,0.2,1,0.1,1.4-0.2
			c0.4-0.4,0.5-0.8,0.2-1.4c-0.1-0.2-0.3-0.3-0.6-0.2C55.1,37,54.9,37.1,54.6,37.4z M30.4,64.3c0.2,0.2,0.5,0.7,0.9,1.6
			c0.4,0.9,0.6,1.4,0.7,1.6c0,0.9,0,2.3-0.1,4.5c-0.1,2.1-0.1,4.4-0.1,6.7c0,2.3,0,4.6,0.1,6.7c0.1,2.1,0.1,3.6,0.1,4.5
			c0,0.2,0.1,0.6,0.2,1.2c0.1,0.6,0.2,1.2,0.4,1.8c0.2,0.6,0.3,1.3,0.6,1.9c0.2,0.6,0.4,1.1,0.5,1.4c0.1,0.3,0.3,0.8,0.6,1.4
			c0.3,0.6,0.6,1.2,1,1.9c0.4,0.7,0.7,1.3,1,1.9c0.3,0.6,0.5,1,0.6,1.2c0.2,0.5,0.7,1.1,1.6,1.9c0.9,0.8,1.4,1.3,1.6,1.4h4.8
			c0.1,0,0.3-0.4,0.7-1.3c0.4-0.8,0.7-1.5,0.9-2.1c0.2-0.3,0.5-1.1,0.9-2.3c0.4-1.2,0.6-2.1,0.7-2.5l-6.4-19.2
			c-0.1-0.2-0.3-0.7-0.7-1.5c-0.4-0.8-0.7-1.6-1.1-2.5c-0.4-0.9-0.7-1.7-1-2.5c-0.3-0.8-0.4-1.3-0.4-1.5c0-0.3-0.1-1.5-0.2-3.6
			c-0.1-2.1-0.2-4.5-0.4-7.2c-0.2-2.7-0.3-5.5-0.6-8.2c-0.2-2.8-0.4-5-0.5-6.6v-8c0-0.5,0.3-1,1-1.3c0.7-0.3,1.3-0.5,1.8-0.6
			c1.1-0.3,2.3-0.6,3.7-0.9c1.4-0.3,2.4-0.4,3-0.4L64,32.3c0.2,0,0.5,0,0.9-0.1c0,0.6,0,1.3,0,2c-0.1,3-0.1,6.4-0.2,10.2
			c-0.1,3.8-0.2,7.8-0.3,11.9c-0.1,4.2-0.2,8.2-0.3,11.9c-0.1,3.8-0.2,7.2-0.3,10.3c-0.1,3-0.2,5.3-0.2,6.7v8
			c0.2,0.2,0.7,0.5,1.6,0.9c0.9,0.4,1.4,0.6,1.6,0.7h1.6c0.2-0.1,0.5-0.3,1-0.7c0.4-0.4,0.6-0.7,0.6-0.9c0.1-0.3,0.2-1,0.3-2.1
			c0.1-1.1,0.2-2.2,0.4-3.5c0.2-1.3,0.3-2.5,0.5-3.5c0.2-1.1,0.3-1.8,0.4-2.1c0.2-0.3,0.7-0.9,1.5-1.8c0.8-0.9,1.4-1.3,1.7-1.4
			c0.2,0.1,0.5,0.3,0.9,0.7c0.4,0.4,0.6,0.7,0.7,0.9c0.1,0.2,0.2,0.7,0.4,1.5c0.2,0.8,0.3,1.6,0.5,2.5c0.2,0.9,0.3,1.7,0.5,2.5
			c0.2,0.8,0.2,1.3,0.2,1.5l1.6,4.8l3.2,12.8c0.2-0.1,0.5-0.3,0.9-0.7c0.4-0.4,0.6-0.7,0.7-0.9c0-0.1,0-0.5,0.1-1.3
			c0.1-0.7,0.1-1.3,0.1-1.8c0-0.4,0-1.1-0.1-1.9c-0.1-0.9-0.1-1.3-0.1-1.4l-1.6-8c0-0.4-0.1-1.5-0.2-3.2c-0.2-1.7-0.3-3.6-0.5-5.6
			c-0.2-2-0.3-3.9-0.5-5.6c-0.2-1.7-0.3-2.8-0.4-3.2c0-0.2-0.2-0.7-0.6-1.5c-0.4-0.8-0.7-1.4-1-1.7l-1.6-1.6
			c-0.2-0.1-0.6-0.2-1.2-0.3c-0.6-0.1-1.3-0.2-2-0.4c-0.7-0.2-1.4-0.3-2.1-0.5c-0.6-0.2-1-0.3-1.1-0.4c-0.2-0.1-0.5-0.3-0.9-0.7
			c-0.4-0.4-0.6-0.7-0.7-0.9v-1.8c0-1,0-2-0.1-3c-0.1-1.1-0.1-2-0.1-2.9v-4.5c0-1.1,0-2.1,0.1-3.1c0.1-1,0.1-1.9,0.1-2.6v-1.3
			c0-0.1,0.1-0.5,0.2-1.1c0.2-0.6,0.3-1.3,0.6-2.1c0.2-0.7,0.4-1.4,0.6-2c0.2-0.6,0.2-1,0.2-1.2c0-0.1,0-0.8,0.1-2
			c0.1-1.2,0.1-2.2,0.1-2.8c0-0.4,0-1.3-0.1-2.5c0-0.1,0-0.2,0-0.3c0.1,0,0.1,0,0.2,0c0.9-0.2,1.5-0.3,1.8-0.4l-1.6-1.6
			c-0.1,0-0.3,0-0.5,0.1c0,0,0-0.1,0-0.1c-0.2-0.2-0.7-0.5-1.6-0.9c-0.9-0.4-1.4-0.6-1.6-0.7c-0.9-0.1-1.4-0.2-1.6-0.2
			c-0.2,0-0.5,0-0.9,0.1c-0.4,0.1-0.6,0.1-0.7,0.1c0,0.7-0.1,1.5-0.1,2.5c-0.3,0-0.6,0.1-1,0.1c-1.7,0.2-3.3,0.3-4.8,0.4
			c-1.5,0.1-2.6,0.2-3.2,0.2h-3.2l-14.4,1.6h-1.6c-0.2-0.2-0.5-0.7-0.9-1.6c-0.4-0.9-0.6-1.4-0.7-1.6c-0.1-0.2-0.4-0.5-0.8-0.9
			c-0.4-0.4-0.7-0.6-0.8-0.7c-0.4-0.1-0.7-0.2-0.8-0.2c-0.1,0-0.4,0.1-0.8,0.2l-6.4,4.8c-1.5,1-3,1.6-4.6,2c-1.5,0.4-3.2,0.8-5,1.2
			l-8,1.6c-0.9,0.2-2.1,0.5-3.7,0.9c-1.6,0.4-2.5,0.6-2.7,0.7c-0.2,0.1-0.5,0.3-0.9,0.7c-0.4,0.4-0.6,0.7-0.7,0.9
			c0.1,0.2,0.3,0.5,0.7,0.9c0.4,0.4,0.7,0.6,0.9,0.7c0.3,0.2,1.2,0.7,2.6,1.5c1.4,0.8,3,1.6,4.6,2.5c1.6,0.9,3.1,1.7,4.6,2.5
			c1.4,0.8,2.3,1.3,2.6,1.5L30.4,64.3z M38.4,82.1c1,1.5,1.7,3.1,2.1,4.7c0.4,1.7,0.8,3.3,1.1,4.9c0.1,0.3,0.2,0.9,0.4,1.6
			c0.2,0.7,0.3,1.6,0.5,2.4c0.2,0.9,0.3,1.7,0.5,2.4c0.2,0.7,0.2,1.3,0.2,1.6c-0.2,0.2-0.5,0.3-0.8,0.3c-0.1,0-0.3,0-0.5-0.1
			c-0.2-0.1-0.3-0.1-0.3-0.2c-0.1-0.2-0.3-0.9-0.7-2.2c-0.4-1.2-0.7-2.1-0.9-2.6c-0.1-0.3-0.3-0.9-0.5-1.7c-0.2-0.8-0.4-1.6-0.6-2.5
			c-0.2-0.9-0.3-1.7-0.4-2.4c-0.1-0.7-0.2-1.2-0.2-1.4V82.1z M15.9,42.8C16,42.4,16,42.1,16,42c0.2-0.5,0.7-1.2,1.6-2
			c0.9-0.8,1.4-1.2,1.6-1.2H32v22.4l-16-16c-0.1-0.7-0.2-1.2-0.2-1.4C15.8,43.5,15.9,43.2,15.9,42.8z M427.5,383.8
			c-0.4-4.4-0.8-9-1.2-13.9c-0.4-4.9-0.8-9.5-1.1-13.9c-0.3-4.4-0.6-8.1-0.8-11.4c-0.2-3.2-0.3-5.4-0.3-6.4v-1c0-0.7,0-1.4-0.1-2.3
			c-0.1-0.8-0.1-1.6-0.1-2.4v-3.7c0-0.9,0-1.7,0.1-2.5c0.1-0.8,0.1-1.4,0.1-2v-1.2c0-0.6,0.1-1.5,0.2-2.8c0.1-1.3,0.3-2.7,0.4-4.2
			c0.2-1.4,0.4-2.8,0.6-4c0.2-1.2,0.4-2,0.5-2.3c0-0.2,0.2-0.8,0.5-1.6c0.3-0.8,0.7-1.7,1.2-2.6c0.4-0.9,0.8-1.8,1.2-2.6
			c0.3-0.8,0.5-1.4,0.5-1.6c0-0.1,0-0.7,0.1-1.8c0.1-1.1,0.1-2,0.1-2.5c0-0.6,0-1.3-0.1-2.3c-0.1-1-0.1-1.6-0.1-1.7
			c-0.1-0.3-0.6-0.9-1.4-1.8c-0.8-0.8-1.5-1.4-1.9-1.6c-0.1,0-0.6,0-1.3-0.1c-0.8-0.1-1.4-0.1-1.9-0.1c-0.4,0-1.1,0-2,0.1
			c-0.9,0.1-1.4,0.1-1.5,0.1c-0.2,0-0.5,0.2-0.9,0.7c-0.4,0.4-0.6,0.8-0.8,1c-0.1,1.2-0.2,2-0.2,2.3c0,0.3,0,0.8,0.1,1.5
			c0.1,0.7,0.1,1.1,0.1,1.2l1.7,5c0,0.1,0,0.4,0.1,0.8c0.1,0.4,0.1,0.8,0.1,1c0,0.2-0.1,0.7-0.2,1.5c-0.4,0.9-1.5,1.6-3,2.2
			c-0.9,0.2-2,0.4-3.3,0.7c-1.3,0.2-2,0.4-2.1,0.5c-0.2,0.1-0.7,0.5-1.4,1.3c-0.7,0.7-1.5,1.5-2.4,2.4c-0.9,0.9-1.8,1.8-2.6,2.7
			c-0.8,0.9-1.5,1.6-1.9,2c-0.1,0.1-0.4,0.6-0.8,1.4c-0.4,0.8-0.7,1.5-0.9,1.9c-0.1,0.3-0.3,0.8-0.5,1.3c-0.2,0.5-0.4,1-0.6,1.6
			c-0.2,0.6-0.4,1.3-0.6,2.2c0,0.1,0,0.7-0.1,1.8c-0.1,1.1-0.1,1.9-0.1,2.4c0,0.6,0,1.4,0.1,2.4c0.1,1.1,0.1,1.6,0.1,1.8
			c0,0.2,0.2,0.8,0.7,1.6c0.4,0.8,0.8,1.4,1,1.8c0.1,0.2,0.4,0.5,0.8,0.9c0.4,0.4,0.7,0.6,0.9,0.8l3.4,1.7c0.9,0.1,1.5,0.2,1.7,0.2
			c0.2,0,0.8-0.1,1.7-0.2c0.2-0.1,0.8-0.4,1.7-0.8c0.9-0.4,1.5-0.7,1.7-0.9l3.4-3.3l1.7-3.3c0.1-0.2,0.4-0.5,0.8-0.9
			c0.4-0.4,0.7-0.6,0.9-0.8c0.1,0.7,0.3,1.9,0.5,3.6c0.2,1.7,0.4,3.6,0.6,5.5c0.2,2,0.3,3.8,0.4,5.5c0.1,1.7,0.2,2.9,0.2,3.6v2.5
			c0,1.6,0,3.3,0.1,5.4c0.1,2,0.1,4,0.1,6v9.5c0,2,0,4-0.1,5.9c-0.1,1.9-0.1,3.6-0.1,5v2.5c0,0.6-0.1,1.4-0.2,2.7
			c-0.1,1.2-0.3,2.6-0.4,4c-0.2,1.4-0.4,2.8-0.6,4.1c-0.2,1.3-0.4,2.1-0.5,2.6c-0.1,0-0.3,0-0.4,0.1c-0.2,0.1-0.3,0.1-0.4,0.1
			c-0.1,0-0.4-0.1-0.8-0.2c-0.2-0.1-0.5-0.4-0.9-0.8c-0.4-0.4-0.6-0.7-0.8-0.9c-0.3-0.7-1-1.9-1.9-3.6c-1-1.7-2-3.6-3.1-5.6
			c-1.1-2-2.2-3.9-3.1-5.6c-1-1.7-1.6-2.9-1.9-3.6c0.2-0.2,0.3-0.8,0.3-1.7c0-0.9-0.1-1.5-0.3-1.7c-0.2-0.2-0.7-0.7-1.4-1.5
			c-0.7-0.8-1.5-1.6-2.4-2.5c-0.3-0.4-1-0.9-2.1-1.5c-1.1-0.6-1.9-0.9-2.4-1.2c-0.2,0-0.7,0.2-1.5,0.7c-0.4,0.2-0.8,0.5-1.2,0.6
			c0-0.1-0.1-0.2-0.1-0.2c-0.3-0.6-0.4-1-0.4-1.3v-11.7c0-0.2-0.1-0.8-0.3-1.8c-0.2-1-0.4-2.1-0.6-3.2c-0.2-1.1-0.4-2.2-0.6-3.2
			c-0.2-1-0.3-1.6-0.3-1.8v-1.5c0-0.1,0.1-0.5,0.3-1.2c0.2-0.7,0.4-1.4,0.6-2.1c0.2-0.7,0.4-1.4,0.6-2.1c0.2-0.7,0.3-1.1,0.3-1.3
			c0-0.1,0-0.7,0.1-1.8c0.1-1.1,0.1-2,0.1-2.5c0-0.6,0-1.3-0.1-2.3c-0.1-1-0.1-1.6-0.1-1.7l-5.1-21.8c-0.1-0.2-0.1-0.7,0.1-1.5
			c0.2-0.8,0.3-1.3,0.3-1.5c0.1,0,0.3-0.1,0.7-0.3c0.3-0.2,0.6-0.2,0.7-0.1l1.7,1.7c0.2,0.2,0.8,1.1,1.7,2.5
			c0.9,1.5,1.5,2.3,1.7,2.5c1.6,0.1,2.6,0.2,3,0.2c0.6,0,1.3,0,2.2-0.1c0.9-0.1,1.4-0.1,1.5-0.1c0.2-0.1,0.6-0.4,1-0.8
			c0.4-0.4,0.7-0.7,0.7-0.9c0-0.2-0.2-0.8-0.7-1.6c-0.4-0.8-0.8-1.4-1-1.8l-5.1-5c-0.1-0.1-0.5-0.3-1.2-0.7c-0.7-0.3-1.4-0.7-2.2-1
			c-0.8-0.3-1.5-0.7-2.2-1c-0.7-0.3-1.1-0.6-1.2-0.7c-0.2-0.1-0.5-0.4-0.9-0.8c-0.4-0.4-0.6-0.7-0.8-0.9c-0.2-0.4-0.5-1.3-0.9-2.6
			c-0.4-1.3-0.6-2.1-0.8-2.4v-6.7c0-0.6,0.1-1.4,0.2-2.6c0.1-1.2,0.3-2.4,0.4-3.6c0.2-1.2,0.4-2.4,0.6-3.4c0.2-1.1,0.4-1.8,0.5-2.1
			c0.1-0.3,0.3-1,0.6-1.9c0.3-0.9,0.6-2,0.9-3c0.3-1.1,0.7-2.1,1-3c0.3-0.9,0.6-1.6,0.8-2.1c0.1-0.3,0.4-0.9,0.8-1.8
			c0.4-0.9,1-1.9,1.5-2.9c0.6-1.1,1.1-2.1,1.6-3.1c0.5-1,0.9-1.7,1.1-2.2l3.4-5c0.2-0.3,0.5-0.8,0.9-1.5c0.4-0.7,0.8-1.4,1.1-2.2
			c0.3-0.8,0.8-1.8,1.3-3c0-0.1,0-0.6,0.1-1.4c0.1-0.8,0.1-1.5,0.1-1.9c0-0.4,0-1.1-0.1-1.9c-0.1-0.8-0.1-1.3-0.1-1.4
			c-0.1-0.3-0.6-1.1-1.4-2.4c-0.8-1.3-1.5-2.1-1.9-2.6c-0.2-0.2-0.8-0.5-1.6-0.9c-0.8-0.4-1.4-0.6-1.8-0.8c-0.9-0.1-1.5-0.2-1.7-0.2
			c-0.2,0-0.8,0.1-1.7,0.2c-0.2,0.1-0.8,0.4-1.7,0.8c-0.9,0.4-1.5,0.7-1.7,0.9c-0.2,0.2-0.6,0.6-1.2,1.1c-0.6,0.5-1.1,1-1.7,1.6
			c-0.6,0.6-1.1,1.1-1.5,1.5c-0.4,0.4-0.7,0.7-0.7,0.8c-0.1,0.2-0.3,0.7-0.4,1.3c-0.2,0.7-0.3,1.5-0.5,2.3c-0.2,0.9-0.3,1.8-0.5,2.7
			c-0.2,0.9-0.3,1.6-0.3,2v10c0,0.6-0.1,1.8-0.3,3.8c-0.2,2-0.4,4.1-0.6,6.4c-0.2,2.3-0.4,4.4-0.6,6.4c-0.2,2-0.3,3.2-0.3,3.6
			c0,0.7,0.1,2.1,0.2,4.3c0.1,2.2,0.3,4.6,0.4,7.3s0.4,5.3,0.6,7.9c0.2,2.6,0.4,4.5,0.5,5.7l1.7,8.4c0.1,0.7,0.3,2.1,0.5,4.4
			c0.2,2.2,0.4,4.7,0.6,7.4c0.2,2.7,0.3,5.3,0.4,7.8c0.1,2.5,0.2,4.4,0.2,5.6c0,0.2,0,1.1,0.1,2.6c0.1,1.5,0.1,2.6,0.1,3.3
			c0,0.6-0.1,2-0.2,4.2c-0.1,0.2-0.6,0.8-1.4,1.7c-0.8,0.9-1.5,1.5-1.9,1.7c-0.8,0.1-1.3,0.2-1.5,0.2c-0.2,0-0.6,0-1-0.1
			c-0.4-0.1-0.7-0.1-0.8-0.1l-3.4-1.7c-0.9-0.6-1.6-1.3-2.1-2.3c-0.5-0.9-0.9-1.9-1.3-2.8c-0.2-0.7-0.6-1.6-1-2.8
			c-0.4-1.2-0.7-2-0.7-2.2v-26.8c0-0.2,0.2-0.8,0.7-1.6c0.4-0.8,0.8-1.4,1-1.8c0.3-0.4,1.1-1.3,2.4-2.6c1.3-1.3,2.2-2.1,2.6-2.4
			c-0.1-0.2-0.4-0.5-0.8-0.9c-0.4-0.4-0.7-0.6-0.9-0.8h-1.7c-0.3,0.1-0.8,0.3-1.4,0.7c-0.6,0.3-1.3,0.7-1.9,1
			c-0.7,0.3-1.3,0.7-1.9,1c-0.6,0.3-1.1,0.6-1.4,0.7l-1.7,1.7c-0.3,0.4-0.9,1.3-1.8,2.6c-0.8,1.3-1.4,2.1-1.6,2.4l-3.4,6.7
			c-0.1,0.3-0.3,0.8-0.4,1.4c-0.2,0.6-0.3,1.3-0.5,2c-0.2,0.7-0.3,1.4-0.5,2c-0.2,0.6-0.3,1-0.3,1.3c0,0.1,0,0.8-0.1,2.1
			c-0.1,1.3-0.1,2.3-0.1,2.9c0,0.2,0,0.3,0,0.5h-32.7c0-0.2-0.2-0.8-0.5-1.7c-0.3-0.9-0.4-1.4-0.3-1.7c0.1-0.2,0.6-0.8,1.4-1.6
			c0.8-0.8,1.5-1.4,1.9-1.8c0.3-0.2,1.1-0.8,2.4-1.7c1.3-0.9,2.2-1.4,2.6-1.7c0.8-0.4,2.1-1.2,4-2.2c1.9-1,3.9-2.1,6.1-3.3
			c2.1-1.2,4.2-2.3,6.1-3.3c1.9-1.1,3.3-1.8,4-2.1h-28.1c0-0.2-0.1-0.6-0.3-1.3c-0.2-0.6-0.3-1-0.2-1.3c0-0.1,0.2-0.4,0.7-0.8
			c0.4-0.4,0.8-0.7,1-0.9l5.1-3.3c0.4-0.3,1.1-0.8,2-1.3c0.9-0.5,1.8-1,2.7-1.6c0.9-0.6,1.7-1,2.4-1.4c0.7-0.4,1.1-0.6,1.3-0.8
			l12.3-6.1c0.4,0,0.7,0.1,0.9,0.1c0.3,0,0.7,0,1.1-0.1c0.5-0.1,0.8-0.1,0.9-0.1c-0.3-0.2-0.6-0.6-1-1.1c0,0,0,0,0.1-0.1
			c0.4-0.4,0.6-0.7,0.8-0.9c-0.3-0.2-0.9-0.5-1.7-0.8c-0.2-0.1-0.3-0.1-0.5-0.2c-0.4-0.6-0.8-1.2-1.2-1.9c-0.7-1.1-1.3-2.2-1.8-3.2
			c-0.5-1-0.8-1.8-0.9-2.2c0-0.1,0-1.2-0.1-3.1c-0.1-1.9-0.1-3.5-0.1-4.6V265c0-1,0-1.9,0.1-2.8c0.1-0.9,0.1-1.8,0.1-2.6v-1.3
			c0-0.1,0.2-0.9,0.5-2.3c0.3-1.4,0.7-3,1.1-4.8c0.4-1.8,0.9-3.6,1.4-5.3c0.5-1.7,0.9-3.2,1.1-4.3c0.1-0.6,0.4-1.6,0.9-3.2
			c0.5-1.6,0.9-2.6,1.1-3c0.8-2.1,2-4.9,3.6-8.4c1.6-3.5,3.2-7.1,4.7-10.6c1.5-3.5,2.9-6.7,4.1-9.5c1.2-2.8,1.9-4.4,2.2-4.8
			c0.3-0.6,1-1.7,2.2-3.5c1.2-1.8,2.5-3.8,4-5.8c1.5-2.1,2.8-4.1,4.1-5.9c1.2-1.9,2-3,2.3-3.4c0.3-0.4,0.7-1.1,1.2-2.2
			c0.6-1,0.8-1.7,0.8-2c0.1-0.6,0.3-1.7,0.4-3.5c0.1-1.8,0.2-3,0.2-3.5c-0.7,0-2.2,0.1-4.5,0.3c-2.3,0.2-3.8,0.4-4.5,0.5
			c-0.1,0-0.5,0.3-0.9,0.8c-0.5,0.6-0.9,1-1.1,1.3c-0.1,0.3-0.4,0.8-0.8,1.6c-0.4,0.8-0.8,1.6-1.2,2.5c-0.4,0.9-0.8,1.7-1.2,2.5
			c-0.4,0.8-0.7,1.4-0.8,1.8c-0.3,0.4-0.7,1.4-1.1,3c-0.5,1.6-0.8,2.7-0.9,3.2L355.4,177c-0.6-0.1-0.9-0.2-1-0.2
			c-0.1,0-0.5,0.1-1,0.2c-0.3,0.3-0.7,0.9-1.1,2c-0.5,1-0.8,1.8-0.9,2.2c0,0.1,0,0.6-0.1,1.5c-0.1,0.8-0.1,1.5-0.1,1.9
			c0,0.4,0.1,1.4,0.2,2.9c0.1,0.3,0.5,0.8,1,1.7c0.6,0.8,1.2,1.7,2,2.6c0.8,0.9,1.5,1.8,2.1,2.6c0.6,0.8,1,1.3,1.1,1.5
			c0.3,0.3,0.7,1,1.1,2.1c0.5,1.1,0.8,1.8,0.9,2.1c-0.1,0.7-0.4,1.8-0.7,3.3c-0.3,1.5-0.7,3.2-1.1,5c-0.4,1.8-0.9,3.5-1.4,5.1
			c-0.5,1.6-0.8,2.7-0.9,3.2c-0.3,0.7-0.9,2.4-1.9,5c-1,2.6-2.1,5.5-3.3,8.5c-1.2,3.1-2.4,5.9-3.4,8.5c-1,2.6-1.6,4.3-1.8,5
			c-0.1,0.4-0.4,1.4-0.7,2.8c-0.3,1.5-0.7,3.1-1.1,4.8c-0.4,1.7-0.9,3.5-1.4,5.2c-0.5,1.7-0.8,3-0.9,3.9l-2.1,12.5v2.1
			c0.3,0.3,0.9,0.9,1.9,2c1,1,1.7,1.8,2.3,2.2c0.1,0.1,0.3,0.2,0.4,0.4c-0.2,0-0.4,0-0.6-0.1c-1.9-0.2-3.9-0.4-6.1-0.6
			c-2.1-0.2-4.2-0.3-6.1-0.4c-1.9-0.1-3.3-0.2-4-0.2c0-0.4-0.1-1.2-0.2-2.3c-0.1-1.1-0.3-2.3-0.4-3.6c-0.2-1.3-0.4-2.5-0.6-3.5
			c-0.2-1.1-0.4-1.8-0.5-2.3c-0.1-0.3-0.5-0.9-1.2-1.8c-0.7-0.8-1.1-1.4-1.3-1.6V279c-0.3,0-1-0.1-1.9-0.2c-0.9-0.1-1.8-0.2-2.8-0.3
			c-1-0.1-1.9-0.1-2.8-0.2c-0.9-0.1-1.5-0.1-1.9-0.1c-0.2,0-0.8,0.2-1.6,0.7c-0.8,0.4-1.4,0.8-1.8,1c-0.2,0.2-0.6,0.5-1,0.9
			c-0.4,0.4-0.7,0.6-0.7,0.8c0,0.1,0,0.5-0.1,1.2c-0.1,0.7-0.1,1.2-0.1,1.5c0,0.3,0.1,1.1,0.2,2.3c0.1,0.2,0.4,0.6,0.8,1
			c0.4,0.4,1,0.9,1.6,1.5c0.6,0.6,1.2,1.1,1.7,1.6c0.5,0.5,0.8,0.8,0.9,0.9c0.2,0.2,0.6,0.8,1,1.7c0.4,0.9,0.7,1.5,0.7,1.7
			c0,0.1,0,0.6,0.1,1.5c0.1,0.9,0.1,1.6,0.1,2c0,0.4,0,1.1-0.1,1.8c-0.1,0.8-0.1,1.2-0.1,1.3c-0.1,0.2-0.7,0.8-1.7,1.7
			c-1,0.9-1.6,1.5-1.7,1.7c0,0.1,0,0.4-0.1,0.8c-0.1,0.4-0.1,0.7-0.1,0.9c0,0.2,0.1,0.8,0.2,1.7c0.2,0.2,0.8,0.6,1.6,1
			c0.8,0.4,1.4,0.7,1.8,0.7c0.1,0.4,0.2,1.4,0.3,2.9c0.1,1.5,0.2,2.5,0.2,2.9c0,0.8-0.1,1.9-0.2,3.3c-0.1,1.5-0.2,2.3-0.3,2.5
			c-0.1,0.2-0.5,0.7-1.2,1.3c-0.7,0.7-1.4,1.4-2.2,2.1c-0.8,0.7-1.5,1.4-2.2,2.1c-0.7,0.7-1.1,1.1-1.2,1.2c-0.1,0.4-0.2,0.8-0.2,1
			c0,0.1,0.1,0.3,0.2,0.7l7.6,3.3V346c3-0.2,5-0.4,5.9-0.7c0.2-0.1,0.5-0.4,0.9-0.8c0.4-0.4,0.6-0.7,0.8-0.9
			c0.1-0.4,0.3-1.2,0.5-2.3c0.2-1.1,0.4-2.2,0.6-3.5c0.2-1.3,0.3-2.5,0.4-3.6c0.1-1.1,0.2-1.9,0.2-2.3h2.2c1,0,2.1,0,3.3-0.1
			c1.2-0.1,2.3-0.1,3.3-0.1h5.1c1.2,0,2.4,0,3.6,0.1c1.2,0.1,2.2,0.1,2.9,0.1h1.5c0.1,0,0.4,0.1,0.9,0.3c0.5,0.2,1,0.3,1.6,0.5
			c0.6,0.2,1.1,0.4,1.6,0.6c0.5,0.2,0.8,0.3,0.9,0.3c0.1,0,0.4,0,0.8,0.1c0.4,0.1,0.7,0.1,0.9,0.1c0.2,0,0.8-0.1,1.7-0.2
			c0.4-0.1,1.1-0.4,1.9-0.8c0.8-0.4,1.3-0.7,1.4-0.9c0.1-0.2,0.2-0.5,0.3-0.9c0.1,0.5,0.1,1,0.2,1.5c0.4,2.5,1.4,4.9,2.9,7.3l3.4,5
			c0.4,0.4,1.3,1.3,2.6,2.6c1.3,1.3,2.1,2,2.4,2.3c0.3,0.2,0.8,0.5,1.4,0.8c0.6,0.3,1.3,0.6,1.9,0.9c0.7,0.3,1.3,0.7,1.9,1
			c0.6,0.3,1.1,0.6,1.4,0.7c0.2,0.1,1.1,0.2,2.5,0.2c1.5,0,2.3-0.1,2.5-0.2c0.1,0.3,0.3,1,0.6,1.9c0.3,0.9,0.6,2,0.9,3.1
			c0.3,1.1,0.7,2.1,1,3.1c0.3,0.9,0.6,1.6,0.8,1.9c0.2,0.4,0.6,1.2,1.1,2.2c0.5,1,1,2,1.5,3.1c0.5,1.1,1,2,1.4,2.9
			c0.4,0.9,0.8,1.5,1,1.8c0.1,0.2,0.5,0.7,1.1,1.5c0.1,0.1,0.2,0.3,0.3,0.4c0,0.1,0,0.2,0,0.4c0.1,0.6,0.1,1,0.1,1.3l8.4,8.4
			l5.1,6.7c0.3,0.3,1,1.1,1.9,2.2c1,1.1,2,2.3,3,3.6c1.1,1.3,2.1,2.5,3,3.6c1,1.1,1.7,1.9,2.1,2.3l3.4,3.3c0.4,0.4,1.3,1.1,2.7,2
			c1.3,0.9,2.1,1.3,2.4,1.3c0.1,0,0.4,0,0.8,0.1c0.4,0.1,0.8,0.1,1,0.1c0.2,0,0.7-0.1,1.5-0.2c0.2-0.1,0.5-0.6,0.9-1.4
			c0.4-0.8,0.6-1.5,0.8-1.9v-5c-0.1-1-0.3-3.2-0.6-6.4C428.3,392,427.9,388.2,427.5,383.8z M416.6,315.7c-0.4,1.3-0.7,2.1-0.9,2.4
			c-0.1,0.2-0.4,0.5-0.8,0.8c-0.4,0.3-0.7,0.6-0.9,0.8c-0.9,0.6-1.8,1-2.6,1.4c-0.8,0.4-1.8,0.6-2.8,0.6c0-0.7,0.1-1.3,0.3-2
			c0.1-0.3,0.4-0.9,0.8-1.8c0.4-0.8,0.7-1.4,0.9-1.6c0.3-0.4,0.9-1.1,1.8-1.9c0.8-0.8,1.4-1.3,1.6-1.4c0.9-0.1,1.5-0.2,1.7-0.2
			c0.2,0,0.5,0,0.9,0.1c0.4,0.1,0.6,0.1,0.8,0.1C417.2,313.6,417,314.5,416.6,315.7z M400.7,234.3c0.6,0.2,0.8,0.5,0.8,0.8
			c0,0.3-0.3,0.6-0.8,0.8c-0.6,0.2-0.8-0.1-0.8-0.8C399.8,234.4,400.1,234.1,400.7,234.3z M389.2,255.4c0.2-1.1,0.3-2.3,0.5-3.6
			c0.2-1.3,0.3-2.5,0.5-3.6c0.2-1.1,0.3-1.8,0.4-2.2c0-0.2,0.2-0.8,0.7-1.6c0.4-0.8,0.8-1.4,1-1.8c0.2-0.4,0.8-1.3,1.7-2.6
			c0.9-1.3,1.5-2.1,1.7-2.4c0,0.2,0,0.8,0.1,1.7c0.1,0.9,0.1,1.5,0.1,1.7c0,0.4,0,1.1-0.1,1.9c-0.1,0.8-0.1,1.3-0.1,1.4
			c0,0.2-0.2,1-0.7,2.3c-0.4,1.3-0.8,2.2-1,2.8c-0.2,0.6-0.6,1.4-1.1,2.5c-0.5,1.1-1,2.1-1.6,3c-0.3,0.6-0.7,1.1-1,1.7
			c-0.3,0.6-0.8,0.9-1.3,1.2C388.9,257.3,389,256.5,389.2,255.4z M324.9,310.1h8.4c-1.2,0.9-2.6,1.8-4,2.8c-1.5,0.9-2.9,1.7-4.4,2.3
			V310.1z M319.9,313.5c-0.2,0.1-0.4,0-0.6-0.4c-0.2-0.4-0.3-0.8-0.3-1.3c0-0.4,0.1-0.9,0.3-1.3c0.2-0.4,0.4-0.5,0.6-0.4
			c0.6,0.2,0.8,0.8,0.8,1.7C320.7,312.7,320.4,313.3,319.9,313.5z M321.6,298.4c-0.1-0.3-0.3-0.9-0.7-1.7c-0.3-0.8-0.7-1.6-1-2.5
			c-0.3-0.9-0.7-1.7-1-2.5c-0.3-0.8-0.6-1.3-0.7-1.7c-0.1-0.2-0.2-0.5-0.3-0.8c-0.1-0.3-0.1-0.6-0.1-0.8h3.7V298.4z M324.8,293.4
			c0-0.4,0-1.1,0.1-1.9c0.1-0.8,0.1-1.3,0.1-1.4c0.1-0.6,0.4-1.3,0.8-2.1c0.4-0.8,0.7-1.3,0.9-1.3l11.8-1.7v3.3
			c-1.6,1.1-2.9,2-4,2.8c-1.1,0.7-2.2,1.5-3.3,2.2c-1.1,0.7-2.1,1.3-2.9,1.8c-0.2,0.2-0.8,0.5-1.7,0.9c-0.9,0.4-1.5,0.6-1.7,0.8
			c0-0.2,0-0.8-0.1-1.7C324.8,294.2,324.8,293.6,324.8,293.4z M365.3,314.7c-0.9,0-1.3-0.6-1.3-1.7c0-1.1,0.4-1.7,1.3-1.7
			c0.9,0,1.3,0.6,1.3,1.7C366.7,314.1,366.2,314.7,365.3,314.7z M478,318.5c-0.6,0.4-1.5,1.2-2.7,2.3c-1.2,1.1-2.6,2.3-4,3.6
			c-1.5,1.3-2.8,2.5-4.1,3.5c-1.3,1.1-2.2,1.8-2.6,2.3c-0.1,0.1-0.6,0.4-1.4,0.8c-0.8,0.4-1.5,0.7-1.9,0.9c-0.6,0.2-1.5,0.6-2.9,1
			c-1.3,0.4-2.1,0.7-2.2,0.7c-0.2,0-1,0-2.4,0.1c-1.3,0.1-2.4,0.1-3,0.1c-0.6,0-1.5,0-2.7-0.1c-1.2-0.1-1.9-0.1-2-0.1
			c-0.3,0-0.8-0.1-1.4-0.4c-0.6-0.3-1.3-0.6-2-1c-0.7-0.4-1.4-0.8-2-1.1c-0.6-0.3-1-0.6-1.3-0.8c-0.2-0.1-0.6-0.5-1-1.1
			c-0.4-0.6-0.9-1.3-1.4-2c-0.5-0.7-1-1.4-1.5-2.1c-0.5-0.7-0.9-1.2-1.1-1.5c-0.2-0.3-0.5-1.1-0.9-2.4c-0.4-1.3-0.6-2.1-0.8-2.6
			c-0.1-0.4-0.1-1.3,0.1-2.4s0.3-2,0.3-2.4c0.2,0,0.4,0,0.7-0.1c0.2-0.1,0.4-0.1,0.7-0.1c0.1,0,0.4,0.1,0.9,0.3
			c0.5,0.2,1,0.4,1.6,0.6c0.6,0.2,1.1,0.3,1.6,0.5c0.5,0.2,0.8,0.3,0.9,0.3c0.2,0,0.9,0,2.1,0.1c1.2,0.1,2,0.1,2.6,0.1
			c0.6,0,1.8-0.1,3.7-0.2c0.3-0.1,0.8-0.5,1.5-1.1c0.7-0.6,1.4-1.3,2.1-2c0.7-0.7,1.4-1.4,1.9-2.1c0.6-0.7,1-1.2,1.2-1.5
			c0-0.1,0-0.6,0.1-1.5c0.1-0.9,0.1-1.6,0.1-2.2c0-0.6,0-1.4-0.1-2.7c-0.1-1.2-0.1-1.9-0.1-2c0-0.1-0.2-0.4-0.7-0.8
			c-0.4-0.4-0.8-0.7-1-0.9c-0.7-0.6-1.7-1.3-2.9-2.1c-1.3-0.8-2-1.3-2.1-1.3c-0.1,0-0.8,0-2-0.1c-1.2-0.1-2.1-0.1-2.7-0.1
			c-0.7,0-1.7,0-3,0.1c-1.3,0.1-2.1,0.1-2.4,0.1c-0.2,0-0.8,0.2-1.6,0.7c-0.8,0.4-1.4,0.8-1.8,1l-3.4,3.3c-0.2,0.2-0.5,0.8-0.9,1.7
			c-0.4,0.9-0.6,1.4-0.8,1.7v1.8c0,0.9,0,1.8-0.1,2.8c-0.1,0.9-0.1,1.9-0.1,2.8v4.2c0,1,0,2,0.1,3c0.1,1,0.1,1.9,0.1,2.7v1.2
			c0,0.1,0.2,0.8,0.7,2.1c0.4,1.3,0.8,2.3,1,2.9c0.2,0.6,0.5,1.3,0.8,2.1c0.3,0.8,0.7,1.7,1,2.6s0.6,1.7,0.9,2.4
			c0.3,0.7,0.5,1.1,0.6,1.3l3.4,5l1.7,1.7c0.3,0.2,0.9,0.5,1.6,0.9c0.7,0.4,1.5,0.7,2.2,1.1c0.7,0.4,1.4,0.8,1.9,1.1
			c0.6,0.3,0.9,0.4,1,0.4h10.1c0.2,0,0.8-0.2,1.7-0.7c0.9-0.4,1.5-0.8,1.7-1l5.1-5l10.1-11.7c0.1-0.1,0.5-0.5,1.3-1.2
			c0.7-0.7,1.5-1.4,2.2-2.2c0.7-0.8,1.4-1.5,2.1-2.1c0.7-0.6,1.1-1,1.2-1.3c0.1-0.1,0.3-0.4,0.4-0.8c0.2-0.4,0.3-0.7,0.3-0.8H478z
			 M449.3,300.1c0.9,0,1.3,0.6,1.3,1.7c0,1.1-0.4,1.7-1.3,1.7c-0.9,0-1.3-0.6-1.3-1.7C448,300.7,448.4,300.1,449.3,300.1z
			 M433.6,308c0.2-0.7,0.4-1.1,0.6-1.2c0.1-0.1,0.8-0.4,2.1-0.8c1.3-0.4,2.3-0.7,2.9-0.9c0.6-0.2,1.7-0.5,3.4-0.9
			c1.7-0.4,2.8-0.6,3.4-0.8c0,0.1,0,0.4,0.1,0.8c0.1,0.4,0.1,0.7,0.1,0.9c0,0.2-0.1,0.8-0.2,1.7c-0.1,0.2-0.4,0.6-0.8,1
			c-0.4,0.4-0.7,0.7-0.9,0.7c-0.3,0-1,0.1-2.1,0.2c-1.1,0.1-2.2,0.2-3.4,0.3c-1.2,0.1-2.3,0.1-3.4,0.2c-1.1,0.1-1.8,0.1-2.1,0.1
			C433.3,309,433.4,308.6,433.6,308z M479.6,330.2c0,0.2,0.2,0.6,0.7,1c0.4,0.4,0.8,0.7,1,0.7v-6.7c-0.2,0.3-0.6,1.1-1,2.4
			C479.9,328.9,479.6,329.8,479.6,330.2z"/>
	</g>
</g>
</svg>
